<svg width="297" height="297" viewBox="0 0 297 297" fill="none" xmlns="http://www.w3.org/2000/svg">
<circle cx="152.5" cy="8.5" r="4.5" fill="#F5F5F5"/>
<path fill-rule="evenodd" clip-rule="evenodd" d="M148.5 297C230.514 297 297 230.514 297 148.5C297 66.4857 230.514 0 148.5 0C66.4857 0 0 66.4857 0 148.5C0 230.514 66.4857 297 148.5 297ZM148.5 277C219.469 277 277 219.469 277 148.5C277 77.5314 219.469 20 148.5 20C77.5314 20 20 77.5314 20 148.5C20 219.469 77.5314 277 148.5 277Z" fill="black" fill-opacity="0.8"/>
<circle cx="76.5" cy="28.5" r="4.5" fill="#F5F5F5"/>
<circle cx="219.5" cy="28.5" r="4.5" fill="#F5F5F5"/>
<circle cx="272.5" cy="83.5" r="4.5" fill="#F5F5F5"/>
<circle cx="270.5" cy="215.5" r="4.5" fill="#F5F5F5"/>
<circle cx="147.5" cy="285.5" r="4.5" fill="#F5F5F5"/>
<circle cx="152.5" cy="10.5" r="4.5" fill="#F5F5F5"/>
<circle cx="217.5" cy="267.5" r="4.5" fill="#F5F5F5"/>
<circle cx="288.5" cy="151.5" r="4.5" fill="#F5F5F5"/>
<circle cx="25.5" cy="79.5" r="4.5" fill="#F5F5F5"/>
<circle cx="71.5" cy="267.5" r="4.5" fill="#F5F5F5"/>
<circle cx="21.5" cy="215.5" r="4.5" fill="#F5F5F5"/>
<circle cx="7.5" cy="148.5" r="4.5" fill="#F5F5F5"/>
</svg>
