<svg width="495" height="175" viewBox="0 0 495 175" fill="none" xmlns="http://www.w3.org/2000/svg">
<rect width="495" height="175" rx="31" fill="url(#paint0_linear_24_9)"/>
<path d="M164.509 75V35H181.189C184.184 35 186.69 35.4232 188.708 36.2695C190.74 37.1159 192.263 38.3008 193.279 39.8242C194.307 41.3477 194.822 43.112 194.822 45.1172C194.822 46.6406 194.503 48.0013 193.865 49.1992C193.227 50.3841 192.348 51.3672 191.228 52.1484C190.108 52.9297 188.813 53.4766 187.341 53.7891V54.1797C188.956 54.2578 190.447 54.694 191.814 55.4883C193.194 56.2826 194.301 57.3893 195.134 58.8086C195.968 60.2148 196.384 61.8815 196.384 63.8086C196.384 65.957 195.837 67.8776 194.744 69.5703C193.65 71.25 192.068 72.5781 189.998 73.5547C187.927 74.5182 185.414 75 182.458 75H164.509ZM174.177 67.207H180.154C182.25 67.207 183.793 66.8099 184.783 66.0156C185.785 65.2214 186.287 64.1146 186.287 62.6953C186.287 61.6667 186.046 60.7812 185.564 60.0391C185.082 59.2839 184.399 58.7044 183.513 58.3008C182.628 57.8841 181.567 57.6758 180.33 57.6758H174.177V67.207ZM174.177 51.4453H179.529C180.583 51.4453 181.521 51.2695 182.341 50.918C183.162 50.5664 183.8 50.0586 184.255 49.3945C184.724 48.7305 184.958 47.9297 184.958 46.9922C184.958 45.651 184.483 44.5964 183.533 43.8281C182.582 43.0599 181.3 42.6758 179.685 42.6758H174.177V51.4453ZM215.037 75.5664C211.886 75.5664 209.177 74.9219 206.912 73.6328C204.659 72.3307 202.921 70.5208 201.697 68.2031C200.486 65.8724 199.88 63.1706 199.88 60.0977C199.88 57.0117 200.486 54.3099 201.697 51.9922C202.921 49.6615 204.659 47.8516 206.912 46.5625C209.177 45.2604 211.886 44.6094 215.037 44.6094C218.188 44.6094 220.889 45.2604 223.142 46.5625C225.408 47.8516 227.146 49.6615 228.357 51.9922C229.581 54.3099 230.193 57.0117 230.193 60.0977C230.193 63.1706 229.581 65.8724 228.357 68.2031C227.146 70.5208 225.408 72.3307 223.142 73.6328C220.889 74.9219 218.188 75.5664 215.037 75.5664ZM215.095 68.3594C216.241 68.3594 217.211 68.0078 218.005 67.3047C218.8 66.6016 219.405 65.625 219.822 64.375C220.251 63.125 220.466 61.6797 220.466 60.0391C220.466 58.3724 220.251 56.9141 219.822 55.6641C219.405 54.4141 218.8 53.4375 218.005 52.7344C217.211 52.0312 216.241 51.6797 215.095 51.6797C213.91 51.6797 212.908 52.0312 212.087 52.7344C211.28 53.4375 210.662 54.4141 210.232 55.6641C209.815 56.9141 209.607 58.3724 209.607 60.0391C209.607 61.6797 209.815 63.125 210.232 64.375C210.662 65.625 211.28 66.6016 212.087 67.3047C212.908 68.0078 213.91 68.3594 215.095 68.3594ZM244.636 57.8906V75H235.085V45H244.167V50.5078H244.5C245.164 48.6719 246.296 47.2331 247.898 46.1914C249.5 45.1367 251.407 44.6094 253.621 44.6094C255.73 44.6094 257.559 45.0846 259.109 46.0352C260.671 46.9727 261.882 48.2878 262.742 49.9805C263.614 51.6602 264.044 53.6263 264.031 55.8789V75H254.48V57.7539C254.493 56.0872 254.07 54.7852 253.21 53.8477C252.364 52.9102 251.186 52.4414 249.675 52.4414C248.673 52.4414 247.787 52.6628 247.019 53.1055C246.264 53.5352 245.678 54.1536 245.261 54.9609C244.858 55.7682 244.649 56.7448 244.636 57.8906ZM289.299 62.0508V45H298.831V75H289.729V69.4141H289.417C288.752 71.25 287.62 72.7083 286.018 73.7891C284.43 74.8568 282.509 75.3906 280.256 75.3906C278.212 75.3906 276.415 74.9219 274.866 73.9844C273.316 73.0469 272.112 71.7383 271.252 70.0586C270.393 68.3659 269.957 66.3867 269.944 64.1211V45H279.495V62.2461C279.508 63.8737 279.937 65.1562 280.784 66.0937C281.63 67.0312 282.782 67.5 284.241 67.5C285.191 67.5 286.044 67.2917 286.799 66.875C287.568 66.4453 288.173 65.8268 288.616 65.0195C289.071 64.1992 289.299 63.2096 289.299 62.0508ZM331.101 54.1602L322.332 54.3945C322.24 53.7695 321.993 53.2161 321.589 52.7344C321.186 52.2396 320.658 51.8555 320.007 51.582C319.369 51.2956 318.627 51.1523 317.781 51.1523C316.674 51.1523 315.73 51.3737 314.949 51.8164C314.181 52.2591 313.803 52.8581 313.816 53.6133C313.803 54.1992 314.037 54.707 314.519 55.1367C315.014 55.5664 315.893 55.9115 317.156 56.1719L322.937 57.2656C325.932 57.8385 328.158 58.7891 329.617 60.1172C331.088 61.4453 331.83 63.2031 331.843 65.3906C331.83 67.4479 331.218 69.2383 330.007 70.7617C328.809 72.2852 327.169 73.4701 325.085 74.3164C323.002 75.1497 320.619 75.5664 317.937 75.5664C313.653 75.5664 310.274 74.6875 307.8 72.9297C305.339 71.1589 303.933 68.7891 303.582 65.8203L313.015 65.5859C313.223 66.6797 313.764 67.513 314.636 68.0859C315.509 68.6589 316.622 68.9453 317.976 68.9453C319.2 68.9453 320.196 68.7174 320.964 68.2617C321.733 67.806 322.123 67.2005 322.136 66.4453C322.123 65.7682 321.824 65.2279 321.238 64.8242C320.652 64.4076 319.734 64.082 318.484 63.8477L313.25 62.8516C310.242 62.3047 308.002 61.2956 306.531 59.8242C305.059 58.3398 304.33 56.4518 304.343 54.1602C304.33 52.1549 304.864 50.4427 305.945 49.0234C307.026 47.5911 308.562 46.4974 310.554 45.7422C312.546 44.987 314.897 44.6094 317.605 44.6094C321.667 44.6094 324.871 45.4622 327.214 47.168C329.558 48.8607 330.854 51.1914 331.101 54.1602Z" fill="white"/>
<path d="M164.509 75H161.509V78H164.509V75ZM164.509 35V32H161.509V35H164.509ZM188.708 36.2695L187.548 39.0361L187.555 39.0388L188.708 36.2695ZM193.279 39.8242L190.783 41.4883L190.788 41.4957L190.793 41.503L193.279 39.8242ZM193.865 49.1992L196.506 50.6215L196.513 50.6095L193.865 49.1992ZM191.228 52.1484L189.511 49.6881L189.511 49.6881L191.228 52.1484ZM187.341 53.7891L186.718 50.8545L184.341 51.3593V53.7891H187.341ZM187.341 54.1797H184.341V57.038L187.196 57.1762L187.341 54.1797ZM191.814 55.4883L190.307 58.0823L190.318 58.0885L191.814 55.4883ZM195.134 58.8086L192.547 60.3276L192.553 60.338L195.134 58.8086ZM194.744 69.5703L197.258 71.2073L197.263 71.1985L194.744 69.5703ZM189.998 73.5547L191.263 76.2745L191.27 76.2713L191.277 76.268L189.998 73.5547ZM174.177 67.207H171.177V70.207H174.177V67.207ZM184.783 66.0156L182.92 63.6641L182.912 63.67L182.905 63.676L184.783 66.0156ZM185.564 60.0391L183.035 61.6525L183.041 61.6625L183.048 61.6725L185.564 60.0391ZM183.513 58.3008L182.236 61.0152L182.252 61.023L182.269 61.0305L183.513 58.3008ZM174.177 57.6758V54.6758H171.177V57.6758H174.177ZM174.177 51.4453H171.177V54.4453H174.177V51.4453ZM184.255 49.3945L181.804 47.6645L181.793 47.6807L181.782 47.697L184.255 49.3945ZM183.533 43.8281L185.418 41.4949L185.418 41.4949L183.533 43.8281ZM174.177 42.6758V39.6758H171.177V42.6758H174.177ZM167.509 75V35H161.509V75H167.509ZM164.509 38H181.189V32H164.509V38ZM181.189 38C183.923 38 186.006 38.3893 187.548 39.0361L189.869 33.5029C187.375 32.457 184.445 32 181.189 32V38ZM187.555 39.0388C189.151 39.704 190.157 40.5497 190.783 41.4883L195.775 38.1601C194.369 36.0518 192.328 34.5278 189.862 33.5003L187.555 39.0388ZM190.793 41.503C191.456 42.4855 191.822 43.6535 191.822 45.1172H197.822C197.822 42.5705 197.159 40.2098 195.765 38.1454L190.793 41.503ZM191.822 45.1172C191.822 46.2099 191.597 47.0761 191.217 47.7889L196.513 50.6095C197.409 48.9265 197.822 47.0714 197.822 45.1172H191.822ZM191.223 47.7769C190.811 48.5419 190.252 49.1716 189.511 49.6881L192.945 54.6088C194.444 53.5628 195.642 52.2263 196.506 50.6215L191.223 47.7769ZM189.511 49.6881C188.753 50.2174 187.837 50.6169 186.718 50.8545L187.965 56.7236C189.788 56.3363 191.464 55.642 192.945 54.6088L189.511 49.6881ZM184.341 53.7891V54.1797H190.341V53.7891H184.341ZM187.196 57.1762C188.342 57.2316 189.365 57.5348 190.307 58.0823L193.321 52.8943C191.529 51.8532 189.569 51.284 187.486 51.1832L187.196 57.1762ZM190.318 58.0885C191.231 58.6141 191.968 59.3415 192.547 60.3276L197.721 57.2896C196.634 55.4371 195.157 53.951 193.31 52.8881L190.318 58.0885ZM192.553 60.338C193.067 61.2043 193.384 62.3225 193.384 63.8086H199.384C199.384 61.4405 198.868 59.2254 197.715 57.2792L192.553 60.338ZM193.384 63.8086C193.384 65.4194 192.983 66.7671 192.224 67.9422L197.263 71.1985C198.692 68.9881 199.384 66.4947 199.384 63.8086H193.384ZM192.23 67.9333C191.481 69.0834 190.358 70.0677 188.718 70.8414L191.277 76.268C193.778 75.0885 195.819 73.4166 197.258 71.2073L192.23 67.9333ZM188.732 70.8348C187.157 71.5679 185.101 72 182.458 72V78C185.728 78 188.698 77.4685 191.263 76.2745L188.732 70.8348ZM182.458 72H164.509V78H182.458V72ZM174.177 70.207H180.154V64.207H174.177V70.207ZM180.154 70.207C182.523 70.207 184.889 69.7775 186.661 68.3552L182.905 63.676C182.698 63.8423 181.977 64.207 180.154 64.207V70.207ZM186.646 68.3671C188.452 66.9364 189.287 64.9165 189.287 62.6953H183.287C183.287 63.3127 183.119 63.5064 182.92 63.6641L186.646 68.3671ZM189.287 62.6953C189.287 61.1832 188.926 59.7091 188.08 58.4056L183.048 61.6725C183.165 61.8534 183.287 62.1501 183.287 62.6953H189.287ZM188.093 58.4256C187.273 57.14 186.123 56.1934 184.758 55.5711L182.269 61.0305C182.675 61.2155 182.891 61.4277 183.035 61.6525L188.093 58.4256ZM184.791 55.5863C183.415 54.9388 181.895 54.6758 180.33 54.6758V60.6758C181.238 60.6758 181.841 60.8294 182.236 61.0152L184.791 55.5863ZM180.33 54.6758H174.177V60.6758H180.33V54.6758ZM171.177 57.6758V67.207H177.177V57.6758H171.177ZM174.177 54.4453H179.529V48.4453H174.177V54.4453ZM179.529 54.4453C180.917 54.4453 182.268 54.2134 183.523 53.6754L181.16 48.1605C180.774 48.3257 180.25 48.4453 179.529 48.4453V54.4453ZM183.523 53.6754C184.807 53.125 185.918 52.2744 186.729 51.0921L181.782 47.697C181.682 47.8428 181.516 48.0078 181.16 48.1605L183.523 53.6754ZM186.706 51.1246C187.585 49.8796 187.958 48.451 187.958 46.9922H181.958C181.958 47.4084 181.863 47.5813 181.804 47.6645L186.706 51.1246ZM187.958 46.9922C187.958 44.8455 187.148 42.893 185.418 41.4949L181.647 46.1613C181.818 46.2997 181.958 46.4566 181.958 46.9922H187.958ZM185.418 41.4949C183.784 40.174 181.764 39.6758 179.685 39.6758V45.6758C180.835 45.6758 181.38 45.9458 181.647 46.1613L185.418 41.4949ZM179.685 39.6758H174.177V45.6758H179.685V39.6758ZM171.177 42.6758V51.4453H177.177V42.6758H171.177ZM206.912 73.6328L205.41 76.2301L205.419 76.2352L205.428 76.2403L206.912 73.6328ZM201.697 68.2031L199.035 69.5862L199.039 69.5952L199.044 69.604L201.697 68.2031ZM201.697 51.9922L199.041 50.5974L199.038 50.603L201.697 51.9922ZM206.912 46.5625L208.402 49.1663L208.406 49.1635L206.912 46.5625ZM223.142 46.5625L221.641 49.1598L221.65 49.1649L221.659 49.17L223.142 46.5625ZM228.357 51.9922L225.695 53.3753L225.699 53.3842L225.704 53.3931L228.357 51.9922ZM228.357 68.2031L225.701 66.8083L225.698 66.8139L228.357 68.2031ZM223.142 73.6328L224.632 76.2366L224.637 76.2339L223.142 73.6328ZM218.005 67.3047L216.017 65.0584L216.017 65.0584L218.005 67.3047ZM219.822 64.375L216.985 63.3998L216.98 63.413L216.976 63.4263L219.822 64.375ZM219.822 55.6641L216.976 56.6127L216.98 56.626L216.985 56.6393L219.822 55.6641ZM218.005 52.7344L219.994 50.4881L219.994 50.4881L218.005 52.7344ZM212.087 52.7344L210.135 50.4566L210.126 50.4643L210.117 50.4721L212.087 52.7344ZM210.232 55.6641L207.395 54.6888L207.39 54.7021L207.386 54.7154L210.232 55.6641ZM210.232 64.375L207.386 65.3237L207.39 65.337L207.395 65.3502L210.232 64.375ZM212.087 67.3047L210.117 69.5669L210.126 69.5747L210.135 69.5825L212.087 67.3047ZM215.037 72.5664C212.297 72.5664 210.123 72.0084 208.395 71.0253L205.428 76.2403C208.231 77.8354 211.474 78.5664 215.037 78.5664V72.5664ZM208.413 71.0355C206.653 70.0181 205.312 68.6246 204.35 66.8022L199.044 69.604C200.529 72.417 202.665 74.6433 205.41 76.2301L208.413 71.0355ZM204.359 66.82C203.405 64.9837 202.88 62.7709 202.88 60.0977H196.88C196.88 63.5702 197.567 66.7611 199.035 69.5862L204.359 66.82ZM202.88 60.0977C202.88 57.4086 203.406 55.1994 204.356 53.3814L199.038 50.603C197.566 53.4204 196.88 56.6149 196.88 60.0977H202.88ZM204.353 53.387C205.315 51.5544 206.652 50.1673 208.402 49.1663L205.422 43.9587C202.666 45.5358 200.526 47.7685 199.041 50.5974L204.353 53.387ZM208.406 49.1635C210.132 48.1718 212.302 47.6094 215.037 47.6094V41.6094C211.469 41.6094 208.222 42.349 205.417 43.9615L208.406 49.1635ZM215.037 47.6094C217.772 47.6094 219.932 48.172 221.641 49.1598L224.643 43.9652C221.847 42.3488 218.604 41.6094 215.037 41.6094V47.6094ZM221.659 49.17C223.417 50.1708 224.748 51.5536 225.695 53.3753L231.019 50.6091C229.544 47.7693 227.398 45.5324 224.626 43.955L221.659 49.17ZM225.704 53.3931C226.663 55.2085 227.193 57.4134 227.193 60.0977H233.193C233.193 56.61 232.499 53.4113 231.01 50.5913L225.704 53.3931ZM227.193 60.0977C227.193 62.7661 226.664 64.9745 225.701 66.8083L231.013 69.5979C232.498 66.7702 233.193 63.5751 233.193 60.0977H227.193ZM225.698 66.8139C224.752 68.6254 223.417 70.0147 221.647 71.0318L224.637 76.2339C227.398 74.6468 229.54 72.4163 231.016 69.5924L225.698 66.8139ZM221.652 71.029C219.941 72.0082 217.776 72.5664 215.037 72.5664V78.5664C218.599 78.5664 221.838 77.8356 224.632 76.2366L221.652 71.029ZM215.095 71.3594C216.91 71.3594 218.605 70.7803 219.994 69.551L216.017 65.0584C215.817 65.2353 215.572 65.3594 215.095 65.3594V71.3594ZM219.994 69.551C221.268 68.423 222.124 66.9541 222.668 65.3237L216.976 63.4263C216.686 64.2959 216.331 64.7801 216.017 65.0584L219.994 69.551ZM222.659 65.3502C223.219 63.7212 223.466 61.9347 223.466 60.0391H217.466C217.466 61.4247 217.284 62.5288 216.985 63.3998L222.659 65.3502ZM223.466 60.0391C223.466 58.1232 223.22 56.3223 222.659 54.6888L216.985 56.6393C217.283 57.5058 217.466 58.6216 217.466 60.0391H223.466ZM222.668 54.7154C222.124 53.085 221.268 51.6161 219.994 50.4881L216.017 54.9807C216.331 55.2589 216.686 55.7432 216.976 56.6127L222.668 54.7154ZM219.994 50.4881C218.605 49.2587 216.91 48.6797 215.095 48.6797V54.6797C215.572 54.6797 215.817 54.8038 216.017 54.9807L219.994 50.4881ZM215.095 48.6797C213.269 48.6797 211.553 49.2412 210.135 50.4566L214.04 55.0121C214.262 54.8213 214.552 54.6797 215.095 54.6797V48.6797ZM210.117 50.4721C208.83 51.5932 207.956 53.0571 207.395 54.6888L213.069 56.6393C213.367 55.7711 213.73 55.2818 214.058 54.9966L210.117 50.4721ZM207.386 54.7154C206.844 56.34 206.607 58.1313 206.607 60.0391H212.607C212.607 58.6134 212.786 57.4882 213.078 56.6127L207.386 54.7154ZM206.607 60.0391C206.607 61.9264 206.846 63.7034 207.386 65.3237L213.078 63.4263C212.785 62.5466 212.607 61.433 212.607 60.0391H206.607ZM207.395 65.3502C207.956 66.982 208.83 68.4458 210.117 69.5669L214.058 65.0424C213.73 64.7573 213.367 64.268 213.069 63.3998L207.395 65.3502ZM210.135 69.5825C211.553 70.7979 213.269 71.3594 215.095 71.3594V65.3594C214.552 65.3594 214.262 65.2177 214.04 65.0269L210.135 69.5825ZM244.636 57.8906L241.636 57.8565L241.636 57.8736V57.8906H244.636ZM244.636 75V78H247.636V75H244.636ZM235.085 75H232.085V78H235.085V75ZM235.085 45V42H232.085V45H235.085ZM244.167 45H247.167V42H244.167V45ZM244.167 50.5078H241.167V53.5078H244.167V50.5078ZM244.5 50.5078V53.5078H246.605L247.321 51.5282L244.5 50.5078ZM247.898 46.1914L249.534 48.7063L249.541 48.7016L249.548 48.6969L247.898 46.1914ZM259.109 46.0352L257.54 48.5923L257.553 48.6L257.565 48.6076L259.109 46.0352ZM262.742 49.9805L260.067 51.3385L260.073 51.3509L260.079 51.3632L262.742 49.9805ZM264.031 55.8789L261.031 55.8616L261.031 55.8702V55.8789H264.031ZM264.031 75V78H267.031V75H264.031ZM254.48 75H251.48V78H254.48V75ZM254.48 57.7539L251.48 57.7305L251.48 57.7422V57.7539H254.48ZM253.21 53.8477L250.984 55.858L250.991 55.8664L250.999 55.8748L253.21 53.8477ZM247.019 53.1055L248.503 55.713L248.51 55.7089L248.517 55.7048L247.019 53.1055ZM245.261 54.9609L242.595 53.585L242.587 53.6021L242.578 53.6193L245.261 54.9609ZM241.636 57.8906V75H247.636V57.8906H241.636ZM244.636 72H235.085V78H244.636V72ZM238.085 75V45H232.085V75H238.085ZM235.085 48H244.167V42H235.085V48ZM241.167 45V50.5078H247.167V45H241.167ZM244.167 53.5078H244.5V47.5078H244.167V53.5078ZM247.321 51.5282C247.768 50.2917 248.492 49.3837 249.534 48.7063L246.262 43.6765C244.101 45.0824 242.559 47.0521 241.678 49.4874L247.321 51.5282ZM249.548 48.6969C250.587 48.0123 251.901 47.6094 253.621 47.6094V41.6094C250.913 41.6094 248.412 42.2611 246.248 43.6859L249.548 48.6969ZM253.621 47.6094C255.267 47.6094 256.534 47.9752 257.54 48.5923L260.678 43.478C258.585 42.194 256.193 41.6094 253.621 41.6094V47.6094ZM257.565 48.6076C258.623 49.2423 259.452 50.1269 260.067 51.3385L265.417 48.6224C264.313 46.4486 262.72 44.703 260.652 43.4627L257.565 48.6076ZM260.079 51.3632C260.688 52.5355 261.042 54.0039 261.031 55.8616L267.031 55.8962C267.046 53.2487 266.54 50.7848 265.404 48.5977L260.079 51.3632ZM261.031 55.8789V75H267.031V55.8789H261.031ZM264.031 72H254.48V78H264.031V72ZM257.48 75V57.7539H251.48V75H257.48ZM257.48 57.7773C257.497 55.5943 256.937 53.4733 255.422 51.8205L250.999 55.8748C251.203 56.097 251.489 56.5802 251.48 57.7305L257.48 57.7773ZM255.437 51.8373C253.911 50.1468 251.853 49.4414 249.675 49.4414V55.4414C250.518 55.4414 250.817 55.6735 250.984 55.858L255.437 51.8373ZM249.675 49.4414C248.217 49.4414 246.802 49.768 245.521 50.5062L248.517 55.7048C248.773 55.5575 249.128 55.4414 249.675 55.4414V49.4414ZM245.535 50.498C244.252 51.2285 243.266 52.2861 242.595 53.585L247.927 56.3369C248.09 56.0211 248.276 55.8418 248.503 55.713L245.535 50.498ZM242.578 53.6193C241.924 54.9272 241.653 56.3753 241.636 57.8565L247.636 57.9247C247.645 57.1143 247.791 56.6093 247.945 56.3026L242.578 53.6193ZM289.299 45V42H286.299V45H289.299ZM298.831 45H301.831V42H298.831V45ZM298.831 75V78H301.831V75H298.831ZM289.729 75H286.729V78H289.729V75ZM289.729 69.4141H292.729V66.4141H289.729V69.4141ZM289.417 69.4141V66.4141H287.311L286.595 68.3937L289.417 69.4141ZM286.018 73.7891L287.692 76.2789L287.696 76.2758L286.018 73.7891ZM274.866 73.9844L273.313 76.5511L273.313 76.5511L274.866 73.9844ZM271.252 70.0586L268.577 71.4167L268.582 71.425L271.252 70.0586ZM269.944 64.1211H266.944V64.1297L266.944 64.1383L269.944 64.1211ZM269.944 45V42H266.944V45H269.944ZM279.495 45H282.495V42H279.495V45ZM279.495 62.2461H276.495V62.2581L276.495 62.2701L279.495 62.2461ZM280.784 66.0937L283.01 64.0834L283.01 64.0834L280.784 66.0937ZM286.799 66.875L288.249 69.5017L288.256 69.4975L288.264 69.4933L286.799 66.875ZM288.616 65.0195L285.993 63.5626L285.989 63.5698L285.985 63.577L288.616 65.0195ZM292.299 62.0508V45H286.299V62.0508H292.299ZM289.299 48H298.831V42H289.299V48ZM295.831 45V75H301.831V45H295.831ZM298.831 72H289.729V78H298.831V72ZM292.729 75V69.4141H286.729V75H292.729ZM289.729 66.4141H289.417V72.4141H289.729V66.4141ZM286.595 68.3937C286.145 69.6388 285.409 70.581 284.34 71.3023L287.696 76.2758C289.83 74.8357 291.36 72.8612 292.238 70.4345L286.595 68.3937ZM284.345 71.2992C283.333 71.979 282.021 72.3906 280.256 72.3906V78.3906C282.997 78.3906 285.526 77.7346 287.692 76.2789L284.345 71.2992ZM280.256 72.3906C278.687 72.3906 277.442 72.0365 276.419 71.4176L273.313 76.5511C275.389 77.8072 277.737 78.3906 280.256 78.3906V72.3906ZM276.419 71.4176C275.367 70.781 274.54 69.8975 273.923 68.6922L268.582 71.425C269.684 73.5791 271.266 75.3127 273.313 76.5511L276.419 71.4176ZM273.927 68.7005C273.316 67.4964 272.955 65.9928 272.944 64.1039L266.944 64.1383C266.959 66.7807 267.47 69.2353 268.577 71.4167L273.927 68.7005ZM272.944 64.1211V45H266.944V64.1211H272.944ZM269.944 48H279.495V42H269.944V48ZM276.495 45V62.2461H282.495V45H276.495ZM276.495 62.2701C276.512 64.4143 277.09 66.4789 278.557 68.1041L283.01 64.0834C282.785 63.8336 282.503 63.3331 282.495 62.2221L276.495 62.2701ZM278.557 68.1041C280.062 69.7715 282.078 70.5 284.241 70.5V64.5C283.487 64.5 283.198 64.291 283.01 64.0834L278.557 68.1041ZM284.241 70.5C285.645 70.5 287.005 70.1876 288.249 69.5017L285.35 64.2483C285.083 64.3957 284.737 64.5 284.241 64.5V70.5ZM288.264 69.4933C289.546 68.7758 290.546 67.7391 291.246 66.462L285.985 63.577C285.8 63.9146 285.589 64.1148 285.335 64.2567L288.264 69.4933ZM291.238 66.4765C291.993 65.1173 292.299 63.601 292.299 62.0508H286.299C286.299 62.8182 286.15 63.2811 285.993 63.5626L291.238 66.4765ZM331.101 54.1602L331.181 57.1591L334.354 57.0743L334.091 53.911L331.101 54.1602ZM322.332 54.3945L319.363 54.8275L319.748 57.4647L322.412 57.3935L322.332 54.3945ZM321.589 52.7344L319.265 54.6308L319.277 54.646L319.29 54.661L321.589 52.7344ZM320.007 51.582L318.779 54.3188L318.812 54.3338L318.846 54.348L320.007 51.582ZM314.949 51.8164L313.47 49.2063L313.46 49.2117L313.451 49.2171L314.949 51.8164ZM313.816 53.6133L316.815 53.6799L316.816 53.6208L316.815 53.5616L313.816 53.6133ZM314.519 55.1367L312.522 57.3756L312.537 57.3888L312.552 57.4018L314.519 55.1367ZM317.156 56.1719L316.55 59.1101L316.574 59.115L316.598 59.1196L317.156 56.1719ZM322.937 57.2656L323.501 54.3191L323.495 54.3179L322.937 57.2656ZM329.617 60.1172L327.597 62.3352L327.607 62.3441L329.617 60.1172ZM331.843 65.3906L334.843 65.4096L334.843 65.3912L334.843 65.3728L331.843 65.3906ZM330.007 70.7617L327.659 68.895L327.654 68.9012L327.649 68.9074L330.007 70.7617ZM325.085 74.3164L326.2 77.1018L326.207 77.0988L326.215 77.0958L325.085 74.3164ZM307.8 72.9297L306.048 75.3648L306.055 75.37L306.063 75.3752L307.8 72.9297ZM303.582 65.8203L303.507 62.8212L300.215 62.903L300.602 66.1731L303.582 65.8203ZM313.015 65.5859L315.962 65.0246L315.486 62.5236L312.941 62.5869L313.015 65.5859ZM314.636 68.0859L316.283 65.5783L316.283 65.5783L314.636 68.0859ZM320.964 68.2617L319.434 65.6816L319.434 65.6816L320.964 68.2617ZM322.136 66.4453L325.136 66.497L325.137 66.4423L325.136 66.3876L322.136 66.4453ZM321.238 64.8242L319.499 67.2691L319.517 67.2821L319.536 67.2947L321.238 64.8242ZM318.484 63.8477L317.923 66.7948L317.931 66.7963L318.484 63.8477ZM313.25 62.8516L313.81 59.9045L313.798 59.9022L313.786 59.9L313.25 62.8516ZM306.531 59.8242L304.4 61.9362L304.409 61.9455L306.531 59.8242ZM304.343 54.1602L307.343 54.1772L307.343 54.1589L307.343 54.1407L304.343 54.1602ZM305.945 49.0234L308.332 50.8409L308.34 50.8304L305.945 49.0234ZM310.554 45.7422L309.491 42.937L309.491 42.937L310.554 45.7422ZM327.214 47.168L325.449 49.5936L325.458 49.6L327.214 47.168ZM331.021 51.1612L322.251 51.3956L322.412 57.3935L331.181 57.1591L331.021 51.1612ZM325.3 53.9616C325.129 52.7892 324.652 51.718 323.889 50.8077L319.29 54.661C319.334 54.7143 319.352 54.7499 319.363 54.8275L325.3 53.9616ZM323.914 50.838C323.168 49.9235 322.224 49.2593 321.169 48.8161L318.846 54.348C319.093 54.4517 319.204 54.5557 319.265 54.6308L323.914 50.838ZM321.236 48.8452C320.139 48.3528 318.963 48.1523 317.781 48.1523V54.1523C318.291 54.1523 318.599 54.2384 318.779 54.3188L321.236 48.8452ZM317.781 48.1523C316.275 48.1523 314.796 48.455 313.47 49.2063L316.428 54.4265C316.664 54.2924 317.073 54.1523 317.781 54.1523V48.1523ZM313.451 49.2171C311.934 50.0911 310.781 51.6089 310.816 53.665L316.815 53.5616C316.818 53.7268 316.771 53.9697 316.627 54.1976C316.498 54.402 316.381 54.4537 316.447 54.4157L313.451 49.2171ZM310.817 53.5466C310.782 55.1065 311.46 56.4281 312.522 57.3756L316.516 52.8978C316.535 52.915 316.626 53.0034 316.706 53.1764C316.789 53.357 316.818 53.5389 316.815 53.6799L310.817 53.5466ZM312.552 57.4018C313.657 58.3618 315.183 58.8283 316.55 59.1101L317.762 53.2337C317.241 53.1264 316.88 53.0174 316.646 52.9253C316.396 52.8274 316.389 52.7871 316.486 52.8716L312.552 57.4018ZM316.598 59.1196L322.379 60.2133L323.495 54.3179L317.713 53.2242L316.598 59.1196ZM322.373 60.2122C325.098 60.7333 326.713 61.5303 327.597 62.3352L331.637 57.8992C329.604 56.0478 326.766 54.9437 323.501 54.3191L322.373 60.2122ZM327.607 62.3441C328.384 63.0455 328.835 63.9664 328.843 65.4085L334.843 65.3728C334.826 62.4398 333.793 59.8451 331.627 57.8902L327.607 62.3441ZM328.843 65.3716C328.834 66.7987 328.427 67.9286 327.659 68.895L332.356 72.6285C334.009 70.548 334.826 68.0972 334.843 65.4096L328.843 65.3716ZM327.649 68.9074C326.822 69.9592 325.635 70.8551 323.956 71.537L326.215 77.0958C328.703 76.085 330.797 74.6111 332.366 72.6161L327.649 68.9074ZM323.971 71.531C322.304 72.1978 320.311 72.5664 317.937 72.5664V78.5664C320.928 78.5664 323.7 78.1017 326.2 77.1018L323.971 71.531ZM317.937 72.5664C314.028 72.5664 311.334 71.7603 309.538 70.4841L306.063 75.3752C309.214 77.6147 313.278 78.5664 317.937 78.5664V72.5664ZM309.553 70.4946C307.763 69.2072 306.812 67.5875 306.561 65.4675L300.602 66.1731C301.054 69.9907 302.915 73.1105 306.048 75.3648L309.553 70.4946ZM303.656 68.8194L313.09 68.585L312.941 62.5869L303.507 62.8212L303.656 68.8194ZM310.068 66.1473C310.417 67.9797 311.389 69.5426 312.989 70.5935L316.283 65.5783C316.139 65.4835 316.03 65.3797 315.962 65.0246L310.068 66.1473ZM312.989 70.5935C314.477 71.5706 316.209 71.9453 317.976 71.9453V65.9453C317.035 65.9453 316.54 65.7471 316.283 65.5783L312.989 70.5935ZM317.976 71.9453C319.547 71.9453 321.123 71.6559 322.495 70.8419L319.434 65.6816C319.27 65.779 318.853 65.9453 317.976 65.9453V71.9453ZM322.495 70.8419C323.967 69.9687 325.101 68.4975 325.136 66.497L319.137 66.3936C319.138 66.3283 319.148 66.2369 319.18 66.1304C319.211 66.023 319.258 65.9239 319.313 65.8394C319.422 65.6696 319.512 65.635 319.434 65.6816L322.495 70.8419ZM325.136 66.3876C325.103 64.6879 324.274 63.2729 322.94 62.3537L319.536 67.2947C319.505 67.2736 319.385 67.1791 319.278 66.9865C319.168 66.7886 319.139 66.6056 319.137 66.503L325.136 66.3876ZM322.976 62.3794C321.861 61.5863 320.435 61.1611 319.037 60.899L317.931 66.7963C318.447 66.8929 318.831 66.9972 319.107 67.0951C319.243 67.1432 319.341 67.1859 319.408 67.219C319.476 67.2524 319.502 67.2713 319.499 67.2691L322.976 62.3794ZM319.045 60.9005L313.81 59.9045L312.689 65.7987L317.923 66.7948L319.045 60.9005ZM313.786 59.9C311.111 59.4136 309.533 58.5839 308.652 57.7029L304.409 61.9455C306.471 64.0073 309.372 65.1958 312.713 65.8032L313.786 59.9ZM308.661 57.7123C307.808 56.8513 307.334 55.7565 307.343 54.1772L301.343 54.1431C301.326 57.1471 302.311 59.8284 304.4 61.9362L308.661 57.7123ZM307.343 54.1407C307.334 52.7121 307.702 51.6675 308.332 50.8409L303.558 47.206C302.026 49.218 301.327 51.5978 301.343 54.1796L307.343 54.1407ZM308.34 50.8304C309.02 49.9284 310.054 49.1401 311.618 48.5474L309.491 42.937C307.07 43.8547 305.031 45.2539 303.55 47.2165L308.34 50.8304ZM311.618 48.5474C313.192 47.9506 315.166 47.6094 317.605 47.6094V41.6094C314.628 41.6094 311.901 42.0233 309.491 42.937L311.618 48.5474ZM317.605 47.6094C321.281 47.6094 323.787 48.3844 325.449 49.5936L328.98 44.7423C325.954 42.5401 322.054 41.6094 317.605 41.6094V47.6094ZM325.458 49.6C327.067 50.7623 327.934 52.2828 328.111 54.4093L334.091 53.911C333.773 50.1 332.049 46.959 328.971 44.7359L325.458 49.6Z" fill="#F71782"/>
<path d="M215.782 102V142H206.133V111.023H205.899L196.954 116.492V108.133L206.817 102H215.782ZM241.167 142.977C237.678 142.977 234.67 142.15 232.144 140.496C229.618 138.829 227.671 136.44 226.304 133.328C224.937 130.203 224.26 126.447 224.273 122.059C224.286 117.671 224.97 113.947 226.324 110.887C227.691 107.814 229.631 105.477 232.144 103.875C234.67 102.26 237.678 101.453 241.167 101.453C244.657 101.453 247.665 102.26 250.191 103.875C252.73 105.477 254.683 107.814 256.05 110.887C257.417 113.96 258.095 117.684 258.082 122.059C258.082 126.46 257.398 130.223 256.031 133.348C254.664 136.473 252.717 138.862 250.191 140.516C247.678 142.156 244.67 142.977 241.167 142.977ZM241.167 135.066C243.251 135.066 244.937 134.005 246.226 131.883C247.515 129.747 248.153 126.473 248.14 122.059C248.14 119.168 247.847 116.785 247.261 114.91C246.675 113.022 245.861 111.616 244.82 110.691C243.778 109.767 242.561 109.305 241.167 109.305C239.097 109.305 237.424 110.353 236.148 112.449C234.872 114.533 234.227 117.736 234.214 122.059C234.201 124.988 234.481 127.417 235.054 129.344C235.64 131.271 236.46 132.71 237.515 133.66C238.57 134.598 239.787 135.066 241.167 135.066ZM280.162 142.977C276.672 142.977 273.664 142.15 271.138 140.496C268.612 138.829 266.666 136.44 265.298 133.328C263.931 130.203 263.254 126.447 263.267 122.059C263.28 117.671 263.964 113.947 265.318 110.887C266.685 107.814 268.625 105.477 271.138 103.875C273.664 102.26 276.672 101.453 280.162 101.453C283.651 101.453 286.659 102.26 289.185 103.875C291.724 105.477 293.677 107.814 295.044 110.887C296.412 113.96 297.089 117.684 297.076 122.059C297.076 126.46 296.392 130.223 295.025 133.348C293.658 136.473 291.711 138.862 289.185 140.516C286.672 142.156 283.664 142.977 280.162 142.977ZM280.162 135.066C282.245 135.066 283.931 134.005 285.22 131.883C286.509 129.747 287.147 126.473 287.134 122.059C287.134 119.168 286.841 116.785 286.255 114.91C285.669 113.022 284.856 111.616 283.814 110.691C282.772 109.767 281.555 109.305 280.162 109.305C278.091 109.305 276.418 110.353 275.142 112.449C273.866 114.533 273.222 117.736 273.208 122.059C273.195 124.988 273.475 127.417 274.048 129.344C274.634 131.271 275.455 132.71 276.509 133.66C277.564 134.598 278.781 135.066 280.162 135.066Z" fill="#F61782"/>
<path d="M215.782 102H216.782V101H215.782V102ZM215.782 142V143H216.782V142H215.782ZM206.133 142H205.133V143H206.133V142ZM206.133 111.023H207.133V110.023H206.133V111.023ZM205.899 111.023V110.023H205.617L205.377 110.17L205.899 111.023ZM196.954 116.492H195.954V118.276L197.475 117.345L196.954 116.492ZM196.954 108.133L196.426 107.284L195.954 107.577V108.133H196.954ZM206.817 102V101H206.531L206.289 101.151L206.817 102ZM214.782 102V142H216.782V102H214.782ZM215.782 141H206.133V143H215.782V141ZM207.133 142V111.023H205.133V142H207.133ZM206.133 110.023H205.899V112.023H206.133V110.023ZM205.377 110.17L196.432 115.639L197.475 117.345L206.421 111.877L205.377 110.17ZM197.954 116.492V108.133H195.954V116.492H197.954ZM197.482 108.982L207.345 102.849L206.289 101.151L196.426 107.284L197.482 108.982ZM206.817 103H215.782V101H206.817V103ZM232.144 140.496L231.593 141.331L231.596 141.333L232.144 140.496ZM226.304 133.328L225.388 133.729L225.389 133.73L226.304 133.328ZM224.273 122.059L223.273 122.056L223.273 122.056L224.273 122.059ZM226.324 110.887L225.41 110.48L225.409 110.482L226.324 110.887ZM232.144 103.875L232.681 104.718L232.683 104.718L232.144 103.875ZM250.191 103.875L249.652 104.718L249.657 104.721L250.191 103.875ZM256.05 110.887L256.964 110.48L256.964 110.48L256.05 110.887ZM258.082 122.059L257.082 122.056V122.059H258.082ZM256.031 133.348L255.115 132.947L255.115 132.947L256.031 133.348ZM250.191 140.516L250.738 141.353L250.739 141.352L250.191 140.516ZM246.226 131.883L247.081 132.402L247.082 132.4L246.226 131.883ZM248.14 122.059L247.14 122.059L247.14 122.062L248.14 122.059ZM247.261 114.91L246.306 115.207L246.307 115.208L247.261 114.91ZM244.82 110.691L245.484 109.943L245.484 109.943L244.82 110.691ZM236.148 112.449L237.001 112.972L237.002 112.969L236.148 112.449ZM234.214 122.059L235.214 122.063L235.214 122.062L234.214 122.059ZM235.054 129.344L234.096 129.629L234.097 129.635L235.054 129.344ZM237.515 133.66L236.846 134.403L236.851 134.408L237.515 133.66ZM241.167 141.977C237.841 141.977 235.031 141.191 232.692 139.659L231.596 141.333C234.309 143.109 237.514 143.977 241.167 143.977V141.977ZM232.695 139.661C230.349 138.113 228.519 135.884 227.22 132.926L225.389 133.73C226.823 136.996 228.887 139.545 231.593 141.331L232.695 139.661ZM227.22 132.927C225.922 129.96 225.26 126.349 225.273 122.062L223.273 122.056C223.26 126.544 223.952 130.446 225.388 133.729L227.22 132.927ZM225.273 122.062C225.286 117.771 225.955 114.192 227.238 111.291L225.409 110.482C223.985 113.701 223.286 117.57 223.273 122.056L225.273 122.062ZM227.237 111.293C228.535 108.376 230.355 106.201 232.681 104.718L231.607 103.032C228.907 104.752 226.846 107.252 225.41 110.48L227.237 111.293ZM232.683 104.718C235.023 103.222 237.837 102.453 241.167 102.453V100.453C237.519 100.453 234.317 101.299 231.605 103.032L232.683 104.718ZM241.167 102.453C244.498 102.453 247.312 103.222 249.652 104.718L250.729 103.032C248.018 101.299 244.816 100.453 241.167 100.453V102.453ZM249.657 104.721C252.009 106.204 253.84 108.379 255.137 111.293L256.964 110.48C255.526 107.249 253.451 104.749 250.724 103.029L249.657 104.721ZM255.137 111.293C256.432 114.205 257.094 117.781 257.082 122.056L259.082 122.062C259.095 117.586 258.403 113.715 256.964 110.48L255.137 111.293ZM257.082 122.059C257.082 126.36 256.413 129.979 255.115 132.947L256.947 133.748C258.383 130.466 259.082 126.559 259.082 122.059H257.082ZM255.115 132.947C253.815 135.918 251.986 138.145 249.643 139.679L250.739 141.352C253.448 139.579 255.512 137.028 256.947 133.748L255.115 132.947ZM249.644 139.678C247.319 141.196 244.509 141.977 241.167 141.977V143.977C244.831 143.977 248.036 143.117 250.738 141.353L249.644 139.678ZM241.167 136.066C243.672 136.066 245.651 134.756 247.081 132.402L245.371 131.364C244.223 133.255 242.829 134.066 241.167 134.066V136.066ZM247.082 132.4C248.514 130.028 249.153 126.531 249.14 122.056L247.14 122.062C247.153 126.415 246.517 129.467 245.37 131.366L247.082 132.4ZM249.14 122.059C249.14 119.11 248.842 116.617 248.216 114.612L246.307 115.208C246.852 116.953 247.14 119.226 247.14 122.059H249.14ZM248.216 114.614C247.598 112.621 246.707 111.03 245.484 109.943L244.156 111.439C245.016 112.202 245.753 113.423 246.306 115.207L248.216 114.614ZM245.484 109.943C244.259 108.857 242.805 108.305 241.167 108.305V110.305C242.316 110.305 243.297 110.677 244.156 111.439L245.484 109.943ZM241.167 108.305C238.678 108.305 236.712 109.6 235.294 111.929L237.002 112.969C238.136 111.106 239.516 110.305 241.167 110.305V108.305ZM235.295 111.927C233.875 114.246 233.228 117.672 233.214 122.056L235.214 122.062C235.227 117.8 235.869 114.82 237.001 112.972L235.295 111.927ZM233.214 122.054C233.201 125.041 233.485 127.576 234.096 129.629L236.013 129.059C235.477 127.258 235.202 124.935 235.214 122.063L233.214 122.054ZM234.097 129.635C234.715 131.667 235.611 133.29 236.846 134.403L238.185 132.917C237.31 132.129 236.565 130.875 236.011 129.053L234.097 129.635ZM236.851 134.408C238.084 135.504 239.536 136.066 241.167 136.066V134.066C240.038 134.066 239.056 133.692 238.18 132.913L236.851 134.408ZM271.138 140.496L270.587 141.331L270.59 141.333L271.138 140.496ZM265.298 133.328L264.382 133.729L264.383 133.73L265.298 133.328ZM263.267 122.059L262.267 122.056L262.267 122.056L263.267 122.059ZM265.318 110.887L264.404 110.48L264.403 110.482L265.318 110.887ZM271.138 103.875L271.676 104.718L271.677 104.718L271.138 103.875ZM289.185 103.875L288.646 104.718L288.652 104.721L289.185 103.875ZM295.044 110.887L295.958 110.48L295.958 110.48L295.044 110.887ZM297.076 122.059L296.076 122.056V122.059H297.076ZM295.025 133.348L294.109 132.947L294.109 132.947L295.025 133.348ZM289.185 140.516L289.732 141.353L289.733 141.352L289.185 140.516ZM285.22 131.883L286.075 132.402L286.076 132.4L285.22 131.883ZM287.134 122.059L286.134 122.059L286.134 122.062L287.134 122.059ZM286.255 114.91L285.3 115.207L285.301 115.208L286.255 114.91ZM283.814 110.691L284.478 109.943L284.478 109.943L283.814 110.691ZM275.142 112.449L275.995 112.972L275.996 112.969L275.142 112.449ZM273.208 122.059L274.208 122.063L274.208 122.062L273.208 122.059ZM274.048 129.344L273.09 129.629L273.092 129.635L274.048 129.344ZM276.509 133.66L275.84 134.403L275.845 134.408L276.509 133.66ZM280.162 141.977C276.836 141.977 274.025 141.191 271.686 139.659L270.59 141.333C273.303 143.109 276.509 143.977 280.162 143.977V141.977ZM271.689 139.661C269.343 138.113 267.513 135.884 266.214 132.926L264.383 133.73C265.818 136.996 267.881 139.545 270.587 141.331L271.689 139.661ZM266.214 132.927C264.917 129.96 264.254 126.349 264.267 122.062L262.267 122.056C262.254 126.544 262.946 130.446 264.382 133.729L266.214 132.927ZM264.267 122.062C264.28 117.771 264.949 114.192 266.232 111.291L264.403 110.482C262.979 113.701 262.28 117.57 262.267 122.056L264.267 122.062ZM266.232 111.293C267.53 108.376 269.349 106.201 271.676 104.718L270.601 103.032C267.901 104.752 265.841 107.252 264.404 110.48L266.232 111.293ZM271.677 104.718C274.017 103.222 276.831 102.453 280.162 102.453V100.453C276.513 100.453 273.311 101.299 270.6 103.032L271.677 104.718ZM280.162 102.453C283.492 102.453 286.306 103.222 288.646 104.718L289.724 103.032C287.012 101.299 283.81 100.453 280.162 100.453V102.453ZM288.652 104.721C291.003 106.204 292.834 108.379 294.131 111.293L295.958 110.48C294.52 107.249 292.445 104.749 289.719 103.029L288.652 104.721ZM294.131 111.293C295.426 114.205 296.088 117.781 296.076 122.056L298.076 122.062C298.089 117.586 297.397 113.715 295.958 110.48L294.131 111.293ZM296.076 122.059C296.076 126.36 295.407 129.979 294.109 132.947L295.941 133.748C297.377 130.466 298.076 126.559 298.076 122.059H296.076ZM294.109 132.947C292.809 135.918 290.98 138.145 288.637 139.679L289.733 141.352C292.442 139.579 294.506 137.028 295.941 133.748L294.109 132.947ZM288.638 139.678C286.314 141.196 283.503 141.977 280.162 141.977V143.977C283.825 143.977 287.03 143.117 289.732 141.353L288.638 139.678ZM280.162 136.066C282.666 136.066 284.645 134.756 286.075 132.402L284.366 131.364C283.217 133.255 281.824 134.066 280.162 134.066V136.066ZM286.076 132.4C287.508 130.028 288.147 126.531 288.134 122.056L286.134 122.062C286.147 126.415 285.511 129.467 284.364 131.366L286.076 132.4ZM288.134 122.059C288.134 119.11 287.837 116.617 287.21 114.612L285.301 115.208C285.846 116.953 286.134 119.226 286.134 122.059H288.134ZM287.21 114.614C286.592 112.621 285.702 111.03 284.478 109.943L283.15 111.439C284.01 112.202 284.747 113.423 285.3 115.207L287.21 114.614ZM284.478 109.943C283.253 108.857 281.799 108.305 280.162 108.305V110.305C281.31 110.305 282.292 110.677 283.15 111.439L284.478 109.943ZM280.162 108.305C277.673 108.305 275.706 109.6 274.288 111.929L275.996 112.969C277.13 111.106 278.51 110.305 280.162 110.305V108.305ZM274.289 111.927C272.869 114.246 272.222 117.672 272.209 122.056L274.208 122.062C274.221 117.8 274.863 114.82 275.995 112.972L274.289 111.927ZM272.209 122.054C272.195 125.041 272.479 127.576 273.09 129.629L275.007 129.059C274.471 127.258 274.196 124.935 274.208 122.063L272.209 122.054ZM273.092 129.635C273.709 131.667 274.605 133.29 275.84 134.403L277.179 132.917C276.304 132.129 275.559 130.875 275.005 129.053L273.092 129.635ZM275.845 134.408C277.078 135.504 278.531 136.066 280.162 136.066V134.066C279.032 134.066 278.05 133.692 277.174 132.913L275.845 134.408Z" fill="black"/>
<defs>
<linearGradient id="paint0_linear_24_9" x1="247.5" y1="0" x2="247.5" y2="175" gradientUnits="userSpaceOnUse">
<stop stop-color="#FAB348"/>
<stop offset="0.25" stop-color="#FAB348" stop-opacity="0.588542"/>
<stop offset="0.5" stop-color="#FAB348" stop-opacity="0.246366"/>
<stop offset="0.75" stop-color="#FAB348" stop-opacity="0.830576"/>
<stop offset="1" stop-color="#FAB348" stop-opacity="0"/>
</linearGradient>
</defs>
</svg>
