<svg width="495" height="175" viewBox="0 0 495 175" fill="none" xmlns="http://www.w3.org/2000/svg">
<rect width="495" height="175" rx="31" fill="url(#paint0_linear_24_53)"/>
<g style="mix-blend-mode:hard-light">
<path d="M158.509 78V38H175.189C178.184 38 180.69 38.4232 182.708 39.2695C184.74 40.1159 186.263 41.3008 187.279 42.8242C188.307 44.3477 188.822 46.112 188.822 48.1172C188.822 49.6406 188.503 51.0013 187.865 52.1992C187.227 53.3841 186.348 54.3672 185.228 55.1484C184.108 55.9297 182.813 56.4766 181.341 56.7891V57.1797C182.956 57.2578 184.447 57.694 185.814 58.4883C187.194 59.2826 188.301 60.3893 189.134 61.8086C189.968 63.2148 190.384 64.8815 190.384 66.8086C190.384 68.957 189.837 70.8776 188.744 72.5703C187.65 74.25 186.068 75.5781 183.998 76.5547C181.927 77.5182 179.414 78 176.458 78H158.509ZM168.177 70.207H174.154C176.25 70.207 177.793 69.8099 178.783 69.0156C179.785 68.2214 180.287 67.1146 180.287 65.6953C180.287 64.6667 180.046 63.7812 179.564 63.0391C179.082 62.2839 178.399 61.7044 177.513 61.3008C176.628 60.8841 175.567 60.6758 174.33 60.6758H168.177V70.207ZM168.177 54.4453H173.529C174.583 54.4453 175.521 54.2695 176.341 53.918C177.162 53.5664 177.8 53.0586 178.255 52.3945C178.724 51.7305 178.958 50.9297 178.958 49.9922C178.958 48.651 178.483 47.5964 177.533 46.8281C176.582 46.0599 175.3 45.6758 173.685 45.6758H168.177V54.4453ZM211.787 78.5664C208.636 78.5664 205.927 77.9219 203.662 76.6328C201.409 75.3307 199.671 73.5208 198.447 71.2031C197.236 68.8724 196.63 66.1706 196.63 63.0977C196.63 60.0117 197.236 57.3099 198.447 54.9922C199.671 52.6615 201.409 50.8516 203.662 49.5625C205.927 48.2604 208.636 47.6094 211.787 47.6094C214.938 47.6094 217.639 48.2604 219.892 49.5625C222.158 50.8516 223.896 52.6615 225.107 54.9922C226.331 57.3099 226.943 60.0117 226.943 63.0977C226.943 66.1706 226.331 68.8724 225.107 71.2031C223.896 73.5208 222.158 75.3307 219.892 76.6328C217.639 77.9219 214.938 78.5664 211.787 78.5664ZM211.845 71.3594C212.991 71.3594 213.961 71.0078 214.755 70.3047C215.55 69.6016 216.155 68.625 216.572 67.375C217.001 66.125 217.216 64.6797 217.216 63.0391C217.216 61.3724 217.001 59.9141 216.572 58.6641C216.155 57.4141 215.55 56.4375 214.755 55.7344C213.961 55.0312 212.991 54.6797 211.845 54.6797C210.66 54.6797 209.658 55.0312 208.837 55.7344C208.03 56.4375 207.412 57.4141 206.982 58.6641C206.565 59.9141 206.357 61.3724 206.357 63.0391C206.357 64.6797 206.565 66.125 206.982 67.375C207.412 68.625 208.03 69.6016 208.837 70.3047C209.658 71.0078 210.66 71.3594 211.845 71.3594ZM244.136 60.8906V78H234.585V48H243.667V53.5078H244C244.664 51.6719 245.796 50.2331 247.398 49.1914C249 48.1367 250.907 47.6094 253.121 47.6094C255.23 47.6094 257.059 48.0846 258.609 49.0352C260.171 49.9727 261.382 51.2878 262.242 52.9805C263.114 54.6602 263.544 56.6263 263.531 58.8789V78H253.98V60.7539C253.993 59.0872 253.57 57.7852 252.71 56.8477C251.864 55.9102 250.686 55.4414 249.175 55.4414C248.173 55.4414 247.287 55.6628 246.519 56.1055C245.764 56.5352 245.178 57.1536 244.761 57.9609C244.358 58.7682 244.149 59.7448 244.136 60.8906ZM291.549 65.0508V48H301.081V78H291.979V72.4141H291.667C291.002 74.25 289.87 75.7083 288.268 76.7891C286.68 77.8568 284.759 78.3906 282.506 78.3906C280.462 78.3906 278.665 77.9219 277.116 76.9844C275.566 76.0469 274.362 74.7383 273.502 73.0586C272.643 71.3659 272.207 69.3867 272.194 67.1211V48H281.745V65.2461C281.758 66.8737 282.187 68.1562 283.034 69.0937C283.88 70.0312 285.032 70.5 286.491 70.5C287.441 70.5 288.294 70.2917 289.049 69.875C289.818 69.4453 290.423 68.8268 290.866 68.0195C291.321 67.1992 291.549 66.2096 291.549 65.0508ZM336.101 57.1602L327.332 57.3945C327.24 56.7695 326.993 56.2161 326.589 55.7344C326.186 55.2396 325.658 54.8555 325.007 54.582C324.369 54.2956 323.627 54.1523 322.781 54.1523C321.674 54.1523 320.73 54.3737 319.949 54.8164C319.181 55.2591 318.803 55.8581 318.816 56.6133C318.803 57.1992 319.037 57.707 319.519 58.1367C320.014 58.5664 320.893 58.9115 322.156 59.1719L327.937 60.2656C330.932 60.8385 333.158 61.7891 334.617 63.1172C336.088 64.4453 336.83 66.2031 336.843 68.3906C336.83 70.4479 336.218 72.2383 335.007 73.7617C333.809 75.2852 332.169 76.4701 330.085 77.3164C328.002 78.1497 325.619 78.5664 322.937 78.5664C318.653 78.5664 315.274 77.6875 312.8 75.9297C310.339 74.1589 308.933 71.7891 308.582 68.8203L318.015 68.5859C318.223 69.6797 318.764 70.513 319.636 71.0859C320.509 71.6589 321.622 71.9453 322.976 71.9453C324.2 71.9453 325.196 71.7174 325.964 71.2617C326.733 70.806 327.123 70.2005 327.136 69.4453C327.123 68.7682 326.824 68.2279 326.238 67.8242C325.652 67.4076 324.734 67.082 323.484 66.8477L318.25 65.8516C315.242 65.3047 313.002 64.2956 311.531 62.8242C310.059 61.3398 309.33 59.4518 309.343 57.1602C309.33 55.1549 309.864 53.4427 310.945 52.0234C312.026 50.5911 313.562 49.4974 315.554 48.7422C317.546 47.987 319.897 47.6094 322.605 47.6094C326.667 47.6094 329.871 48.4622 332.214 50.168C334.558 51.8607 335.854 54.1914 336.101 57.1602Z" fill="white"/>
<path d="M158.509 78H155.509V81H158.509V78ZM158.509 38V35H155.509V38H158.509ZM182.708 39.2695L181.548 42.0361L181.555 42.0388L182.708 39.2695ZM187.279 42.8242L184.783 44.4883L184.788 44.4957L184.793 44.503L187.279 42.8242ZM187.865 52.1992L190.506 53.6215L190.513 53.6095L187.865 52.1992ZM185.228 55.1484L183.511 52.6881L183.511 52.6881L185.228 55.1484ZM181.341 56.7891L180.718 53.8545L178.341 54.3593V56.7891H181.341ZM181.341 57.1797H178.341V60.038L181.196 60.1762L181.341 57.1797ZM185.814 58.4883L184.307 61.0823L184.318 61.0885L185.814 58.4883ZM189.134 61.8086L186.547 63.3276L186.553 63.338L189.134 61.8086ZM188.744 72.5703L191.258 74.2073L191.263 74.1985L188.744 72.5703ZM183.998 76.5547L185.263 79.2745L185.27 79.2713L185.277 79.268L183.998 76.5547ZM168.177 70.207H165.177V73.207H168.177V70.207ZM178.783 69.0156L176.92 66.6641L176.912 66.67L176.905 66.676L178.783 69.0156ZM179.564 63.0391L177.035 64.6525L177.041 64.6625L177.048 64.6725L179.564 63.0391ZM177.513 61.3008L176.236 64.0152L176.252 64.023L176.269 64.0305L177.513 61.3008ZM168.177 60.6758V57.6758H165.177V60.6758H168.177ZM168.177 54.4453H165.177V57.4453H168.177V54.4453ZM178.255 52.3945L175.804 50.6645L175.793 50.6807L175.782 50.697L178.255 52.3945ZM177.533 46.8281L179.418 44.4949L179.418 44.4949L177.533 46.8281ZM168.177 45.6758V42.6758H165.177V45.6758H168.177ZM161.509 78V38H155.509V78H161.509ZM158.509 41H175.189V35H158.509V41ZM175.189 41C177.923 41 180.006 41.3893 181.548 42.0361L183.869 36.5029C181.375 35.457 178.445 35 175.189 35V41ZM181.555 42.0388C183.151 42.704 184.157 43.5497 184.783 44.4883L189.775 41.1601C188.369 39.0518 186.328 37.5278 183.862 36.5003L181.555 42.0388ZM184.793 44.503C185.456 45.4855 185.822 46.6535 185.822 48.1172H191.822C191.822 45.5705 191.159 43.2098 189.765 41.1454L184.793 44.503ZM185.822 48.1172C185.822 49.2099 185.597 50.0761 185.217 50.7889L190.513 53.6095C191.409 51.9265 191.822 50.0714 191.822 48.1172H185.822ZM185.223 50.7769C184.811 51.5419 184.252 52.1716 183.511 52.6881L186.945 57.6088C188.444 56.5628 189.642 55.2263 190.506 53.6215L185.223 50.7769ZM183.511 52.6881C182.753 53.2174 181.837 53.6169 180.718 53.8545L181.965 59.7236C183.788 59.3363 185.464 58.642 186.945 57.6088L183.511 52.6881ZM178.341 56.7891V57.1797H184.341V56.7891H178.341ZM181.196 60.1762C182.342 60.2316 183.365 60.5348 184.307 61.0823L187.321 55.8943C185.529 54.8532 183.569 54.284 181.486 54.1832L181.196 60.1762ZM184.318 61.0885C185.231 61.6141 185.968 62.3415 186.547 63.3276L191.721 60.2896C190.634 58.4371 189.157 56.951 187.31 55.8881L184.318 61.0885ZM186.553 63.338C187.067 64.2043 187.384 65.3225 187.384 66.8086H193.384C193.384 64.4405 192.868 62.2254 191.715 60.2792L186.553 63.338ZM187.384 66.8086C187.384 68.4194 186.983 69.7671 186.224 70.9422L191.263 74.1985C192.692 71.9881 193.384 69.4947 193.384 66.8086H187.384ZM186.23 70.9333C185.481 72.0834 184.358 73.0677 182.718 73.8414L185.277 79.268C187.778 78.0885 189.819 76.4166 191.258 74.2073L186.23 70.9333ZM182.732 73.8348C181.157 74.5679 179.101 75 176.458 75V81C179.728 81 182.698 80.4685 185.263 79.2745L182.732 73.8348ZM176.458 75H158.509V81H176.458V75ZM168.177 73.207H174.154V67.207H168.177V73.207ZM174.154 73.207C176.523 73.207 178.889 72.7775 180.661 71.3552L176.905 66.676C176.698 66.8423 175.977 67.207 174.154 67.207V73.207ZM180.646 71.3671C182.452 69.9364 183.287 67.9165 183.287 65.6953H177.287C177.287 66.3127 177.119 66.5064 176.92 66.6641L180.646 71.3671ZM183.287 65.6953C183.287 64.1832 182.926 62.7091 182.08 61.4056L177.048 64.6725C177.165 64.8534 177.287 65.1501 177.287 65.6953H183.287ZM182.093 61.4256C181.273 60.14 180.123 59.1934 178.758 58.5711L176.269 64.0305C176.675 64.2155 176.891 64.4277 177.035 64.6525L182.093 61.4256ZM178.791 58.5863C177.415 57.9388 175.895 57.6758 174.33 57.6758V63.6758C175.238 63.6758 175.841 63.8294 176.236 64.0152L178.791 58.5863ZM174.33 57.6758H168.177V63.6758H174.33V57.6758ZM165.177 60.6758V70.207H171.177V60.6758H165.177ZM168.177 57.4453H173.529V51.4453H168.177V57.4453ZM173.529 57.4453C174.917 57.4453 176.268 57.2134 177.523 56.6754L175.16 51.1605C174.774 51.3257 174.25 51.4453 173.529 51.4453V57.4453ZM177.523 56.6754C178.807 56.125 179.918 55.2744 180.729 54.0921L175.782 50.697C175.682 50.8428 175.516 51.0078 175.16 51.1605L177.523 56.6754ZM180.706 54.1246C181.585 52.8796 181.958 51.451 181.958 49.9922H175.958C175.958 50.4084 175.863 50.5813 175.804 50.6645L180.706 54.1246ZM181.958 49.9922C181.958 47.8455 181.148 45.893 179.418 44.4949L175.647 49.1613C175.818 49.2997 175.958 49.4566 175.958 49.9922H181.958ZM179.418 44.4949C177.784 43.174 175.764 42.6758 173.685 42.6758V48.6758C174.835 48.6758 175.38 48.9458 175.647 49.1613L179.418 44.4949ZM173.685 42.6758H168.177V48.6758H173.685V42.6758ZM165.177 45.6758V54.4453H171.177V45.6758H165.177ZM203.662 76.6328L202.16 79.2301L202.169 79.2352L202.178 79.2403L203.662 76.6328ZM198.447 71.2031L195.785 72.5862L195.789 72.5952L195.794 72.604L198.447 71.2031ZM198.447 54.9922L195.791 53.5974L195.788 53.603L198.447 54.9922ZM203.662 49.5625L205.152 52.1663L205.156 52.1635L203.662 49.5625ZM219.892 49.5625L218.391 52.1598L218.4 52.1649L218.409 52.17L219.892 49.5625ZM225.107 54.9922L222.445 56.3753L222.449 56.3842L222.454 56.3931L225.107 54.9922ZM225.107 71.2031L222.451 69.8083L222.448 69.8139L225.107 71.2031ZM219.892 76.6328L221.382 79.2366L221.387 79.2339L219.892 76.6328ZM214.755 70.3047L212.767 68.0584L212.767 68.0584L214.755 70.3047ZM216.572 67.375L213.735 66.3998L213.73 66.413L213.726 66.4263L216.572 67.375ZM216.572 58.6641L213.726 59.6127L213.73 59.626L213.735 59.6393L216.572 58.6641ZM214.755 55.7344L216.744 53.4881L216.744 53.4881L214.755 55.7344ZM208.837 55.7344L206.885 53.4566L206.876 53.4643L206.867 53.4721L208.837 55.7344ZM206.982 58.6641L204.145 57.6888L204.14 57.7021L204.136 57.7154L206.982 58.6641ZM206.982 67.375L204.136 68.3237L204.14 68.337L204.145 68.3502L206.982 67.375ZM208.837 70.3047L206.867 72.5669L206.876 72.5747L206.885 72.5825L208.837 70.3047ZM211.787 75.5664C209.047 75.5664 206.873 75.0084 205.145 74.0253L202.178 79.2403C204.981 80.8354 208.224 81.5664 211.787 81.5664V75.5664ZM205.163 74.0355C203.403 73.0181 202.062 71.6246 201.1 69.8022L195.794 72.604C197.279 75.417 199.415 77.6433 202.16 79.2301L205.163 74.0355ZM201.109 69.82C200.155 67.9837 199.63 65.7709 199.63 63.0977H193.63C193.63 66.5702 194.317 69.7611 195.785 72.5862L201.109 69.82ZM199.63 63.0977C199.63 60.4086 200.156 58.1994 201.106 56.3814L195.788 53.603C194.316 56.4204 193.63 59.6149 193.63 63.0977H199.63ZM201.103 56.387C202.065 54.5544 203.402 53.1673 205.152 52.1663L202.172 46.9587C199.416 48.5358 197.276 50.7685 195.791 53.5974L201.103 56.387ZM205.156 52.1635C206.882 51.1718 209.052 50.6094 211.787 50.6094V44.6094C208.219 44.6094 204.972 45.349 202.167 46.9615L205.156 52.1635ZM211.787 50.6094C214.522 50.6094 216.682 51.172 218.391 52.1598L221.393 46.9652C218.597 45.3488 215.354 44.6094 211.787 44.6094V50.6094ZM218.409 52.17C220.167 53.1708 221.498 54.5536 222.445 56.3753L227.769 53.6091C226.294 50.7693 224.148 48.5324 221.376 46.955L218.409 52.17ZM222.454 56.3931C223.413 58.2085 223.943 60.4134 223.943 63.0977H229.943C229.943 59.61 229.249 56.4113 227.76 53.5913L222.454 56.3931ZM223.943 63.0977C223.943 65.7661 223.414 67.9745 222.451 69.8083L227.763 72.5979C229.248 69.7702 229.943 66.5751 229.943 63.0977H223.943ZM222.448 69.8139C221.502 71.6254 220.167 73.0147 218.397 74.0318L221.387 79.2339C224.148 77.6468 226.29 75.4163 227.766 72.5924L222.448 69.8139ZM218.402 74.029C216.691 75.0082 214.526 75.5664 211.787 75.5664V81.5664C215.349 81.5664 218.588 80.8356 221.382 79.2366L218.402 74.029ZM211.845 74.3594C213.66 74.3594 215.355 73.7803 216.744 72.551L212.767 68.0584C212.567 68.2353 212.322 68.3594 211.845 68.3594V74.3594ZM216.744 72.551C218.018 71.423 218.874 69.9541 219.418 68.3237L213.726 66.4263C213.436 67.2959 213.081 67.7801 212.767 68.0584L216.744 72.551ZM219.409 68.3502C219.969 66.7212 220.216 64.9347 220.216 63.0391H214.216C214.216 64.4247 214.034 65.5288 213.735 66.3998L219.409 68.3502ZM220.216 63.0391C220.216 61.1232 219.97 59.3223 219.409 57.6888L213.735 59.6393C214.033 60.5058 214.216 61.6216 214.216 63.0391H220.216ZM219.418 57.7154C218.874 56.085 218.018 54.6161 216.744 53.4881L212.767 57.9807C213.081 58.2589 213.436 58.7432 213.726 59.6127L219.418 57.7154ZM216.744 53.4881C215.355 52.2587 213.66 51.6797 211.845 51.6797V57.6797C212.322 57.6797 212.567 57.8038 212.767 57.9807L216.744 53.4881ZM211.845 51.6797C210.019 51.6797 208.303 52.2412 206.885 53.4566L210.79 58.0121C211.012 57.8213 211.302 57.6797 211.845 57.6797V51.6797ZM206.867 53.4721C205.58 54.5932 204.706 56.0571 204.145 57.6888L209.819 59.6393C210.117 58.7711 210.48 58.2818 210.808 57.9966L206.867 53.4721ZM204.136 57.7154C203.594 59.34 203.357 61.1313 203.357 63.0391H209.357C209.357 61.6134 209.536 60.4882 209.828 59.6127L204.136 57.7154ZM203.357 63.0391C203.357 64.9264 203.596 66.7034 204.136 68.3237L209.828 66.4263C209.535 65.5466 209.357 64.433 209.357 63.0391H203.357ZM204.145 68.3502C204.706 69.982 205.58 71.4458 206.867 72.5669L210.808 68.0424C210.48 67.7573 210.117 67.268 209.819 66.3998L204.145 68.3502ZM206.885 72.5825C208.303 73.7979 210.019 74.3594 211.845 74.3594V68.3594C211.302 68.3594 211.012 68.2177 210.79 68.0269L206.885 72.5825ZM244.136 60.8906L241.136 60.8565L241.136 60.8736V60.8906H244.136ZM244.136 78V81H247.136V78H244.136ZM234.585 78H231.585V81H234.585V78ZM234.585 48V45H231.585V48H234.585ZM243.667 48H246.667V45H243.667V48ZM243.667 53.5078H240.667V56.5078H243.667V53.5078ZM244 53.5078V56.5078H246.105L246.821 54.5282L244 53.5078ZM247.398 49.1914L249.034 51.7063L249.041 51.7016L249.048 51.6969L247.398 49.1914ZM258.609 49.0352L257.04 51.5923L257.053 51.6L257.065 51.6076L258.609 49.0352ZM262.242 52.9805L259.567 54.3385L259.573 54.3509L259.579 54.3632L262.242 52.9805ZM263.531 58.8789L260.531 58.8616L260.531 58.8702V58.8789H263.531ZM263.531 78V81H266.531V78H263.531ZM253.98 78H250.98V81H253.98V78ZM253.98 60.7539L250.98 60.7305L250.98 60.7422V60.7539H253.98ZM252.71 56.8477L250.484 58.858L250.491 58.8664L250.499 58.8748L252.71 56.8477ZM246.519 56.1055L248.003 58.713L248.01 58.7089L248.017 58.7048L246.519 56.1055ZM244.761 57.9609L242.095 56.585L242.087 56.6021L242.078 56.6193L244.761 57.9609ZM241.136 60.8906V78H247.136V60.8906H241.136ZM244.136 75H234.585V81H244.136V75ZM237.585 78V48H231.585V78H237.585ZM234.585 51H243.667V45H234.585V51ZM240.667 48V53.5078H246.667V48H240.667ZM243.667 56.5078H244V50.5078H243.667V56.5078ZM246.821 54.5282C247.268 53.2917 247.992 52.3837 249.034 51.7063L245.762 46.6765C243.601 48.0824 242.059 50.0521 241.178 52.4874L246.821 54.5282ZM249.048 51.6969C250.087 51.0123 251.401 50.6094 253.121 50.6094V44.6094C250.413 44.6094 247.912 45.2611 245.748 46.6859L249.048 51.6969ZM253.121 50.6094C254.767 50.6094 256.034 50.9752 257.04 51.5923L260.178 46.478C258.085 45.194 255.693 44.6094 253.121 44.6094V50.6094ZM257.065 51.6076C258.123 52.2423 258.952 53.1269 259.567 54.3385L264.917 51.6224C263.813 49.4486 262.22 47.703 260.152 46.4627L257.065 51.6076ZM259.579 54.3632C260.188 55.5355 260.542 57.0039 260.531 58.8616L266.531 58.8962C266.546 56.2487 266.04 53.7848 264.904 51.5977L259.579 54.3632ZM260.531 58.8789V78H266.531V58.8789H260.531ZM263.531 75H253.98V81H263.531V75ZM256.98 78V60.7539H250.98V78H256.98ZM256.98 60.7773C256.997 58.5943 256.437 56.4733 254.922 54.8205L250.499 58.8748C250.703 59.097 250.989 59.5802 250.98 60.7305L256.98 60.7773ZM254.937 54.8373C253.411 53.1468 251.353 52.4414 249.175 52.4414V58.4414C250.018 58.4414 250.317 58.6735 250.484 58.858L254.937 54.8373ZM249.175 52.4414C247.717 52.4414 246.302 52.768 245.021 53.5062L248.017 58.7048C248.273 58.5575 248.628 58.4414 249.175 58.4414V52.4414ZM245.035 53.498C243.752 54.2285 242.766 55.2861 242.095 56.585L247.427 59.3369C247.59 59.0211 247.776 58.8418 248.003 58.713L245.035 53.498ZM242.078 56.6193C241.424 57.9272 241.153 59.3753 241.136 60.8565L247.136 60.9247C247.145 60.1143 247.291 59.6093 247.445 59.3026L242.078 56.6193ZM291.549 48V45H288.549V48H291.549ZM301.081 48H304.081V45H301.081V48ZM301.081 78V81H304.081V78H301.081ZM291.979 78H288.979V81H291.979V78ZM291.979 72.4141H294.979V69.4141H291.979V72.4141ZM291.667 72.4141V69.4141H289.561L288.845 71.3937L291.667 72.4141ZM288.268 76.7891L289.942 79.2789L289.946 79.2758L288.268 76.7891ZM277.116 76.9844L275.563 79.5511L275.563 79.5511L277.116 76.9844ZM273.502 73.0586L270.827 74.4167L270.832 74.425L273.502 73.0586ZM272.194 67.1211H269.194V67.1297L269.194 67.1383L272.194 67.1211ZM272.194 48V45H269.194V48H272.194ZM281.745 48H284.745V45H281.745V48ZM281.745 65.2461H278.745V65.2581L278.745 65.2701L281.745 65.2461ZM283.034 69.0937L285.26 67.0834L285.26 67.0834L283.034 69.0937ZM289.049 69.875L290.499 72.5017L290.506 72.4975L290.514 72.4933L289.049 69.875ZM290.866 68.0195L288.243 66.5626L288.239 66.5698L288.235 66.577L290.866 68.0195ZM294.549 65.0508V48H288.549V65.0508H294.549ZM291.549 51H301.081V45H291.549V51ZM298.081 48V78H304.081V48H298.081ZM301.081 75H291.979V81H301.081V75ZM294.979 78V72.4141H288.979V78H294.979ZM291.979 69.4141H291.667V75.4141H291.979V69.4141ZM288.845 71.3937C288.395 72.6388 287.659 73.581 286.59 74.3023L289.946 79.2758C292.08 77.8357 293.61 75.8612 294.488 73.4345L288.845 71.3937ZM286.595 74.2992C285.583 74.979 284.271 75.3906 282.506 75.3906V81.3906C285.247 81.3906 287.776 80.7346 289.942 79.2789L286.595 74.2992ZM282.506 75.3906C280.937 75.3906 279.692 75.0365 278.669 74.4176L275.563 79.5511C277.639 80.8072 279.987 81.3906 282.506 81.3906V75.3906ZM278.669 74.4176C277.617 73.781 276.79 72.8975 276.173 71.6922L270.832 74.425C271.934 76.5791 273.516 78.3127 275.563 79.5511L278.669 74.4176ZM276.177 71.7005C275.566 70.4964 275.205 68.9928 275.194 67.1039L269.194 67.1383C269.209 69.7807 269.72 72.2353 270.827 74.4167L276.177 71.7005ZM275.194 67.1211V48H269.194V67.1211H275.194ZM272.194 51H281.745V45H272.194V51ZM278.745 48V65.2461H284.745V48H278.745ZM278.745 65.2701C278.762 67.4143 279.34 69.4789 280.807 71.1041L285.26 67.0834C285.035 66.8336 284.753 66.3331 284.745 65.2221L278.745 65.2701ZM280.807 71.1041C282.312 72.7715 284.328 73.5 286.491 73.5V67.5C285.737 67.5 285.448 67.291 285.26 67.0834L280.807 71.1041ZM286.491 73.5C287.895 73.5 289.255 73.1876 290.499 72.5017L287.6 67.2483C287.333 67.3957 286.987 67.5 286.491 67.5V73.5ZM290.514 72.4933C291.796 71.7758 292.796 70.7391 293.496 69.462L288.235 66.577C288.05 66.9146 287.839 67.1148 287.585 67.2567L290.514 72.4933ZM293.488 69.4765C294.243 68.1173 294.549 66.601 294.549 65.0508H288.549C288.549 65.8182 288.4 66.2811 288.243 66.5626L293.488 69.4765ZM336.101 57.1602L336.181 60.1591L339.354 60.0743L339.091 56.911L336.101 57.1602ZM327.332 57.3945L324.363 57.8275L324.748 60.4647L327.412 60.3935L327.332 57.3945ZM326.589 55.7344L324.265 57.6308L324.277 57.646L324.29 57.661L326.589 55.7344ZM325.007 54.582L323.779 57.3188L323.812 57.3338L323.846 57.348L325.007 54.582ZM319.949 54.8164L318.47 52.2063L318.46 52.2117L318.451 52.2171L319.949 54.8164ZM318.816 56.6133L321.815 56.6799L321.816 56.6208L321.815 56.5616L318.816 56.6133ZM319.519 58.1367L317.522 60.3756L317.537 60.3888L317.552 60.4018L319.519 58.1367ZM322.156 59.1719L321.55 62.1101L321.574 62.115L321.598 62.1196L322.156 59.1719ZM327.937 60.2656L328.501 57.3191L328.495 57.3179L327.937 60.2656ZM334.617 63.1172L332.597 65.3352L332.607 65.3441L334.617 63.1172ZM336.843 68.3906L339.843 68.4096L339.843 68.3912L339.843 68.3728L336.843 68.3906ZM335.007 73.7617L332.659 71.895L332.654 71.9012L332.649 71.9074L335.007 73.7617ZM330.085 77.3164L331.2 80.1018L331.207 80.0988L331.215 80.0958L330.085 77.3164ZM312.8 75.9297L311.048 78.3648L311.055 78.37L311.063 78.3752L312.8 75.9297ZM308.582 68.8203L308.507 65.8212L305.215 65.903L305.602 69.1731L308.582 68.8203ZM318.015 68.5859L320.962 68.0246L320.486 65.5236L317.941 65.5869L318.015 68.5859ZM319.636 71.0859L321.283 68.5783L321.283 68.5783L319.636 71.0859ZM325.964 71.2617L324.434 68.6816L324.434 68.6816L325.964 71.2617ZM327.136 69.4453L330.136 69.497L330.137 69.4423L330.136 69.3876L327.136 69.4453ZM326.238 67.8242L324.499 70.2691L324.517 70.2821L324.536 70.2947L326.238 67.8242ZM323.484 66.8477L322.923 69.7948L322.931 69.7963L323.484 66.8477ZM318.25 65.8516L318.81 62.9045L318.798 62.9022L318.786 62.9L318.25 65.8516ZM311.531 62.8242L309.4 64.9362L309.409 64.9455L311.531 62.8242ZM309.343 57.1602L312.343 57.1772L312.343 57.1589L312.343 57.1407L309.343 57.1602ZM310.945 52.0234L313.332 53.8409L313.34 53.8304L310.945 52.0234ZM315.554 48.7422L314.491 45.937L314.491 45.937L315.554 48.7422ZM332.214 50.168L330.449 52.5936L330.458 52.6L332.214 50.168ZM336.021 54.1612L327.251 54.3956L327.412 60.3935L336.181 60.1591L336.021 54.1612ZM330.3 56.9616C330.129 55.7892 329.652 54.718 328.889 53.8077L324.29 57.661C324.334 57.7143 324.352 57.7499 324.363 57.8275L330.3 56.9616ZM328.914 53.838C328.168 52.9235 327.224 52.2593 326.169 51.8161L323.846 57.348C324.093 57.4517 324.204 57.5557 324.265 57.6308L328.914 53.838ZM326.236 51.8452C325.139 51.3528 323.963 51.1523 322.781 51.1523V57.1523C323.291 57.1523 323.599 57.2384 323.779 57.3188L326.236 51.8452ZM322.781 51.1523C321.275 51.1523 319.796 51.455 318.47 52.2063L321.428 57.4265C321.664 57.2924 322.073 57.1523 322.781 57.1523V51.1523ZM318.451 52.2171C316.934 53.0911 315.781 54.6089 315.816 56.665L321.815 56.5616C321.818 56.7268 321.771 56.9697 321.627 57.1976C321.498 57.402 321.381 57.4537 321.447 57.4157L318.451 52.2171ZM315.817 56.5466C315.782 58.1065 316.46 59.4281 317.522 60.3756L321.516 55.8978C321.535 55.915 321.626 56.0034 321.706 56.1764C321.789 56.357 321.818 56.5389 321.815 56.6799L315.817 56.5466ZM317.552 60.4018C318.657 61.3618 320.183 61.8283 321.55 62.1101L322.762 56.2337C322.241 56.1264 321.88 56.0174 321.646 55.9253C321.396 55.8274 321.389 55.7871 321.486 55.8716L317.552 60.4018ZM321.598 62.1196L327.379 63.2133L328.495 57.3179L322.713 56.2242L321.598 62.1196ZM327.373 63.2122C330.098 63.7333 331.713 64.5303 332.597 65.3352L336.637 60.8992C334.604 59.0478 331.766 57.9437 328.501 57.3191L327.373 63.2122ZM332.607 65.3441C333.384 66.0455 333.835 66.9664 333.843 68.4085L339.843 68.3728C339.826 65.4398 338.793 62.8451 336.627 60.8902L332.607 65.3441ZM333.843 68.3716C333.834 69.7987 333.427 70.9286 332.659 71.895L337.356 75.6285C339.009 73.548 339.826 71.0972 339.843 68.4096L333.843 68.3716ZM332.649 71.9074C331.822 72.9592 330.635 73.8551 328.956 74.537L331.215 80.0958C333.703 79.085 335.797 77.6111 337.366 75.6161L332.649 71.9074ZM328.971 74.531C327.304 75.1978 325.311 75.5664 322.937 75.5664V81.5664C325.928 81.5664 328.7 81.1017 331.2 80.1018L328.971 74.531ZM322.937 75.5664C319.028 75.5664 316.334 74.7603 314.538 73.4841L311.063 78.3752C314.214 80.6147 318.278 81.5664 322.937 81.5664V75.5664ZM314.553 73.4946C312.763 72.2072 311.812 70.5875 311.561 68.4675L305.602 69.1731C306.054 72.9907 307.915 76.1105 311.048 78.3648L314.553 73.4946ZM308.656 71.8194L318.09 71.585L317.941 65.5869L308.507 65.8212L308.656 71.8194ZM315.068 69.1473C315.417 70.9797 316.389 72.5426 317.989 73.5935L321.283 68.5783C321.139 68.4835 321.03 68.3797 320.962 68.0246L315.068 69.1473ZM317.989 73.5935C319.477 74.5706 321.209 74.9453 322.976 74.9453V68.9453C322.035 68.9453 321.54 68.7471 321.283 68.5783L317.989 73.5935ZM322.976 74.9453C324.547 74.9453 326.123 74.6559 327.495 73.8419L324.434 68.6816C324.27 68.779 323.853 68.9453 322.976 68.9453V74.9453ZM327.495 73.8419C328.967 72.9687 330.101 71.4975 330.136 69.497L324.137 69.3936C324.138 69.3283 324.148 69.2369 324.18 69.1304C324.211 69.023 324.258 68.9239 324.313 68.8394C324.422 68.6696 324.512 68.635 324.434 68.6816L327.495 73.8419ZM330.136 69.3876C330.103 67.6879 329.274 66.2729 327.94 65.3537L324.536 70.2947C324.505 70.2736 324.385 70.1791 324.278 69.9865C324.168 69.7886 324.139 69.6056 324.137 69.503L330.136 69.3876ZM327.976 65.3794C326.861 64.5863 325.435 64.1611 324.037 63.899L322.931 69.7963C323.447 69.8929 323.831 69.9972 324.107 70.0951C324.243 70.1432 324.341 70.1859 324.408 70.219C324.476 70.2524 324.502 70.2713 324.499 70.2691L327.976 65.3794ZM324.045 63.9005L318.81 62.9045L317.689 68.7987L322.923 69.7948L324.045 63.9005ZM318.786 62.9C316.111 62.4136 314.533 61.5839 313.652 60.7029L309.409 64.9455C311.471 67.0073 314.372 68.1958 317.713 68.8032L318.786 62.9ZM313.661 60.7123C312.808 59.8513 312.334 58.7565 312.343 57.1772L306.343 57.1431C306.326 60.1471 307.311 62.8284 309.4 64.9362L313.661 60.7123ZM312.343 57.1407C312.334 55.7121 312.702 54.6675 313.332 53.8409L308.558 50.206C307.026 52.218 306.327 54.5978 306.343 57.1796L312.343 57.1407ZM313.34 53.8304C314.02 52.9284 315.054 52.1401 316.618 51.5474L314.491 45.937C312.07 46.8547 310.031 48.2539 308.55 50.2165L313.34 53.8304ZM316.618 51.5474C318.192 50.9506 320.166 50.6094 322.605 50.6094V44.6094C319.628 44.6094 316.901 45.0233 314.491 45.937L316.618 51.5474ZM322.605 50.6094C326.281 50.6094 328.787 51.3844 330.449 52.5936L333.98 47.7423C330.954 45.5401 327.054 44.6094 322.605 44.6094V50.6094ZM330.458 52.6C332.067 53.7623 332.934 55.2828 333.111 57.4093L339.091 56.911C338.773 53.1 337.049 49.959 333.971 47.7359L330.458 52.6Z" fill="#F71782"/>
</g>
<path d="M31.8911 88.0582L53.9156 121.449L45.8614 126.761L28.8054 100.903L28.6097 101.032L24.1537 110.523L19.5509 103.545L24.4076 92.9943L31.8911 88.0582ZM75.6443 108.286C72.7314 110.208 69.7653 111.174 66.7461 111.184C63.7198 111.184 60.7793 110.261 57.9245 108.416C55.0626 106.56 52.429 103.797 50.0237 100.127C47.6185 96.4569 46.1387 92.9719 45.5843 89.6719C45.0336 86.354 45.3662 83.3347 46.5821 80.6141C47.8018 77.8754 49.8681 75.5454 52.7811 73.624C55.694 71.7026 58.6493 70.7204 61.647 70.6773C64.6483 70.6162 67.5656 71.4918 70.3989 73.3042C73.2322 75.1165 75.8478 77.8523 78.2459 81.5116C80.6691 85.1854 82.1705 88.703 82.7498 92.0645C83.3292 95.4259 83.0199 98.4922 81.8217 101.263C80.6273 104.017 78.5682 106.358 75.6443 108.286ZM71.2889 101.683C73.028 100.536 73.8513 98.7217 73.7587 96.2402C73.659 93.7479 72.3885 90.663 69.9472 86.9854C68.3556 84.5725 66.799 82.7447 65.2775 81.5021C63.7488 80.2487 62.2952 79.5229 60.9166 79.3247C59.538 79.1266 58.2672 79.4111 57.1042 80.1782C55.376 81.3181 54.5564 83.1144 54.6455 85.5669C54.7274 88.0086 55.9531 91.0374 58.3225 94.6531C59.9247 97.1059 61.4955 98.9789 63.0348 100.272C64.585 101.558 66.062 102.307 67.4658 102.52C68.8624 102.722 70.1368 102.443 71.2889 101.683ZM108.195 86.8156C105.282 88.737 102.316 89.7029 99.297 89.7134C96.2706 89.713 93.3301 88.7903 90.4753 86.9453C87.6134 85.0895 84.9798 82.3265 82.5746 78.6564C80.1693 74.9862 78.6895 71.5012 78.1351 68.2013C77.5844 64.8834 77.917 61.8641 79.133 59.1435C80.3526 56.4048 82.4189 54.0748 85.3319 52.1534C88.2448 50.232 91.2001 49.2497 94.1978 49.2067C97.1992 49.1456 100.116 50.0212 102.95 51.8335C105.783 53.6459 108.399 56.3817 110.797 60.041C113.22 63.7148 114.721 67.2324 115.301 70.5938C115.88 73.9553 115.571 77.0216 114.373 79.7929C113.178 82.5461 111.119 84.887 108.195 86.8156ZM103.84 80.2125C105.579 79.0654 106.402 77.2511 106.31 74.7696C106.21 72.2773 104.939 69.1923 102.498 65.5148C100.906 63.1018 99.3498 61.2741 97.8283 60.0315C96.2996 58.7781 94.846 58.0523 93.4674 57.8541C92.0888 57.656 90.818 57.9404 89.655 58.7076C87.9268 59.8475 87.1072 61.6438 87.1963 64.0963C87.2782 66.538 88.5039 69.5667 90.8733 73.1825C92.4755 75.6353 94.0463 77.5083 95.5856 78.8015C97.1358 80.0875 98.6128 80.8369 100.017 81.0496C101.413 81.2515 102.688 80.9724 103.84 80.2125Z" fill="#F61782"/>
<path d="M31.8911 88.0582L32.7259 87.5076L32.1753 86.6728L31.3405 87.2234L31.8911 88.0582ZM53.9156 121.449L54.4662 122.283L55.3009 121.733L54.7503 120.898L53.9156 121.449ZM45.8614 126.761L45.0267 127.312L45.5773 128.147L46.412 127.596L45.8614 126.761ZM28.8054 100.903L29.6401 100.353L29.0895 99.5178L28.2548 100.068L28.8054 100.903ZM28.6097 101.032L28.0591 100.197L27.8242 100.352L27.7045 100.607L28.6097 101.032ZM24.1537 110.523L23.3189 111.073L24.3009 112.562L25.0589 110.948L24.1537 110.523ZM19.5509 103.545L18.6425 103.126L18.4101 103.631L18.7162 104.095L19.5509 103.545ZM24.4076 92.9943L23.857 92.1596L23.6186 92.3168L23.4992 92.5762L24.4076 92.9943ZM31.0564 88.6088L53.0808 121.999L54.7503 120.898L32.7259 87.5076L31.0564 88.6088ZM53.365 120.614L45.3108 125.926L46.412 127.596L54.4662 122.283L53.365 120.614ZM46.6962 126.211L29.6401 100.353L27.9706 101.454L45.0267 127.312L46.6962 126.211ZM28.2548 100.068L28.0591 100.197L29.1603 101.867L29.356 101.738L28.2548 100.068ZM27.7045 100.607L23.2485 110.098L25.0589 110.948L29.5149 101.457L27.7045 100.607ZM24.9884 109.972L20.3857 102.994L18.7162 104.095L23.3189 111.073L24.9884 109.972ZM20.4593 103.963L25.316 93.4125L23.4992 92.5762L18.6425 103.126L20.4593 103.963ZM24.9582 93.8291L32.4417 88.893L31.3405 87.2234L23.857 92.1596L24.9582 93.8291ZM66.7461 111.184L66.746 112.184L66.7496 112.184L66.7461 111.184ZM57.9245 108.416L57.3804 109.255L57.3817 109.256L57.9245 108.416ZM50.0237 100.127L49.1874 100.675L49.1874 100.675L50.0237 100.127ZM45.5843 89.6719L44.5978 89.8357L44.5981 89.8376L45.5843 89.6719ZM46.5821 80.6141L47.4951 81.0221L47.4957 81.0209L46.5821 80.6141ZM61.647 70.6773L61.6614 71.6772L61.6673 71.6771L61.647 70.6773ZM70.3989 73.3042L70.9378 72.4618L70.9378 72.4618L70.3989 73.3042ZM78.2459 81.5116L77.4095 82.0597L77.4111 82.0622L78.2459 81.5116ZM82.7498 92.0645L81.7644 92.2343L81.7644 92.2343L82.7498 92.0645ZM81.8217 101.263L82.7391 101.661L82.7396 101.66L81.8217 101.263ZM73.7587 96.2402L74.758 96.203L74.7579 96.2002L73.7587 96.2402ZM69.9472 86.9854L69.1124 87.5361L69.114 87.5385L69.9472 86.9854ZM65.2775 81.5021L64.6434 82.2754L64.6449 82.2767L65.2775 81.5021ZM60.9166 79.3247L61.0589 78.3349L61.0589 78.3349L60.9166 79.3247ZM54.6455 85.5669L55.645 85.5334L55.6449 85.5306L54.6455 85.5669ZM58.3225 94.6531L59.1597 94.1062L59.1589 94.105L58.3225 94.6531ZM63.0348 100.272L62.3916 101.038L62.3963 101.042L63.0348 100.272ZM67.4658 102.52L67.3159 103.509L67.3227 103.51L67.4658 102.52ZM75.0937 107.451C72.3172 109.283 69.5384 110.174 66.7427 110.184L66.7496 112.184C69.9922 112.173 73.1455 111.132 76.1949 109.121L75.0937 107.451ZM66.7463 110.184C63.9356 110.184 61.1809 109.33 58.4673 107.576L57.3817 109.256C60.3776 111.192 63.5041 112.184 66.746 112.184L66.7463 110.184ZM58.4686 107.577C55.7515 105.815 53.2101 103.165 50.8601 99.5789L49.1874 100.675C51.6478 104.43 54.3736 107.305 57.3804 109.255L58.4686 107.577ZM50.8601 99.5789C48.5082 95.9901 47.096 92.6343 46.5705 89.5063L44.5981 89.8376C45.1814 93.3094 46.7288 96.9236 49.1874 100.675L50.8601 99.5789ZM46.5708 89.5082C46.048 86.3582 46.3693 83.5411 47.4951 81.0221L45.6692 80.2061C44.3631 83.1284 44.0192 86.3498 44.5978 89.8357L46.5708 89.5082ZM47.4957 81.0209C48.6256 78.4837 50.5514 76.2927 53.3317 74.4588L52.2304 72.7892C49.1848 74.7982 46.978 77.2672 45.6686 80.2073L47.4957 81.0209ZM53.3317 74.4588C56.112 72.6249 58.8841 71.7171 61.6614 71.6772L61.6326 69.6774C58.4145 69.7236 55.2761 70.7803 52.2304 72.7892L53.3317 74.4588ZM61.6673 71.6771C64.4475 71.6205 67.1727 72.4275 69.86 74.1466L70.9378 72.4618C67.9586 70.5561 64.8492 69.6119 61.6266 69.6775L61.6673 71.6771ZM69.86 74.1466C72.5445 75.8637 75.0665 78.4845 77.4095 82.0597L79.0823 80.9635C76.6292 77.2202 73.9199 74.3693 70.9378 72.4618L69.86 74.1466ZM77.4111 82.0622C79.7795 85.6529 81.2142 89.0422 81.7644 92.2343L83.7353 91.8946C83.1267 88.3639 81.5587 84.7179 79.0806 80.961L77.4111 82.0622ZM81.7644 92.2343C82.3152 95.4299 82.0152 98.2962 80.9038 100.867L82.7396 101.66C84.0246 98.6883 84.3433 95.4218 83.7353 91.8946L81.7644 92.2343ZM80.9043 100.865C79.7994 103.412 77.8831 105.612 75.0937 107.451L76.1949 109.121C79.2532 107.104 81.4552 104.621 82.7391 101.661L80.9043 100.865ZM71.8395 102.518C73.9303 101.139 74.8607 98.955 74.758 96.203L72.7594 96.2775C72.8419 98.4884 72.1257 99.9332 70.7383 100.848L71.8395 102.518ZM74.7579 96.2002C74.6472 93.4325 73.2552 90.1606 70.7803 86.4324L69.114 87.5385C71.5217 91.1653 72.6708 94.0633 72.7595 96.2802L74.7579 96.2002ZM70.7819 86.4348C69.1583 83.9733 67.5374 82.0566 65.91 80.7276L64.6449 82.2767C66.0606 83.4328 67.5528 85.1716 69.1124 87.5361L70.7819 86.4348ZM65.9115 80.7288C64.2979 79.4058 62.6785 78.5677 61.0589 78.3349L60.7743 80.3146C61.9118 80.4781 63.1997 81.0916 64.6434 82.2754L65.9115 80.7288ZM61.0589 78.3349C59.4381 78.1019 57.9208 78.4416 56.5536 79.3434L57.6548 81.013C58.6137 80.3805 59.638 80.1512 60.7743 80.3146L61.0589 78.3349ZM56.5536 79.3434C54.4758 80.7139 53.5472 82.8778 53.6462 85.6032L55.6449 85.5306C55.5657 83.351 56.2762 81.9223 57.6548 81.013L56.5536 79.3434ZM53.6461 85.6005C53.7372 88.3179 55.0833 91.5345 57.486 95.2012L59.1589 94.105C56.8229 90.5402 55.7176 87.6993 55.645 85.5334L53.6461 85.6005ZM57.4853 95.2C59.1189 97.7009 60.7515 99.6599 62.3916 101.038L63.6781 99.5064C62.2395 98.2979 60.7305 96.5109 59.1597 94.1062L57.4853 95.2ZM62.3963 101.042C64.0309 102.398 65.6723 103.26 67.3159 103.509L67.6156 101.532C66.4517 101.355 65.1392 100.719 63.6733 99.5024L62.3963 101.042ZM67.3227 103.51C68.9557 103.746 70.4779 103.416 71.8395 102.518L70.7383 100.848C69.7956 101.47 68.769 101.698 67.6088 101.531L67.3227 103.51ZM99.297 89.7134L99.2968 90.7134L99.3004 90.7134L99.297 89.7134ZM90.4753 86.9453L89.9312 87.7844L89.9325 87.7852L90.4753 86.9453ZM82.5746 78.6564L81.7382 79.2045L81.7382 79.2045L82.5746 78.6564ZM78.1351 68.2013L77.1486 68.3651L77.1489 68.367L78.1351 68.2013ZM79.133 59.1435L80.0459 59.5515L80.0465 59.5503L79.133 59.1435ZM94.1978 49.2067L94.2122 50.2066L94.2182 50.2065L94.1978 49.2067ZM102.95 51.8335L103.489 50.9912L103.489 50.9912L102.95 51.8335ZM110.797 60.041L109.96 60.5891L109.962 60.5916L110.797 60.041ZM115.301 70.5938L114.315 70.7637L114.315 70.7637L115.301 70.5938ZM114.373 79.7929L115.29 80.1909L115.29 80.1897L114.373 79.7929ZM106.31 74.7696L107.309 74.7323L107.309 74.7296L106.31 74.7696ZM102.498 65.5148L101.663 66.0654L101.665 66.0679L102.498 65.5148ZM97.8283 60.0315L97.1942 60.8048L97.1958 60.8061L97.8283 60.0315ZM93.4674 57.8541L93.6097 56.8643L93.6097 56.8643L93.4674 57.8541ZM87.1963 64.0963L88.1958 64.0628L88.1957 64.06L87.1963 64.0963ZM90.8733 73.1825L91.7105 72.6356L91.7097 72.6344L90.8733 73.1825ZM95.5856 78.8015L94.9424 79.5671L94.9471 79.5711L95.5856 78.8015ZM100.017 81.0496L99.8668 82.0383L99.8735 82.0393L100.017 81.0496ZM107.645 85.9808C104.868 87.8122 102.089 88.7037 99.2935 88.7134L99.3004 90.7134C102.543 90.7021 105.696 89.6618 108.746 87.6503L107.645 85.9808ZM99.2971 88.7134C96.4864 88.713 93.7317 87.8592 91.0181 86.1054L89.9325 87.7852C92.9284 89.7214 96.0549 90.7129 99.2968 90.7134L99.2971 88.7134ZM91.0194 86.1063C88.3023 84.3444 85.761 81.6941 83.411 78.1082L81.7382 79.2045C84.1986 82.9589 86.9244 85.8346 89.9312 87.7843L91.0194 86.1063ZM83.411 78.1082C81.0591 74.5195 79.6468 71.1637 79.1213 68.0356L77.1489 68.367C77.7322 71.8388 79.2796 75.453 81.7382 79.2045L83.411 78.1082ZM79.1216 68.0376C78.5988 64.8876 78.9201 62.0705 80.0459 59.5515L78.22 58.7355C76.9139 61.6577 76.57 64.8792 77.1486 68.3651L79.1216 68.0376ZM80.0465 59.5503C81.1764 57.013 83.1022 54.822 85.8825 52.9882L84.7813 51.3186C81.7356 53.3275 79.5288 55.7966 78.2195 58.7367L80.0465 59.5503ZM85.8825 52.9882C88.6628 51.1543 91.435 50.2465 94.2122 50.2066L94.1834 48.2068C90.9653 48.253 87.8269 49.3097 84.7813 51.3186L85.8825 52.9882ZM94.2182 50.2065C96.9983 50.1499 99.7235 50.9569 102.411 52.6759L103.489 50.9912C100.509 49.0854 97.4 48.1413 94.1774 48.2069L94.2182 50.2065ZM102.411 52.6759C105.095 54.3931 107.617 57.0138 109.96 60.5891L111.633 59.4928C109.18 55.7496 106.471 52.8987 103.489 50.9912L102.411 52.6759ZM109.962 60.5916C112.33 64.1823 113.765 67.5715 114.315 70.7637L116.286 70.424C115.678 66.8933 114.11 63.2473 111.631 59.4904L109.962 60.5916ZM114.315 70.7637C114.866 73.9593 114.566 76.8255 113.455 79.396L115.29 80.1897C116.575 77.2177 116.894 73.9512 116.286 70.424L114.315 70.7637ZM113.455 79.3949C112.35 81.9419 110.434 84.1409 107.645 85.9808L108.746 87.6503C111.804 85.6331 114.006 83.1503 115.29 80.1909L113.455 79.3949ZM104.39 81.0472C106.481 79.6681 107.411 77.4844 107.309 74.7323L105.31 74.8069C105.393 77.0178 104.676 78.4626 103.289 79.3777L104.39 81.0472ZM107.309 74.7296C107.198 71.9618 105.806 68.69 103.331 64.9618L101.665 66.0679C104.073 69.6947 105.222 72.5927 105.31 74.8096L107.309 74.7296ZM103.333 64.9642C101.709 62.5027 100.088 60.586 98.4608 59.257L97.1958 60.8061C98.6114 61.9622 100.104 63.701 101.663 66.0654L103.333 64.9642ZM98.4623 59.2582C96.8487 57.9352 95.2293 57.0971 93.6097 56.8643L93.3251 58.844C94.4627 59.0075 95.7505 59.621 97.1942 60.8048L98.4623 59.2582ZM93.6097 56.8643C91.9889 56.6313 90.4716 56.971 89.1044 57.8728L90.2056 59.5423C91.1645 58.9099 92.1888 58.6806 93.3251 58.844L93.6097 56.8643ZM89.1044 57.8728C87.0266 59.2433 86.098 61.4072 86.197 64.1326L88.1957 64.06C88.1165 61.8803 88.827 60.4517 90.2056 59.5423L89.1044 57.8728ZM86.1969 64.1299C86.2881 66.8473 87.6341 70.0639 90.0369 73.7306L91.7097 72.6344C89.3737 69.0696 88.2684 66.2287 88.1958 64.0628L86.1969 64.1299ZM90.0361 73.7294C91.6698 76.2303 93.3023 78.1893 94.9424 79.5671L96.2289 78.0358C94.7903 76.8272 93.2813 75.0403 91.7105 72.6356L90.0361 73.7294ZM94.9471 79.5711C96.5817 80.9271 98.2232 81.7892 99.8668 82.0383L100.166 80.0609C99.0025 79.8845 97.69 79.2479 96.2241 78.0318L94.9471 79.5711ZM99.8735 82.0393C101.507 82.2754 103.029 81.9453 104.39 81.0472L103.289 79.3777C102.346 79.9995 101.32 80.2276 100.16 80.0599L99.8735 82.0393Z" fill="black"/>
<path d="M420.442 55.8921L386.623 77.2542L381.471 69.0969L407.66 52.5538L407.535 52.3557L398.134 47.7134L405.201 43.2491L415.654 48.3128L420.442 55.8921ZM399.355 99.2381C397.491 96.2879 396.584 93.3033 396.633 90.2846C396.693 87.2588 397.674 84.337 399.575 81.5192C401.487 78.6944 404.301 76.1158 408.018 73.7834C411.735 71.4509 415.248 70.0401 418.558 69.5508C421.886 69.0656 424.899 69.4577 427.595 70.727C430.309 72.0004 432.598 74.1122 434.461 77.0625C436.325 80.0128 437.249 82.9869 437.233 85.9848C437.235 88.9868 436.302 91.8863 434.434 94.6832C432.566 97.4802 429.779 100.041 426.073 102.367C422.352 104.717 418.806 106.149 415.434 106.662C412.061 107.175 409.002 106.805 406.255 105.553C403.526 104.304 401.226 102.199 399.355 99.2381ZM406.043 95.0137C407.155 96.7751 408.953 97.6339 411.436 97.5903C413.93 97.5397 417.039 96.3303 420.764 93.9619C423.208 92.4182 425.066 90.898 426.338 89.4012C427.622 87.8975 428.376 86.4585 428.601 85.0841C428.826 83.7097 428.567 82.4336 427.823 81.2556C426.717 79.5053 424.938 78.6505 422.484 78.6912C420.041 78.725 416.989 79.8907 413.327 82.1883C410.843 83.7419 408.939 85.2755 407.616 86.789C406.3 88.3136 405.522 89.7755 405.281 91.1748C405.052 92.5672 405.306 93.8468 406.043 95.0137ZM420.18 132.206C418.316 129.256 417.409 126.271 417.458 123.252C417.518 120.227 418.499 117.305 420.4 114.487C422.311 111.662 425.126 109.083 428.843 106.751C432.559 104.419 436.073 103.008 439.383 102.519C442.711 102.033 445.723 102.425 448.419 103.695C451.134 104.968 453.422 107.08 455.286 110.03C457.15 112.98 458.073 115.955 458.057 118.952C458.059 121.954 457.126 124.854 455.259 127.651C453.391 130.448 450.604 133.009 446.898 135.335C443.177 137.685 439.631 139.117 436.258 139.63C432.886 140.143 429.827 139.773 427.08 138.52C424.35 137.272 422.051 135.167 420.18 132.206ZM426.868 127.981C427.98 129.743 429.778 130.602 432.261 130.558C434.755 130.507 437.864 129.298 441.589 126.93C444.033 125.386 445.891 123.866 447.163 122.369C448.446 120.865 449.201 119.426 449.426 118.052C449.651 116.677 449.392 115.401 448.648 114.223C447.542 112.473 445.763 111.618 443.309 111.659C440.866 111.693 437.814 112.858 434.152 115.156C431.668 116.71 429.764 118.243 428.441 119.757C427.125 121.281 426.346 122.743 426.106 124.143C425.877 125.535 426.131 126.814 426.868 127.981Z" fill="#F61782"/>
<path d="M420.442 55.8921L420.976 56.7376L421.821 56.2035L421.287 55.3581L420.442 55.8921ZM386.623 77.2542L385.778 77.7882L386.312 78.6337L387.158 78.0996L386.623 77.2542ZM381.471 69.0969L380.937 68.2514L380.091 68.7855L380.625 69.6309L381.471 69.0969ZM407.66 52.5538L408.194 53.3993L409.039 52.8652L408.505 52.0198L407.66 52.5538ZM407.535 52.3557L408.38 51.8216L408.23 51.5836L407.978 51.459L407.535 52.3557ZM398.134 47.7134L397.6 46.868L396.092 47.8204L397.691 48.6101L398.134 47.7134ZM405.201 43.2491L405.637 42.3491L405.137 42.1068L404.667 42.4036L405.201 43.2491ZM415.654 48.3128L416.499 47.7787L416.347 47.5373L416.09 47.4128L415.654 48.3128ZM419.908 55.0467L386.089 76.4087L387.158 78.0996L420.976 56.7376L419.908 55.0467ZM387.469 76.7201L382.316 68.5628L380.625 69.6309L385.778 77.7882L387.469 76.7201ZM382.005 69.9423L408.194 53.3993L407.126 51.7084L380.937 68.2514L382.005 69.9423ZM408.505 52.0198L408.38 51.8216L406.689 52.8897L406.814 53.0879L408.505 52.0198ZM407.978 51.459L398.577 46.8168L397.691 48.6101L407.092 53.2523L407.978 51.459ZM398.668 48.5589L405.735 44.0945L404.667 42.4036L397.6 46.868L398.668 48.5589ZM404.765 44.149L415.218 49.2127L416.09 47.4128L405.637 42.3491L404.765 44.149ZM414.808 48.8468L419.596 56.4262L421.287 55.3581L416.499 47.7787L414.808 48.8468ZM396.633 90.2846L395.633 90.2647L395.633 90.2683L396.633 90.2846ZM399.575 81.5192L398.746 80.9587L398.746 80.96L399.575 81.5192ZM408.018 73.7834L407.486 72.9363L407.486 72.9363L408.018 73.7834ZM418.558 69.5508L418.414 68.5613L418.412 68.5616L418.558 69.5508ZM427.595 70.727L427.169 71.6318L427.17 71.6323L427.595 70.727ZM437.233 85.9848L436.233 85.9795L436.233 85.9854L437.233 85.9848ZM434.434 94.6832L435.265 95.2386L435.265 95.2386L434.434 94.6832ZM426.073 102.367L425.542 101.52L425.539 101.521L426.073 102.367ZM415.434 106.662L415.283 105.673L415.283 105.673L415.434 106.662ZM406.255 105.553L405.839 106.462L405.84 106.463L406.255 105.553ZM411.436 97.5903L411.453 98.5902L411.456 98.5901L411.436 97.5903ZM420.764 93.9619L420.23 93.1165L420.227 93.1181L420.764 93.9619ZM426.338 89.4012L425.578 88.7521L425.576 88.7536L426.338 89.4012ZM428.601 85.0841L429.588 85.2459L429.588 85.2459L428.601 85.0841ZM422.484 78.6912L422.498 79.6911L422.5 79.6911L422.484 78.6912ZM413.327 82.1883L413.857 83.0362L413.858 83.0354L413.327 82.1883ZM407.616 86.789L406.863 86.1308L406.859 86.1355L407.616 86.789ZM405.281 91.1748L404.296 91.0055L404.294 91.0123L405.281 91.1748ZM400.201 98.7041C398.424 95.8921 397.588 93.0961 397.633 90.3008L395.633 90.2683C395.581 93.5105 396.559 96.6837 398.51 99.7722L400.201 98.7041ZM397.633 90.3044C397.689 87.4942 398.597 84.757 400.404 82.0784L398.746 80.96C396.751 83.9171 395.698 87.0234 395.633 90.2647L397.633 90.3044ZM400.403 82.0797C402.218 79.3979 404.918 76.9093 408.549 74.6304L407.486 72.9363C403.684 75.3223 400.755 77.9909 398.746 80.9587L400.403 82.0797ZM408.549 74.6304C412.184 72.3497 415.567 71.0039 418.704 70.5401L418.412 68.5616C414.929 69.0763 411.285 70.5522 407.486 72.9363L408.549 74.6304ZM418.702 70.5404C421.862 70.0797 424.672 70.4565 427.169 71.6318L428.021 69.8223C425.125 68.4589 421.911 68.0515 418.414 68.5613L418.702 70.5404ZM427.17 71.6323C429.684 72.8121 431.837 74.7807 433.616 77.5966L435.307 76.5285C433.358 73.4438 430.933 71.1887 428.019 69.8217L427.17 71.6323ZM433.616 77.5966C435.394 80.4125 436.247 83.202 436.233 85.9795L438.233 85.9901C438.25 82.7718 437.255 79.6131 435.307 76.5285L433.616 77.5966ZM436.233 85.9854C436.234 88.7662 435.374 91.4749 433.602 94.1279L435.265 95.2386C437.229 92.2976 438.235 89.2074 438.233 85.9842L436.233 85.9854ZM433.602 94.1279C431.832 96.7779 429.162 99.2478 425.542 101.52L426.605 103.214C430.396 100.835 433.299 98.1825 435.265 95.2386L433.602 94.1279ZM425.539 101.521C421.902 103.819 418.486 105.186 415.283 105.673L415.584 107.651C419.126 107.112 422.802 105.616 426.607 103.212L425.539 101.521ZM415.283 105.673C412.077 106.161 409.218 105.805 406.67 104.643L405.84 106.463C408.786 107.806 412.045 108.189 415.584 107.651L415.283 105.673ZM406.671 104.643C404.146 103.488 401.985 101.529 400.201 98.7041L398.51 99.7722C400.466 102.87 402.905 105.12 405.839 106.462L406.671 104.643ZM405.197 95.5478C406.535 97.6653 408.7 98.6385 411.453 98.5902L411.418 96.5905C409.206 96.6293 407.776 95.8848 406.888 94.4797L405.197 95.5478ZM411.456 98.5901C414.226 98.5339 417.524 97.2068 421.301 94.8058L420.227 93.1181C416.554 95.4538 413.634 96.5455 411.416 96.5905L411.456 98.5901ZM421.298 94.8074C423.791 93.2326 425.739 91.6498 427.1 90.0489L425.576 88.7536C424.393 90.1462 422.625 91.6038 420.23 93.1165L421.298 94.8074ZM427.099 90.0504C428.454 88.4632 429.323 86.8606 429.588 85.2459L427.614 84.9223C427.428 86.0564 426.79 87.3319 425.578 88.7521L427.099 90.0504ZM429.588 85.2459C429.853 83.63 429.543 82.1063 428.669 80.7216L426.978 81.7897C427.591 82.7608 427.8 83.7895 427.614 84.9223L429.588 85.2459ZM428.669 80.7216C427.339 78.6172 425.194 77.6461 422.467 77.6913L422.5 79.6911C424.681 79.6549 426.096 80.3934 426.978 81.7897L428.669 80.7216ZM422.47 77.6913C419.751 77.7289 416.509 79.0113 412.795 81.3413L413.858 83.0354C417.469 80.7701 420.331 79.7211 422.498 79.6911L422.47 77.6913ZM412.797 81.3405C410.264 82.9246 408.273 84.5182 406.863 86.1308L408.369 87.4472C409.606 86.0328 411.422 84.5593 413.857 83.0362L412.797 81.3405ZM406.859 86.1355C405.471 87.743 404.577 89.3672 404.296 91.0055L406.267 91.3441C406.466 90.1839 407.128 88.8842 408.373 87.4426L406.859 86.1355ZM404.294 91.0123C404.026 92.6403 404.326 94.1688 405.197 95.5478L406.888 94.4797C406.285 93.5249 406.077 92.494 406.268 91.3374L404.294 91.0123ZM417.458 123.252L416.458 123.232L416.458 123.236L417.458 123.252ZM420.4 114.487L419.571 113.926L419.57 113.928L420.4 114.487ZM428.843 106.751L428.311 105.904L428.311 105.904L428.843 106.751ZM439.383 102.519L439.239 101.529L439.237 101.529L439.383 102.519ZM448.419 103.695L447.994 104.599L447.995 104.6L448.419 103.695ZM458.057 118.952L457.057 118.947L457.057 118.953L458.057 118.952ZM455.259 127.651L456.09 128.206L456.09 128.206L455.259 127.651ZM446.898 135.335L446.367 134.488L446.364 134.489L446.898 135.335ZM436.258 139.63L436.108 138.641L436.108 138.641L436.258 139.63ZM427.08 138.52L426.664 139.43L426.665 139.43L427.08 138.52ZM432.261 130.558L432.278 131.558L432.281 131.558L432.261 130.558ZM441.589 126.93L441.055 126.084L441.052 126.086L441.589 126.93ZM447.163 122.369L446.402 121.72L446.401 121.721L447.163 122.369ZM449.426 118.052L450.413 118.214L450.413 118.214L449.426 118.052ZM443.309 111.659L443.323 112.659L443.325 112.659L443.309 111.659ZM434.152 115.156L434.682 116.004L434.683 116.003L434.152 115.156ZM428.441 119.757L427.688 119.099L427.684 119.103L428.441 119.757ZM426.106 124.143L425.12 123.973L425.119 123.98L426.106 124.143ZM421.025 131.672C419.249 128.86 418.413 126.064 418.458 123.268L416.458 123.236C416.406 126.478 417.384 129.651 419.335 132.74L421.025 131.672ZM418.458 123.272C418.514 120.462 419.422 117.725 421.229 115.046L419.57 113.928C417.576 116.885 416.523 119.991 416.458 123.232L418.458 123.272ZM421.228 115.047C423.043 112.366 425.743 109.877 429.374 107.598L428.311 105.904C424.509 108.29 421.58 110.959 419.571 113.926L421.228 115.047ZM429.374 107.598C433.009 105.317 436.392 103.972 439.529 103.508L439.237 101.529C435.754 102.044 432.11 103.52 428.311 105.904L429.374 107.598ZM439.527 103.508C442.687 103.047 445.497 103.424 447.994 104.599L448.845 102.79C445.949 101.427 442.735 101.019 439.239 101.529L439.527 103.508ZM447.995 104.6C450.509 105.78 452.662 107.748 454.441 110.564L456.131 109.496C454.183 106.411 451.758 104.156 448.844 102.789L447.995 104.6ZM454.441 110.564C456.219 113.38 457.072 116.17 457.057 118.947L459.057 118.958C459.075 115.739 458.08 112.581 456.131 109.496L454.441 110.564ZM457.057 118.953C457.059 121.734 456.199 124.443 454.427 127.096L456.09 128.206C458.054 125.265 459.06 122.175 459.057 118.952L457.057 118.953ZM454.427 127.096C452.657 129.746 449.987 132.215 446.367 134.488L447.43 136.182C451.22 133.803 454.124 131.15 456.09 128.206L454.427 127.096ZM446.364 134.489C442.727 136.786 439.31 138.154 436.108 138.641L436.409 140.618C439.951 140.079 443.627 138.584 447.432 136.18L446.364 134.489ZM436.108 138.641C432.902 139.129 430.042 138.772 427.494 137.611L426.665 139.43C429.611 140.774 432.87 141.157 436.409 140.618L436.108 138.641ZM427.496 137.611C424.971 136.456 422.81 134.497 421.025 131.672L419.335 132.74C421.291 135.837 423.73 138.088 426.664 139.43L427.496 137.611ZM426.022 128.515C427.36 130.633 429.525 131.606 432.278 131.558L432.243 129.558C430.031 129.597 428.601 128.852 427.713 127.447L426.022 128.515ZM432.281 131.558C435.05 131.502 438.349 130.174 442.125 127.773L441.052 126.086C437.379 128.421 434.459 129.513 432.24 129.558L432.281 131.558ZM442.123 127.775C444.616 126.2 446.564 124.617 447.925 123.017L446.401 121.721C445.217 123.114 443.45 124.571 441.055 126.084L442.123 127.775ZM447.924 123.018C449.278 121.431 450.148 119.828 450.413 118.214L448.439 117.89C448.253 119.024 447.615 120.3 446.402 121.72L447.924 123.018ZM450.413 118.214C450.678 116.598 450.368 115.074 449.493 113.689L447.802 114.757C448.416 115.729 448.625 116.757 448.439 117.89L450.413 118.214ZM449.493 113.689C448.164 111.585 446.019 110.614 443.292 110.659L443.325 112.659C445.506 112.623 446.92 113.361 447.802 114.757L449.493 113.689ZM443.295 110.659C440.576 110.697 437.334 111.979 433.62 114.309L434.683 116.003C438.293 113.738 441.156 112.689 443.323 112.659L443.295 110.659ZM433.621 114.308C431.089 115.892 429.098 117.486 427.688 119.099L429.194 120.415C430.431 119 432.247 117.527 434.682 116.004L433.621 114.308ZM427.684 119.103C426.296 120.711 425.402 122.335 425.12 123.973L427.092 124.312C427.291 123.152 427.953 121.852 429.198 120.41L427.684 119.103ZM425.119 123.98C424.851 125.608 425.151 127.136 426.022 128.515L427.713 127.447C427.11 126.493 426.902 125.462 427.093 124.305L425.119 123.98Z" fill="black"/>
<path d="M216.426 106.028V146.028H206.777V115.052H206.543L197.597 120.52V112.161L207.461 106.028H216.426ZM241.811 147.005C238.322 147.005 235.314 146.178 232.788 144.524C230.262 142.858 228.315 140.468 226.948 137.356C225.581 134.231 224.904 130.475 224.917 126.087C224.93 121.699 225.613 117.975 226.968 114.915C228.335 111.842 230.275 109.505 232.788 107.903C235.314 106.289 238.322 105.481 241.811 105.481C245.301 105.481 248.309 106.289 250.835 107.903C253.374 109.505 255.327 111.842 256.694 114.915C258.061 117.988 258.738 121.712 258.725 126.087C258.725 130.488 258.042 134.251 256.675 137.376C255.307 140.501 253.361 142.89 250.835 144.544C248.322 146.184 245.314 147.005 241.811 147.005ZM241.811 139.095C243.895 139.095 245.581 138.033 246.87 135.911C248.159 133.776 248.797 130.501 248.784 126.087C248.784 123.196 248.491 120.813 247.905 118.938C247.319 117.05 246.505 115.644 245.464 114.72C244.422 113.795 243.205 113.333 241.811 113.333C239.741 113.333 238.068 114.381 236.792 116.477C235.516 118.561 234.871 121.764 234.858 126.087C234.845 129.016 235.125 131.445 235.698 133.372C236.284 135.299 237.104 136.738 238.159 137.688C239.214 138.626 240.431 139.095 241.811 139.095ZM280.805 147.005C277.316 147.005 274.308 146.178 271.782 144.524C269.256 142.858 267.309 140.468 265.942 137.356C264.575 134.231 263.898 130.475 263.911 126.087C263.924 121.699 264.608 117.975 265.962 114.915C267.329 111.842 269.269 109.505 271.782 107.903C274.308 106.289 277.316 105.481 280.805 105.481C284.295 105.481 287.303 106.289 289.829 107.903C292.368 109.505 294.321 111.842 295.688 114.915C297.055 117.988 297.733 121.712 297.72 126.087C297.72 130.488 297.036 134.251 295.669 137.376C294.302 140.501 292.355 142.89 289.829 144.544C287.316 146.184 284.308 147.005 280.805 147.005ZM280.805 139.095C282.889 139.095 284.575 138.033 285.864 135.911C287.153 133.776 287.791 130.501 287.778 126.087C287.778 123.196 287.485 120.813 286.899 118.938C286.313 117.05 285.499 115.644 284.458 114.72C283.416 113.795 282.199 113.333 280.805 113.333C278.735 113.333 277.062 114.381 275.786 116.477C274.51 118.561 273.865 121.764 273.852 126.087C273.839 129.016 274.119 131.445 274.692 133.372C275.278 135.299 276.098 136.738 277.153 137.688C278.208 138.626 279.425 139.095 280.805 139.095Z" fill="#F61782"/>
<path d="M216.426 106.028H217.426V105.028H216.426V106.028ZM216.426 146.028V147.028H217.426V146.028H216.426ZM206.777 146.028H205.777V147.028H206.777V146.028ZM206.777 115.052H207.777V114.052H206.777V115.052ZM206.543 115.052V114.052H206.261L206.021 114.198L206.543 115.052ZM197.597 120.52H196.597V122.304L198.119 121.374L197.597 120.52ZM197.597 112.161L197.069 111.312L196.597 111.605V112.161H197.597ZM207.461 106.028V105.028H207.175L206.933 105.179L207.461 106.028ZM215.426 106.028V146.028H217.426V106.028H215.426ZM216.426 145.028H206.777V147.028H216.426V145.028ZM207.777 146.028V115.052H205.777V146.028H207.777ZM206.777 114.052H206.543V116.052H206.777V114.052ZM206.021 114.198L197.076 119.667L198.119 121.374L207.064 115.905L206.021 114.198ZM198.597 120.52V112.161H196.597V120.52H198.597ZM198.125 113.01L207.989 106.877L206.933 105.179L197.069 111.312L198.125 113.01ZM207.461 107.028H216.426V105.028H207.461V107.028ZM232.788 144.524L232.237 145.359L232.24 145.361L232.788 144.524ZM226.948 137.356L226.032 137.757L226.032 137.759L226.948 137.356ZM224.917 126.087L223.917 126.084L223.917 126.084L224.917 126.087ZM226.968 114.915L226.054 114.508L226.053 114.51L226.968 114.915ZM232.788 107.903L233.325 108.747L233.326 108.746L232.788 107.903ZM250.835 107.903L250.296 108.746L250.301 108.749L250.835 107.903ZM256.694 114.915L257.608 114.508L257.608 114.508L256.694 114.915ZM258.725 126.087L257.725 126.084V126.087H258.725ZM256.675 137.376L255.758 136.975L255.758 136.975L256.675 137.376ZM250.835 144.544L251.381 145.381L251.382 145.38L250.835 144.544ZM246.87 135.911L247.725 136.43L247.726 136.428L246.87 135.911ZM248.784 126.087L247.784 126.087L247.784 126.09L248.784 126.087ZM247.905 118.938L246.95 119.235L246.951 119.237L247.905 118.938ZM245.464 114.72L246.127 113.972L246.127 113.972L245.464 114.72ZM236.792 116.477L237.645 117L237.646 116.997L236.792 116.477ZM234.858 126.087L235.858 126.091L235.858 126.09L234.858 126.087ZM235.698 133.372L234.739 133.657L234.741 133.663L235.698 133.372ZM238.159 137.688L237.489 138.431L237.495 138.436L238.159 137.688ZM241.811 146.005C238.485 146.005 235.675 145.219 233.336 143.688L232.24 145.361C234.953 147.137 238.158 148.005 241.811 148.005V146.005ZM233.339 143.69C230.993 142.142 229.163 139.912 227.864 136.954L226.032 137.759C227.467 141.024 229.531 143.574 232.237 145.359L233.339 143.69ZM227.864 136.956C226.566 133.989 225.904 130.377 225.917 126.09L223.917 126.084C223.903 130.573 224.595 134.474 226.032 137.757L227.864 136.956ZM225.917 126.09C225.93 121.799 226.598 118.22 227.882 115.32L226.053 114.51C224.628 117.729 223.93 121.599 223.917 126.084L225.917 126.09ZM227.881 115.321C229.179 112.404 230.999 110.229 233.325 108.747L232.25 107.06C229.551 108.78 227.49 111.28 226.054 114.508L227.881 115.321ZM233.326 108.746C235.667 107.25 238.481 106.481 241.811 106.481V104.481C238.163 104.481 234.961 105.327 232.249 107.061L233.326 108.746ZM241.811 106.481C245.142 106.481 247.956 107.25 250.296 108.746L251.373 107.061C248.662 105.327 245.46 104.481 241.811 104.481V106.481ZM250.301 108.749C252.653 110.233 254.484 112.407 255.78 115.321L257.608 114.508C256.17 111.277 254.094 108.777 251.368 107.057L250.301 108.749ZM255.78 115.321C257.076 118.233 257.738 121.809 257.725 126.084L259.725 126.09C259.739 121.614 259.047 117.743 257.608 114.508L255.78 115.321ZM257.725 126.087C257.725 130.388 257.057 134.007 255.758 136.975L257.591 137.777C259.027 134.494 259.725 130.587 259.725 126.087H257.725ZM255.758 136.975C254.459 139.946 252.63 142.173 250.287 143.707L251.382 145.38C254.092 143.607 256.156 141.056 257.591 137.777L255.758 136.975ZM250.288 143.706C247.963 145.224 245.153 146.005 241.811 146.005V148.005C245.475 148.005 248.68 147.145 251.381 145.381L250.288 143.706ZM241.811 140.095C244.316 140.095 246.295 138.784 247.725 136.43L246.015 135.392C244.867 137.283 243.473 138.095 241.811 138.095V140.095ZM247.726 136.428C249.158 134.056 249.797 130.559 249.784 126.084L247.784 126.09C247.797 130.443 247.16 133.495 246.014 135.394L247.726 136.428ZM249.784 126.087C249.784 123.138 249.486 120.646 248.86 118.64L246.951 119.237C247.496 120.981 247.784 123.254 247.784 126.087H249.784ZM248.86 118.642C248.242 116.649 247.351 115.058 246.127 113.972L244.8 115.468C245.659 116.23 246.397 117.452 246.95 119.235L248.86 118.642ZM246.127 113.972C244.903 112.885 243.449 112.333 241.811 112.333V114.333C242.96 114.333 243.941 114.706 244.8 115.468L246.127 113.972ZM241.811 112.333C239.322 112.333 237.356 113.628 235.938 115.957L237.646 116.997C238.78 115.134 240.16 114.333 241.811 114.333V112.333ZM235.939 115.955C234.519 118.274 233.871 121.7 233.858 126.084L235.858 126.09C235.871 121.828 236.513 118.848 237.645 117L235.939 115.955ZM233.858 126.082C233.845 129.07 234.129 131.604 234.739 133.657L236.657 133.087C236.121 131.286 235.845 128.963 235.858 126.091L233.858 126.082ZM234.741 133.663C235.359 135.695 236.255 137.318 237.489 138.431L238.828 136.946C237.954 136.157 237.209 134.903 236.655 133.081L234.741 133.663ZM237.495 138.436C238.728 139.532 240.18 140.095 241.811 140.095V138.095C240.682 138.095 239.699 137.72 238.823 136.941L237.495 138.436ZM271.782 144.524L271.231 145.359L271.234 145.361L271.782 144.524ZM265.942 137.356L265.026 137.757L265.027 137.759L265.942 137.356ZM263.911 126.087L262.911 126.084L262.911 126.084L263.911 126.087ZM265.962 114.915L265.048 114.508L265.047 114.51L265.962 114.915ZM271.782 107.903L272.319 108.747L272.321 108.746L271.782 107.903ZM289.829 107.903L289.29 108.746L289.295 108.749L289.829 107.903ZM295.688 114.915L296.602 114.508L296.602 114.508L295.688 114.915ZM297.72 126.087L296.72 126.084V126.087H297.72ZM295.669 137.376L294.753 136.975L294.753 136.975L295.669 137.376ZM289.829 144.544L290.376 145.381L290.377 145.38L289.829 144.544ZM285.864 135.911L286.719 136.43L286.72 136.428L285.864 135.911ZM287.778 126.087L286.778 126.087L286.778 126.09L287.778 126.087ZM286.899 118.938L285.944 119.235L285.945 119.237L286.899 118.938ZM284.458 114.72L285.122 113.972L285.122 113.972L284.458 114.72ZM275.786 116.477L276.639 117L276.64 116.997L275.786 116.477ZM273.852 126.087L274.852 126.091L274.852 126.09L273.852 126.087ZM274.692 133.372L273.734 133.657L273.735 133.663L274.692 133.372ZM277.153 137.688L276.484 138.431L276.489 138.436L277.153 137.688ZM280.805 146.005C277.479 146.005 274.669 145.219 272.33 143.688L271.234 145.361C273.947 147.137 277.152 148.005 280.805 148.005V146.005ZM272.333 143.69C269.987 142.142 268.157 139.912 266.858 136.954L265.027 137.759C266.461 141.024 268.525 143.574 271.231 145.359L272.333 143.69ZM266.858 136.956C265.56 133.989 264.898 130.377 264.911 126.09L262.911 126.084C262.898 130.573 263.59 134.474 265.026 137.757L266.858 136.956ZM264.911 126.09C264.924 121.799 265.593 118.22 266.876 115.32L265.047 114.51C263.623 117.729 262.924 121.599 262.911 126.084L264.911 126.09ZM266.875 115.321C268.173 112.404 269.993 110.229 272.319 108.747L271.245 107.06C268.545 108.78 266.484 111.28 265.048 114.508L266.875 115.321ZM272.321 108.746C274.661 107.25 277.475 106.481 280.805 106.481V104.481C277.157 104.481 273.955 105.327 271.243 107.061L272.321 108.746ZM280.805 106.481C284.136 106.481 286.95 107.25 289.29 108.746L290.367 107.061C287.656 105.327 284.454 104.481 280.805 104.481V106.481ZM289.295 108.749C291.647 110.233 293.478 112.407 294.775 115.321L296.602 114.508C295.164 111.277 293.089 108.777 290.362 107.057L289.295 108.749ZM294.775 115.321C296.07 118.233 296.732 121.809 296.72 126.084L298.72 126.09C298.733 121.614 298.041 117.743 296.602 114.508L294.775 115.321ZM296.72 126.087C296.72 130.388 296.051 134.007 294.753 136.975L296.585 137.777C298.021 134.494 298.72 130.587 298.72 126.087H296.72ZM294.753 136.975C293.453 139.946 291.624 142.173 289.281 143.707L290.377 145.38C293.086 143.607 295.15 141.056 296.585 137.777L294.753 136.975ZM289.282 143.706C286.957 145.224 284.147 146.005 280.805 146.005V148.005C284.469 148.005 287.674 147.145 290.376 145.381L289.282 143.706ZM280.805 140.095C283.31 140.095 285.289 138.784 286.719 136.43L285.009 135.392C283.861 137.283 282.467 138.095 280.805 138.095V140.095ZM286.72 136.428C288.152 134.056 288.791 130.559 288.778 126.084L286.778 126.09C286.791 130.443 286.155 133.495 285.008 135.394L286.72 136.428ZM288.778 126.087C288.778 123.138 288.48 120.646 287.854 118.64L285.945 119.237C286.49 120.981 286.778 123.254 286.778 126.087H288.778ZM287.854 118.642C287.236 116.649 286.345 115.058 285.122 113.972L283.794 115.468C284.654 116.23 285.391 117.452 285.944 119.235L287.854 118.642ZM285.122 113.972C283.897 112.885 282.443 112.333 280.805 112.333V114.333C281.954 114.333 282.935 114.706 283.794 115.468L285.122 113.972ZM280.805 112.333C278.316 112.333 276.35 113.628 274.932 115.957L276.64 116.997C277.774 115.134 279.154 114.333 280.805 114.333V112.333ZM274.933 115.955C273.513 118.274 272.866 121.7 272.852 126.084L274.852 126.09C274.865 121.828 275.507 118.848 276.639 117L274.933 115.955ZM272.852 126.082C272.839 129.07 273.123 131.604 273.734 133.657L275.651 133.087C275.115 131.286 274.84 128.963 274.852 126.091L272.852 126.082ZM273.735 133.663C274.353 135.695 275.249 137.318 276.484 138.431L277.823 136.946C276.948 136.157 276.203 134.903 275.649 133.081L273.735 133.663ZM276.489 138.436C277.722 139.532 279.174 140.095 280.805 140.095V138.095C279.676 138.095 278.694 137.72 277.817 136.941L276.489 138.436Z" fill="black"/>
<circle cx="469.5" cy="39.5" r="11.5" fill="white"/>
<path fill-rule="evenodd" clip-rule="evenodd" d="M485 40.5C485 49.0604 478.06 56 469.5 56C460.94 56 454 49.0604 454 40.5C454 31.9396 460.94 25 469.5 25C478.06 25 485 31.9396 485 40.5ZM473.886 38.1797L471.016 38.2564C470.986 38.0518 470.905 37.8707 470.773 37.7131C470.641 37.5511 470.468 37.4254 470.255 37.3359C470.175 37.3 470.09 37.271 470 37.2488V38.9664L471.214 39.196C472.194 39.3835 472.923 39.6946 473.4 40.1293C473.881 40.5639 474.124 41.1392 474.129 41.8551C474.124 42.5284 473.924 43.1143 473.528 43.6129C473.136 44.1115 472.599 44.4993 471.917 44.7763C471.347 45.0045 470.708 45.1371 470 45.1744V48H469V45.1681C467.868 45.0982 466.955 44.8163 466.26 44.3224C465.455 43.7429 464.994 42.9673 464.879 41.9957L467.967 41.919C468.035 42.277 468.212 42.5497 468.497 42.7372C468.644 42.8336 468.812 42.9052 469 42.952V41.2062L468.043 41.0241C467.059 40.8452 466.326 40.5149 465.845 40.0334C465.363 39.5476 465.124 38.9297 465.129 38.1797C465.124 37.5234 465.299 36.9631 465.653 36.4986C466.006 36.0298 466.509 35.6719 467.161 35.4247C467.696 35.2222 468.308 35.1027 469 35.0661V32H470V35.0697C471.081 35.1358 471.952 35.4097 472.614 35.8913C473.381 36.4453 473.805 37.2081 473.886 38.1797ZM469 37.2552C468.854 37.2913 468.721 37.3438 468.6 37.4126C468.348 37.5575 468.225 37.7535 468.229 38.0007C468.225 38.1925 468.301 38.3587 468.459 38.4993C468.575 38.6 468.755 38.6864 469 38.7587V37.2552ZM470 41.4024V42.9885C470.219 42.9539 470.409 42.8893 470.568 42.7947C470.82 42.6456 470.948 42.4474 470.952 42.2003C470.948 41.9787 470.85 41.8018 470.658 41.6697C470.506 41.562 470.287 41.4729 470 41.4024Z" fill="#EDE63D"/>
<circle cx="362.5" cy="121.5" r="11.5" fill="white"/>
<path fill-rule="evenodd" clip-rule="evenodd" d="M378 122.5C378 131.06 371.06 138 362.5 138C353.94 138 347 131.06 347 122.5C347 113.94 353.94 107 362.5 107C371.06 107 378 113.94 378 122.5ZM366.886 120.18L364.016 120.256C363.986 120.052 363.905 119.871 363.773 119.713C363.641 119.551 363.468 119.425 363.255 119.336C363.175 119.3 363.09 119.271 363 119.249V120.966L364.214 121.196C365.194 121.384 365.923 121.695 366.4 122.129C366.881 122.564 367.124 123.139 367.129 123.855C367.124 124.528 366.924 125.114 366.528 125.613C366.136 126.112 365.599 126.499 364.917 126.776C364.347 127.004 363.708 127.137 363 127.174V130H362V127.168C360.868 127.098 359.955 126.816 359.26 126.322C358.455 125.743 357.994 124.967 357.879 123.996L360.967 123.919C361.035 124.277 361.212 124.55 361.497 124.737C361.644 124.834 361.812 124.905 362 124.952V123.206L361.043 123.024C360.059 122.845 359.326 122.515 358.845 122.033C358.363 121.548 358.124 120.93 358.129 120.18C358.124 119.523 358.299 118.963 358.653 118.499C359.006 118.03 359.509 117.672 360.161 117.425C360.696 117.222 361.308 117.103 362 117.066V114H363V117.07C364.081 117.136 364.952 117.41 365.614 117.891C366.381 118.445 366.805 119.208 366.886 120.18ZM362 119.255C361.854 119.291 361.721 119.344 361.6 119.413C361.348 119.558 361.225 119.754 361.229 120.001C361.225 120.192 361.301 120.359 361.459 120.499C361.575 120.6 361.755 120.686 362 120.759V119.255ZM363 123.402V124.989C363.219 124.954 363.409 124.889 363.568 124.795C363.82 124.646 363.948 124.447 363.952 124.2C363.948 123.979 363.85 123.802 363.658 123.67C363.506 123.562 363.287 123.473 363 123.402Z" fill="#EDE63D"/>
<circle cx="119.5" cy="121.5" r="11.5" fill="white"/>
<path fill-rule="evenodd" clip-rule="evenodd" d="M135 122.5C135 131.06 128.06 138 119.5 138C110.94 138 104 131.06 104 122.5C104 113.94 110.94 107 119.5 107C128.06 107 135 113.94 135 122.5ZM123.886 120.18L121.016 120.256C120.986 120.052 120.905 119.871 120.773 119.713C120.641 119.551 120.468 119.425 120.255 119.336C120.175 119.3 120.09 119.271 120 119.249V120.966L121.214 121.196C122.194 121.384 122.923 121.695 123.4 122.129C123.881 122.564 124.124 123.139 124.129 123.855C124.124 124.528 123.924 125.114 123.528 125.613C123.136 126.112 122.599 126.499 121.917 126.776C121.347 127.004 120.708 127.137 120 127.174V130H119V127.168C117.868 127.098 116.955 126.816 116.26 126.322C115.455 125.743 114.994 124.967 114.879 123.996L117.967 123.919C118.035 124.277 118.212 124.55 118.497 124.737C118.644 124.834 118.812 124.905 119 124.952V123.206L118.043 123.024C117.059 122.845 116.326 122.515 115.845 122.033C115.363 121.548 115.124 120.93 115.129 120.18C115.124 119.523 115.299 118.963 115.653 118.499C116.006 118.03 116.509 117.672 117.161 117.425C117.696 117.222 118.308 117.103 119 117.066V114H120V117.07C121.081 117.136 121.952 117.41 122.614 117.891C123.381 118.445 123.805 119.208 123.886 120.18ZM119 119.255C118.854 119.291 118.721 119.344 118.6 119.413C118.348 119.558 118.225 119.754 118.229 120.001C118.225 120.192 118.301 120.359 118.459 120.499C118.575 120.6 118.755 120.686 119 120.759V119.255ZM120 123.402V124.989C120.219 124.954 120.409 124.889 120.568 124.795C120.82 124.646 120.948 124.447 120.952 124.2C120.948 123.979 120.85 123.802 120.658 123.67C120.506 123.562 120.287 123.473 120 123.402Z" fill="#EDE63D"/>
<circle cx="33.5" cy="36.5" r="11.5" fill="white"/>
<path fill-rule="evenodd" clip-rule="evenodd" d="M49 37.5C49 46.0604 42.0604 53 33.5 53C24.9396 53 18 46.0604 18 37.5C18 28.9396 24.9396 22 33.5 22C42.0604 22 49 28.9396 49 37.5ZM37.8857 35.1797L35.0157 35.2564C34.9859 35.0518 34.9049 34.8707 34.7728 34.7131C34.6407 34.5511 34.4681 34.4254 34.2551 34.3359C34.175 34.3 34.09 34.271 34 34.2488V35.9664L35.2139 36.196C36.194 36.3835 36.9227 36.6946 37.3999 37.1293C37.8815 37.5639 38.1244 38.1392 38.1286 38.8551C38.1244 39.5284 37.9241 40.1143 37.5278 40.6129C37.1357 41.1115 36.5988 41.4993 35.917 41.7763C35.3466 42.0044 34.7076 42.1372 34 42.1744V45H33V42.1681C31.8684 42.0982 30.9551 41.8163 30.26 41.3224C29.4546 40.7429 28.9944 39.9673 28.8793 38.9957L31.9667 38.919C32.0349 39.277 32.2117 39.5497 32.4972 39.7372C32.644 39.8336 32.8116 39.9052 33 39.952V38.2062L32.0434 38.0241C31.059 37.8452 30.3261 37.5149 29.8445 37.0334C29.363 36.5476 29.1244 35.9297 29.1286 35.1797C29.1244 34.5234 29.2991 33.9631 29.6528 33.4986C30.0065 33.0298 30.5093 32.6719 31.1613 32.4247C31.6955 32.2222 32.3084 32.1027 33 32.0661V29H34V32.0697C35.0806 32.1358 35.9519 32.4097 36.6137 32.8913C37.3808 33.4453 37.8048 34.2081 37.8857 35.1797ZM33 34.2552C32.8545 34.2913 32.721 34.3438 32.5995 34.4126C32.3481 34.5575 32.2245 34.7536 32.2288 35.0007C32.2245 35.1925 32.3012 35.3587 32.4589 35.4993C32.5748 35.6 32.7552 35.6864 33 35.7587V34.2552ZM34 38.4025V39.9885C34.2194 39.9539 34.4088 39.8893 34.5683 39.7947C34.8197 39.6456 34.9475 39.4474 34.9518 39.2003C34.9475 38.9787 34.8495 38.8018 34.6578 38.6697C34.5063 38.562 34.287 38.4729 34 38.4025Z" fill="#EDE63D"/>
<defs>
<linearGradient id="paint0_linear_24_53" x1="247.5" y1="0" x2="247.5" y2="175" gradientUnits="userSpaceOnUse">
<stop stop-color="#48FA7A"/>
<stop offset="0.328125" stop-color="#97AA9D"/>
<stop offset="0.53125" stop-color="#97AA9D"/>
<stop offset="0.958333" stop-color="#D76AB9"/>
<stop offset="1" stop-color="#FA48C8"/>
</linearGradient>
</defs>
</svg>
