<svg width="300" height="300" viewBox="0 0 300 300" fill="none" xmlns="http://www.w3.org/2000/svg">
<path d="M258.735 149.401C258.84 168.419 253.959 187.131 244.579 203.672C235.2 220.214 221.649 234.006 205.279 243.674L150 150L258.735 149.401Z" fill="#F48181"/>
<path d="M204.48 55.8564C220.933 65.3835 234.601 79.059 244.122 95.5191C253.643 111.979 258.684 130.649 258.742 149.666L150.003 149.999L204.48 55.8564Z" fill="#E4F481"/>
<path d="M94.955 56.1883C111.749 46.3265 130.883 41.1575 150.356 41.2213C169.83 41.2851 188.929 46.5793 205.658 56.5509L150 150L94.955 56.1883Z" fill="#47D7CE"/>
<path d="M41.2642 150.501C41.1766 131.484 46.0742 112.776 55.4687 96.2429C64.8632 79.7099 78.4263 65.9297 94.8053 56.2764L150 150L41.2642 150.501Z" fill="#7A86EB"/>
<path d="M206.371 243.02C189.719 253.12 170.661 258.56 151.188 258.773C131.716 258.986 112.543 253.963 95.6741 244.23L150 150L206.371 243.02Z" fill="#F781CF"/>
<path d="M95.6479 244.251C79.1917 234.73 65.5182 221.059 55.991 204.603C46.4638 188.146 41.4157 169.478 41.3503 150.46L150.087 150.086L95.6479 244.251Z" fill="#F4B048"/>
</svg>
