<svg width="500" height="500" viewBox="0 0 500 500" fill="none" xmlns="http://www.w3.org/2000/svg">
<path d="M431.226 249.002C431.4 280.698 423.265 311.885 407.632 339.454C391.999 367.023 369.415 390.01 342.131 406.124L250 250L431.226 249.002Z" fill="#F48181"/>
<path d="M340.8 93.094C368.221 108.972 391.002 131.765 406.87 159.199C422.738 186.632 431.14 217.748 431.236 249.443L250.005 249.999L340.8 93.094Z" fill="#E4F481"/>
<path d="M158.258 93.6472C186.249 77.2108 218.138 68.5958 250.593 68.7021C283.049 68.8084 314.881 77.6321 342.763 94.2514L250 250L158.258 93.6472Z" fill="#47D7CE"/>
<path d="M68.7737 250.835C68.6277 219.14 76.7904 187.96 92.4479 160.405C108.105 132.85 130.71 109.883 158.009 93.7939L250 250L68.7737 250.835Z" fill="#7A86EB"/>
<path d="M343.952 405.034C316.198 421.866 284.434 430.933 251.98 431.288C219.526 431.643 187.572 423.272 159.457 407.051L250 250L343.952 405.034Z" fill="#F781CF"/>
<path d="M159.413 407.085C131.986 391.217 109.197 368.432 93.3183 341.004C77.4396 313.576 69.0262 282.463 68.9172 250.767L250.145 250.144L159.413 407.085Z" fill="#F4B048"/>
<path d="M238.148 153.455L238.148 168L234.639 168L234.639 156.736L234.554 156.736L231.301 158.724L231.301 155.685L234.888 153.455L238.148 153.455ZM247.379 168.355C246.11 168.355 245.016 168.054 244.098 167.453C243.179 166.847 242.471 165.978 241.974 164.847C241.477 163.71 241.231 162.344 241.236 160.749C241.24 159.153 241.489 157.799 241.981 156.686C242.479 155.569 243.184 154.719 244.098 154.136C245.016 153.549 246.11 153.256 247.379 153.256C248.648 153.256 249.742 153.549 250.66 154.136C251.584 154.719 252.294 155.569 252.791 156.686C253.288 157.804 253.534 159.158 253.53 160.749C253.53 162.349 253.281 163.717 252.784 164.854C252.287 165.99 251.579 166.859 250.66 167.46C249.747 168.057 248.653 168.355 247.379 168.355ZM247.379 165.479C248.137 165.479 248.75 165.093 249.219 164.321C249.687 163.545 249.919 162.354 249.915 160.749C249.915 159.697 249.808 158.831 249.595 158.149C249.382 157.463 249.086 156.951 248.707 156.615C248.328 156.279 247.886 156.111 247.379 156.111C246.626 156.111 246.018 156.492 245.554 157.254C245.09 158.012 244.855 159.177 244.851 160.749C244.846 161.814 244.948 162.697 245.156 163.398C245.369 164.098 245.667 164.622 246.051 164.967C246.434 165.308 246.877 165.479 247.379 165.479ZM261.559 168.355C260.29 168.355 259.196 168.054 258.278 167.453C257.359 166.847 256.651 165.978 256.154 164.847C255.657 163.71 255.411 162.344 255.415 160.749C255.42 159.153 255.669 157.799 256.161 156.686C256.658 155.569 257.364 154.719 258.278 154.136C259.196 153.549 260.29 153.256 261.559 153.256C262.828 153.256 263.921 153.549 264.84 154.136C265.763 154.719 266.474 155.569 266.971 156.686C267.468 157.804 267.714 159.158 267.709 160.749C267.709 162.349 267.461 163.717 266.964 164.854C266.466 165.99 265.759 166.859 264.84 167.46C263.926 168.057 262.832 168.355 261.559 168.355ZM261.559 165.479C262.316 165.479 262.93 165.093 263.398 164.321C263.867 163.545 264.099 162.354 264.094 160.749C264.094 159.697 263.988 158.831 263.775 158.149C263.562 157.463 263.266 156.951 262.887 156.615C262.508 156.279 262.065 156.111 261.559 156.111C260.806 156.111 260.198 156.492 259.733 157.254C259.269 158.012 259.035 159.177 259.03 160.749C259.026 161.814 259.127 162.697 259.336 163.398C259.549 164.098 259.847 164.622 260.231 164.967C260.614 165.308 261.057 165.479 261.559 165.479Z" fill="white"/>
<path d="M142.516 296L142.516 293.472L147.821 288.827C148.219 288.467 148.557 288.138 148.837 287.839C149.116 287.536 149.329 287.233 149.476 286.93C149.623 286.623 149.696 286.289 149.696 285.929C149.696 285.527 149.609 285.183 149.433 284.899C149.258 284.61 149.017 284.388 148.709 284.232C148.401 284.075 148.048 283.997 147.651 283.997C147.248 283.997 146.896 284.08 146.593 284.246C146.289 284.407 146.053 284.641 145.882 284.949C145.717 285.257 145.634 285.631 145.634 286.071L142.303 286.071C142.303 285.081 142.525 284.227 142.97 283.507C143.415 282.787 144.04 282.233 144.845 281.845C145.655 281.452 146.595 281.256 147.665 281.256C148.768 281.256 149.727 281.44 150.541 281.81C151.356 282.179 151.985 282.695 152.431 283.358C152.88 284.016 153.105 284.781 153.105 285.652C153.105 286.206 152.994 286.755 152.771 287.3C152.549 287.844 152.149 288.446 151.571 289.104C150.998 289.762 150.184 290.55 149.128 291.469L147.388 293.074L147.388 293.166L153.283 293.166L153.283 296L142.516 296ZM161.285 296.355C160.016 296.355 158.923 296.054 158.004 295.453C157.086 294.847 156.378 293.978 155.881 292.847C155.383 291.71 155.137 290.344 155.142 288.749C155.147 287.153 155.395 285.799 155.888 284.686C156.385 283.569 157.09 282.719 158.004 282.136C158.923 281.549 160.016 281.256 161.285 281.256C162.554 281.256 163.648 281.549 164.567 282.136C165.49 282.719 166.2 283.569 166.697 284.686C167.194 285.804 167.441 287.158 167.436 288.749C167.436 290.349 167.187 291.717 166.69 292.854C166.193 293.99 165.485 294.859 164.567 295.46C163.653 296.057 162.559 296.355 161.285 296.355ZM161.285 293.479C162.043 293.479 162.656 293.093 163.125 292.321C163.594 291.545 163.826 290.354 163.821 288.749C163.821 287.697 163.714 286.831 163.501 286.149C163.288 285.463 162.992 284.951 162.613 284.615C162.235 284.279 161.792 284.111 161.285 284.111C160.532 284.111 159.924 284.492 159.46 285.254C158.996 286.012 158.762 287.177 158.757 288.749C158.752 289.814 158.854 290.697 159.062 291.398C159.275 292.098 159.574 292.622 159.957 292.967C160.341 293.308 160.783 293.479 161.285 293.479ZM175.465 296.355C174.196 296.355 173.102 296.054 172.184 295.453C171.265 294.847 170.557 293.978 170.06 292.847C169.563 291.71 169.317 290.344 169.322 288.749C169.326 287.153 169.575 285.799 170.067 284.686C170.564 283.569 171.27 282.719 172.184 282.136C173.102 281.549 174.196 281.256 175.465 281.256C176.734 281.256 177.828 281.549 178.746 282.136C179.67 282.719 180.38 283.569 180.877 284.686C181.374 285.804 181.62 287.158 181.616 288.749C181.616 290.349 181.367 291.717 180.87 292.854C180.373 293.99 179.665 294.859 178.746 295.46C177.832 296.057 176.739 296.355 175.465 296.355ZM175.465 293.479C176.223 293.479 176.836 293.093 177.305 292.321C177.773 291.545 178.005 290.354 178.001 288.749C178.001 287.697 177.894 286.831 177.681 286.149C177.468 285.463 177.172 284.951 176.793 284.615C176.414 284.279 175.972 284.111 175.465 284.111C174.712 284.111 174.104 284.492 173.64 285.254C173.176 286.012 172.941 287.177 172.937 288.749C172.932 289.814 173.034 290.697 173.242 291.398C173.455 292.098 173.753 292.622 174.137 292.967C174.52 293.308 174.963 293.479 175.465 293.479Z" fill="white"/>
<path d="M330.889 296.199C329.828 296.199 328.886 296.007 328.062 295.624C327.238 295.24 326.587 294.712 326.109 294.04C325.635 293.367 325.389 292.596 325.37 291.724L328.779 291.724C328.808 292.259 329.026 292.69 329.433 293.017C329.84 293.339 330.325 293.5 330.889 293.5C331.329 293.5 331.72 293.403 332.061 293.209C332.401 293.015 332.669 292.742 332.863 292.392C333.057 292.037 333.152 291.63 333.147 291.17C333.152 290.702 333.055 290.292 332.856 289.942C332.662 289.591 332.392 289.319 332.046 289.125C331.705 288.926 331.312 288.827 330.867 288.827C330.446 288.822 330.046 288.914 329.667 289.104C329.293 289.293 329.009 289.551 328.815 289.878L325.711 289.295L326.343 281.455L335.676 281.455L335.676 284.288L329.234 284.288L328.9 287.719L328.985 287.719C329.227 287.316 329.615 286.985 330.15 286.724C330.69 286.459 331.303 286.327 331.99 286.327C332.861 286.327 333.637 286.53 334.319 286.937C335.006 287.34 335.545 287.899 335.938 288.614C336.336 289.329 336.535 290.148 336.535 291.071C336.535 292.07 336.298 292.955 335.825 293.727C335.356 294.499 334.698 295.105 333.85 295.545C333.008 295.981 332.02 296.199 330.889 296.199ZM344.481 296.355C343.212 296.355 342.118 296.054 341.199 295.453C340.281 294.847 339.573 293.978 339.076 292.847C338.579 291.71 338.332 290.344 338.337 288.749C338.342 287.153 338.59 285.799 339.083 284.686C339.58 283.569 340.286 282.719 341.199 282.136C342.118 281.549 343.212 281.256 344.481 281.256C345.75 281.256 346.843 281.549 347.762 282.136C348.685 282.719 349.395 283.569 349.893 284.686C350.39 285.804 350.636 287.158 350.631 288.749C350.631 290.349 350.383 291.717 349.885 292.854C349.388 293.99 348.68 294.859 347.762 295.46C346.848 296.057 345.754 296.355 344.481 296.355ZM344.481 293.479C345.238 293.479 345.851 293.093 346.32 292.321C346.789 291.545 347.021 290.354 347.016 288.749C347.016 287.697 346.91 286.831 346.697 286.149C346.483 285.463 346.188 284.951 345.809 284.615C345.43 284.279 344.987 284.111 344.481 284.111C343.728 284.111 343.119 284.492 342.655 285.254C342.191 286.012 341.957 287.177 341.952 288.749C341.948 289.814 342.049 290.697 342.258 291.398C342.471 292.098 342.769 292.622 343.153 292.967C343.536 293.308 343.979 293.479 344.481 293.479ZM358.66 296.355C357.391 296.355 356.298 296.054 355.379 295.453C354.461 294.847 353.753 293.978 353.256 292.847C352.758 291.71 352.512 290.344 352.517 288.749C352.522 287.153 352.77 285.799 353.263 284.686C353.76 283.569 354.465 282.719 355.379 282.136C356.298 281.549 357.391 281.256 358.66 281.256C359.929 281.256 361.023 281.549 361.942 282.136C362.865 282.719 363.575 283.569 364.072 284.686C364.569 285.804 364.816 287.158 364.811 288.749C364.811 290.349 364.562 291.717 364.065 292.854C363.568 293.99 362.86 294.859 361.942 295.46C361.028 296.057 359.934 296.355 358.66 296.355ZM358.66 293.479C359.418 293.479 360.031 293.093 360.5 292.321C360.969 291.545 361.201 290.354 361.196 288.749C361.196 287.697 361.089 286.831 360.876 286.149C360.663 285.463 360.367 284.951 359.988 284.615C359.61 284.279 359.167 284.111 358.66 284.111C357.907 284.111 357.299 284.492 356.835 285.254C356.371 286.012 356.137 287.177 356.132 288.749C356.127 289.814 356.229 290.697 356.437 291.398C356.65 292.098 356.949 292.622 357.332 292.967C357.716 293.308 358.158 293.479 358.66 293.479Z" fill="white"/>
<path fill-rule="evenodd" clip-rule="evenodd" d="M253.5 371C266.479 371 277 360.479 277 347.5C277 334.521 266.479 324 253.5 324C240.521 324 230 334.521 230 347.5C230 360.479 240.521 371 253.5 371ZM253.5 365.778C263.595 365.778 271.778 357.595 271.778 347.5C271.778 337.405 263.595 329.222 253.5 329.222C243.405 329.222 235.222 337.405 235.222 347.5C235.222 357.595 243.405 365.778 253.5 365.778Z" fill="#DF4646"/>
<rect x="261.623" y="336.208" width="5.22222" height="27.5037" transform="rotate(44.4354 261.623 336.208)" fill="#DF4646"/>
<rect x="241.958" y="339.97" width="5.22222" height="27.5037" transform="rotate(-46.2496 241.958 339.97)" fill="#DF4646"/>
<path fill-rule="evenodd" clip-rule="evenodd" d="M164.5 228C177.479 228 188 217.479 188 204.5C188 191.521 177.479 181 164.5 181C151.521 181 141 191.521 141 204.5C141 217.479 151.521 228 164.5 228ZM164.5 222.778C174.595 222.778 182.778 214.595 182.778 204.5C182.778 194.405 174.595 186.222 164.5 186.222C154.405 186.222 146.222 194.405 146.222 204.5C146.222 214.595 154.405 222.778 164.5 222.778Z" fill="#DF4646"/>
<rect x="172.623" y="193.208" width="5.22222" height="27.5037" transform="rotate(44.4354 172.623 193.208)" fill="#DF4646"/>
<rect x="152.958" y="196.971" width="5.22222" height="27.5037" transform="rotate(-46.2496 152.958 196.971)" fill="#DF4646"/>
<path fill-rule="evenodd" clip-rule="evenodd" d="M329.5 227C342.479 227 353 216.479 353 203.5C353 190.521 342.479 180 329.5 180C316.521 180 306 190.521 306 203.5C306 216.479 316.521 227 329.5 227ZM329.5 221.778C339.595 221.778 347.778 213.595 347.778 203.5C347.778 193.405 339.595 185.222 329.5 185.222C319.405 185.222 311.222 193.405 311.222 203.5C311.222 213.595 319.405 221.778 329.5 221.778Z" fill="#DF4646"/>
<rect x="337.623" y="192.208" width="5.22222" height="27.5037" transform="rotate(44.4354 337.623 192.208)" fill="#DF4646"/>
<rect x="317.958" y="195.971" width="5.22222" height="27.5037" transform="rotate(-46.2496 317.958 195.971)" fill="#DF4646"/>
</svg>
