<svg width="301" height="271" viewBox="0 0 301 271" fill="none" xmlns="http://www.w3.org/2000/svg">
<path d="M266.38 134.096C266.38 157.344 260.253 180.181 248.617 200.307C236.981 220.433 220.247 237.137 200.1 248.737L134.096 134.096H266.38Z" fill="#E216E7"/>
<path d="M200.124 177.041C199.275 177.041 198.521 176.887 197.862 176.581C197.203 176.274 196.682 175.851 196.3 175.313C195.921 174.776 195.724 174.158 195.709 173.461H198.436C198.459 173.889 198.633 174.234 198.959 174.495C199.285 174.753 199.673 174.882 200.124 174.882C200.476 174.882 200.788 174.804 201.061 174.649C201.334 174.493 201.548 174.276 201.703 173.995C201.858 173.711 201.934 173.385 201.93 173.018C201.934 172.643 201.857 172.315 201.697 172.035C201.542 171.755 201.326 171.537 201.05 171.382C200.777 171.223 200.463 171.143 200.107 171.143C199.769 171.139 199.449 171.213 199.146 171.365C198.847 171.516 198.62 171.723 198.464 171.984L195.982 171.518L196.487 165.245H203.953V167.512H198.8L198.533 170.257H198.601C198.794 169.935 199.105 169.67 199.533 169.461C199.964 169.249 200.455 169.143 201.004 169.143C201.701 169.143 202.322 169.306 202.868 169.632C203.417 169.954 203.849 170.401 204.163 170.973C204.482 171.545 204.641 172.2 204.641 172.938C204.641 173.738 204.451 174.446 204.072 175.063C203.697 175.681 203.171 176.166 202.493 176.518C201.819 176.867 201.029 177.041 200.124 177.041ZM210.997 177.166C209.982 177.166 209.107 176.925 208.372 176.444C207.637 175.959 207.071 175.264 206.673 174.359C206.276 173.45 206.079 172.357 206.082 171.081C206.086 169.804 206.285 168.721 206.679 167.831C207.077 166.937 207.641 166.257 208.372 165.791C209.107 165.321 209.982 165.086 210.997 165.086C212.012 165.086 212.887 165.321 213.622 165.791C214.361 166.257 214.929 166.937 215.327 167.831C215.724 168.724 215.921 169.808 215.918 171.081C215.918 172.361 215.719 173.456 215.321 174.365C214.923 175.274 214.357 175.969 213.622 176.45C212.891 176.927 212.016 177.166 210.997 177.166ZM210.997 174.865C211.603 174.865 212.094 174.556 212.469 173.938C212.844 173.317 213.029 172.365 213.026 171.081C213.026 170.24 212.94 169.546 212.77 169.001C212.599 168.452 212.363 168.043 212.06 167.774C211.757 167.505 211.402 167.37 210.997 167.37C210.395 167.37 209.908 167.675 209.537 168.285C209.166 168.891 208.978 169.823 208.974 171.081C208.971 171.933 209.052 172.639 209.219 173.2C209.389 173.76 209.628 174.179 209.935 174.456C210.241 174.728 210.596 174.865 210.997 174.865ZM222.341 177.166C221.326 177.166 220.451 176.925 219.716 176.444C218.981 175.959 218.415 175.264 218.017 174.359C217.619 173.45 217.422 172.357 217.426 171.081C217.43 169.804 217.629 168.721 218.023 167.831C218.42 166.937 218.985 166.257 219.716 165.791C220.451 165.321 221.326 165.086 222.341 165.086C223.356 165.086 224.231 165.321 224.966 165.791C225.705 166.257 226.273 166.937 226.67 167.831C227.068 168.724 227.265 169.808 227.261 171.081C227.261 172.361 227.063 173.456 226.665 174.365C226.267 175.274 225.701 175.969 224.966 176.45C224.235 176.927 223.36 177.166 222.341 177.166ZM222.341 174.865C222.947 174.865 223.438 174.556 223.813 173.938C224.188 173.317 224.373 172.365 224.369 171.081C224.369 170.24 224.284 169.546 224.114 169.001C223.943 168.452 223.706 168.043 223.403 167.774C223.1 167.505 222.746 167.37 222.341 167.37C221.739 167.37 221.252 167.675 220.881 168.285C220.509 168.891 220.322 169.823 220.318 171.081C220.314 171.933 220.396 172.639 220.563 173.2C220.733 173.76 220.972 174.179 221.278 174.456C221.585 174.728 221.939 174.865 222.341 174.865Z" fill="white"/>
<path d="M202.98 25.3695C222.827 37.4752 239.133 54.5975 250.256 75.0116C261.379 95.4256 266.926 118.411 266.338 141.651L134.096 138.303L202.98 25.3695Z" fill="#16C1E7"/>
<path d="M170.885 98.6693V96.3852H180.72V98.6693H177.191V108.022H174.419V98.6693H170.885ZM181.187 108.022V99.2943H183.886V100.885H183.977C184.136 100.309 184.396 99.8814 184.755 99.6011C185.115 99.317 185.534 99.175 186.011 99.175C186.14 99.175 186.272 99.1844 186.409 99.2034C186.545 99.2185 186.672 99.2431 186.789 99.2772V101.692C186.657 101.647 186.483 101.611 186.267 101.584C186.055 101.558 185.865 101.544 185.699 101.544C185.369 101.544 185.072 101.618 184.806 101.766C184.545 101.91 184.339 102.112 184.187 102.374C184.039 102.631 183.966 102.934 183.966 103.283V108.022H181.187ZM189.886 111.294C189.553 111.294 189.238 111.268 188.943 111.215C188.647 111.165 188.394 111.099 188.181 111.016L188.795 108.999C189.068 109.09 189.314 109.143 189.534 109.158C189.757 109.173 189.949 109.137 190.108 109.05C190.271 108.967 190.396 108.817 190.483 108.601L190.591 108.34L187.488 99.2943H190.397L192.005 105.522H192.096L193.727 99.2943H196.653L193.363 108.857C193.204 109.334 192.979 109.754 192.687 110.118C192.399 110.486 192.026 110.773 191.568 110.982C191.113 111.19 190.553 111.294 189.886 111.294ZM203.673 108.022H200.65L204.576 96.3852H208.321L212.247 108.022H209.224L206.491 99.317H206.4L203.673 108.022ZM203.27 103.442H209.588V105.578H203.27V103.442ZM217.021 111.476C216.191 111.476 215.481 111.361 214.89 111.13C214.299 110.898 213.835 110.582 213.498 110.181C213.161 109.779 212.958 109.325 212.89 108.817L215.521 108.669C215.57 108.847 215.661 109.003 215.794 109.135C215.93 109.268 216.106 109.37 216.322 109.442C216.542 109.514 216.799 109.55 217.095 109.55C217.561 109.55 217.945 109.436 218.248 109.209C218.555 108.986 218.708 108.594 218.708 108.033V106.499H218.612C218.502 106.768 218.335 107.008 218.112 107.22C217.888 107.433 217.61 107.599 217.277 107.72C216.947 107.842 216.568 107.902 216.14 107.902C215.504 107.902 214.921 107.754 214.39 107.459C213.864 107.16 213.441 106.698 213.123 106.073C212.809 105.444 212.652 104.635 212.652 103.647C212.652 102.628 212.815 101.789 213.14 101.129C213.466 100.467 213.892 99.9761 214.419 99.6579C214.949 99.3397 215.519 99.1806 216.129 99.1806C216.587 99.1806 216.979 99.2602 217.305 99.4193C217.635 99.5746 217.905 99.7753 218.118 100.022C218.33 100.268 218.491 100.523 218.601 100.789H218.68V99.2943H221.447V108.056C221.447 108.794 221.262 109.417 220.89 109.925C220.519 110.433 220 110.817 219.333 111.078C218.667 111.344 217.896 111.476 217.021 111.476ZM217.106 105.879C217.443 105.879 217.731 105.79 217.97 105.612C218.208 105.434 218.392 105.179 218.521 104.845C218.65 104.512 218.714 104.112 218.714 103.647C218.714 103.173 218.65 102.766 218.521 102.425C218.396 102.08 218.212 101.815 217.97 101.629C217.731 101.444 217.443 101.351 217.106 101.351C216.762 101.351 216.47 101.446 216.231 101.635C215.993 101.825 215.811 102.092 215.686 102.436C215.565 102.777 215.504 103.181 215.504 103.647C215.504 104.112 215.566 104.512 215.691 104.845C215.816 105.179 215.996 105.434 216.231 105.612C216.47 105.79 216.762 105.879 217.106 105.879ZM225.679 108.169C225.122 108.169 224.628 108.076 224.196 107.891C223.768 107.701 223.429 107.417 223.179 107.039C222.932 106.656 222.809 106.177 222.809 105.601C222.809 105.116 222.895 104.707 223.065 104.374C223.235 104.04 223.47 103.77 223.77 103.561C224.069 103.353 224.413 103.196 224.804 103.09C225.194 102.98 225.61 102.906 226.054 102.868C226.55 102.823 226.949 102.775 227.253 102.726C227.556 102.673 227.775 102.599 227.912 102.504C228.052 102.406 228.122 102.268 228.122 102.09V102.061C228.122 101.77 228.021 101.544 227.821 101.385C227.62 101.226 227.349 101.147 227.008 101.147C226.641 101.147 226.345 101.226 226.122 101.385C225.898 101.544 225.756 101.764 225.696 102.044L223.133 101.953C223.209 101.423 223.404 100.95 223.718 100.533C224.037 100.112 224.472 99.7829 225.025 99.5443C225.582 99.3018 226.251 99.1806 227.031 99.1806C227.588 99.1806 228.101 99.2469 228.571 99.3795C229.04 99.5083 229.449 99.6977 229.798 99.9477C230.146 100.194 230.415 100.497 230.605 100.857C230.798 101.217 230.895 101.628 230.895 102.09V108.022H228.281V106.806H228.213C228.057 107.101 227.859 107.351 227.616 107.556C227.378 107.76 227.095 107.914 226.77 108.016C226.448 108.118 226.084 108.169 225.679 108.169ZM226.537 106.351C226.836 106.351 227.105 106.29 227.343 106.169C227.586 106.048 227.779 105.881 227.923 105.669C228.067 105.453 228.139 105.203 228.139 104.919V104.09C228.059 104.131 227.963 104.169 227.849 104.203C227.739 104.237 227.618 104.27 227.485 104.3C227.353 104.33 227.217 104.357 227.076 104.379C226.936 104.402 226.802 104.423 226.673 104.442C226.412 104.484 226.188 104.548 226.003 104.635C225.821 104.722 225.681 104.836 225.582 104.976C225.487 105.112 225.44 105.275 225.44 105.465C225.44 105.753 225.542 105.972 225.747 106.124C225.955 106.275 226.218 106.351 226.537 106.351ZM232.593 108.022V99.2943H235.372V108.022H232.593ZM233.985 98.2772C233.595 98.2772 233.26 98.1484 232.98 97.8909C232.699 97.6295 232.559 97.3151 232.559 96.9477C232.559 96.584 232.699 96.2734 232.98 96.0159C233.26 95.7545 233.595 95.6238 233.985 95.6238C234.379 95.6238 234.715 95.7545 234.991 96.0159C235.271 96.2734 235.412 96.584 235.412 96.9477C235.412 97.3151 235.271 97.6295 234.991 97.8909C234.715 98.1484 234.379 98.2772 233.985 98.2772ZM239.919 103.044V108.022H237.14V99.2943H239.782V100.897H239.879C240.072 100.362 240.402 99.9439 240.868 99.6409C241.333 99.334 241.888 99.1806 242.532 99.1806C243.146 99.1806 243.678 99.3189 244.129 99.5954C244.583 99.8681 244.936 100.251 245.186 100.743C245.44 101.232 245.565 101.804 245.561 102.459V108.022H242.782V103.004C242.786 102.52 242.663 102.141 242.413 101.868C242.167 101.595 241.824 101.459 241.385 101.459C241.093 101.459 240.835 101.523 240.612 101.652C240.392 101.777 240.222 101.957 240.101 102.192C239.983 102.427 239.922 102.711 239.919 103.044Z" fill="white"/>
<path d="M97.1923 226.725V224.441H107.028V226.725H103.499V236.077H100.726V226.725H97.1923ZM107.495 236.077V227.35H110.194V228.941H110.285C110.444 228.365 110.703 227.937 111.063 227.657C111.423 227.373 111.841 227.231 112.319 227.231C112.448 227.231 112.58 227.24 112.716 227.259C112.853 227.274 112.98 227.299 113.097 227.333V229.748C112.965 229.702 112.79 229.666 112.574 229.64C112.362 229.613 112.173 229.6 112.006 229.6C111.677 229.6 111.379 229.674 111.114 229.822C110.853 229.965 110.646 230.168 110.495 230.429C110.347 230.687 110.273 230.99 110.273 231.339V236.077H107.495ZM116.194 239.35C115.86 239.35 115.546 239.323 115.251 239.27C114.955 239.221 114.701 239.155 114.489 239.072L115.103 237.054C115.376 237.145 115.622 237.198 115.841 237.214C116.065 237.229 116.256 237.193 116.415 237.106C116.578 237.022 116.703 236.873 116.79 236.657L116.898 236.395L113.796 227.35H116.705L118.313 233.577H118.404L120.035 227.35H122.961L119.671 236.912C119.512 237.39 119.287 237.81 118.995 238.174C118.707 238.541 118.334 238.829 117.876 239.037C117.421 239.246 116.86 239.35 116.194 239.35ZM129.981 236.077H126.958L130.884 224.441H134.628L138.555 236.077H135.532L132.799 227.373H132.708L129.981 236.077ZM129.577 231.498H135.895V233.634H129.577V231.498ZM143.329 239.532C142.499 239.532 141.789 239.416 141.198 239.185C140.607 238.954 140.143 238.638 139.806 238.236C139.469 237.835 139.266 237.38 139.198 236.873L141.829 236.725C141.878 236.903 141.969 237.058 142.101 237.191C142.238 237.323 142.414 237.426 142.63 237.498C142.849 237.57 143.107 237.606 143.403 237.606C143.868 237.606 144.253 237.492 144.556 237.265C144.863 237.041 145.016 236.649 145.016 236.089V234.554H144.92C144.81 234.823 144.643 235.064 144.42 235.276C144.196 235.488 143.918 235.655 143.584 235.776C143.255 235.897 142.876 235.958 142.448 235.958C141.812 235.958 141.228 235.81 140.698 235.515C140.171 235.215 139.749 234.753 139.431 234.128C139.117 233.5 138.959 232.691 138.959 231.702C138.959 230.683 139.122 229.844 139.448 229.185C139.774 228.522 140.2 228.032 140.726 227.714C141.257 227.395 141.827 227.236 142.437 227.236C142.895 227.236 143.287 227.316 143.613 227.475C143.942 227.63 144.213 227.831 144.425 228.077C144.637 228.323 144.798 228.579 144.908 228.844H144.988V227.35H147.755V236.111C147.755 236.85 147.569 237.473 147.198 237.981C146.827 238.488 146.308 238.873 145.641 239.134C144.974 239.399 144.204 239.532 143.329 239.532ZM143.414 233.935C143.751 233.935 144.039 233.846 144.278 233.668C144.516 233.49 144.7 233.234 144.829 232.901C144.957 232.568 145.022 232.168 145.022 231.702C145.022 231.229 144.957 230.822 144.829 230.481C144.704 230.136 144.52 229.871 144.278 229.685C144.039 229.5 143.751 229.407 143.414 229.407C143.069 229.407 142.778 229.501 142.539 229.691C142.3 229.88 142.118 230.147 141.993 230.492C141.872 230.833 141.812 231.236 141.812 231.702C141.812 232.168 141.874 232.568 141.999 232.901C142.124 233.234 142.304 233.49 142.539 233.668C142.778 233.846 143.069 233.935 143.414 233.935ZM151.986 236.225C151.43 236.225 150.935 236.132 150.503 235.947C150.075 235.757 149.736 235.473 149.486 235.094C149.24 234.712 149.117 234.233 149.117 233.657C149.117 233.172 149.202 232.763 149.373 232.429C149.543 232.096 149.778 231.825 150.077 231.617C150.376 231.409 150.721 231.251 151.111 231.145C151.501 231.036 151.918 230.962 152.361 230.924C152.858 230.878 153.257 230.831 153.56 230.782C153.863 230.729 154.083 230.655 154.219 230.56C154.359 230.462 154.43 230.323 154.43 230.145V230.117C154.43 229.825 154.329 229.6 154.128 229.441C153.928 229.282 153.657 229.202 153.316 229.202C152.948 229.202 152.653 229.282 152.43 229.441C152.206 229.6 152.064 229.82 152.003 230.1L149.441 230.009C149.517 229.479 149.712 229.005 150.026 228.589C150.344 228.168 150.78 227.839 151.333 227.6C151.89 227.358 152.558 227.236 153.339 227.236C153.895 227.236 154.409 227.303 154.878 227.435C155.348 227.564 155.757 227.753 156.106 228.003C156.454 228.25 156.723 228.553 156.912 228.912C157.106 229.272 157.202 229.683 157.202 230.145V236.077H154.589V234.861H154.52C154.365 235.157 154.166 235.407 153.924 235.611C153.685 235.816 153.403 235.969 153.077 236.072C152.755 236.174 152.392 236.225 151.986 236.225ZM152.844 234.407C153.144 234.407 153.412 234.346 153.651 234.225C153.894 234.104 154.087 233.937 154.231 233.725C154.375 233.509 154.447 233.259 154.447 232.975V232.145C154.367 232.187 154.27 232.225 154.157 232.259C154.047 232.293 153.926 232.325 153.793 232.356C153.661 232.386 153.524 232.412 153.384 232.435C153.244 232.458 153.109 232.479 152.981 232.498C152.719 232.539 152.496 232.604 152.31 232.691C152.128 232.778 151.988 232.892 151.89 233.032C151.795 233.168 151.748 233.331 151.748 233.52C151.748 233.808 151.85 234.028 152.055 234.179C152.263 234.331 152.526 234.407 152.844 234.407ZM158.901 236.077V227.35H161.68V236.077H158.901ZM160.293 226.333C159.903 226.333 159.568 226.204 159.287 225.947C159.007 225.685 158.867 225.371 158.867 225.003C158.867 224.64 159.007 224.329 159.287 224.072C159.568 223.81 159.903 223.679 160.293 223.679C160.687 223.679 161.022 223.81 161.299 224.072C161.579 224.329 161.719 224.64 161.719 225.003C161.719 225.371 161.579 225.685 161.299 225.947C161.022 226.204 160.687 226.333 160.293 226.333ZM166.226 231.1V236.077H163.448V227.35H166.09V228.952H166.187C166.38 228.418 166.709 228 167.175 227.697C167.641 227.39 168.196 227.236 168.84 227.236C169.454 227.236 169.986 227.375 170.437 227.651C170.891 227.924 171.243 228.306 171.493 228.799C171.747 229.287 171.872 229.859 171.868 230.515V236.077H169.09V231.06C169.094 230.575 168.971 230.197 168.721 229.924C168.474 229.651 168.132 229.515 167.692 229.515C167.401 229.515 167.143 229.579 166.92 229.708C166.7 229.833 166.529 230.013 166.408 230.248C166.291 230.483 166.23 230.767 166.226 231.1Z" fill="white"/>
<path d="M199.831 248.733C178.985 260.695 155.273 266.751 131.243 266.251C107.213 265.751 83.774 258.713 63.4429 245.894L133.995 133.995L199.831 248.733Z" fill="#D6E716"/>
<path d="M67.6593 23.6397C88.4223 11.5331 112.092 5.31204 136.124 5.64491C160.157 5.97779 183.644 12.852 204.064 25.529L134.292 137.916L67.6593 23.6397Z" fill="#4C16E7"/>
<path d="M66.5794 250.512C46.9843 238.741 30.774 222.092 19.529 202.191C8.28402 182.289 2.38811 159.813 2.41618 136.954L134.7 137.116L66.5794 250.512Z" fill="#F71782"/>
<path d="M2.41608 137.116C2.41608 114.257 8.33957 91.7884 19.609 71.9004C30.8784 52.0125 47.1091 35.3842 66.7186 23.6368L134.7 137.116L2.41608 137.116Z" fill="#16E71E"/>
<path d="M125.618 46.8542V58.4906H122.812V49.4792H122.743L120.141 51.0701V48.6383L123.01 46.8542H125.618ZM133.003 58.7747C131.988 58.7747 131.113 58.5342 130.378 58.0531C129.643 57.5683 129.077 56.8732 128.679 55.9679C128.282 55.0588 128.085 53.966 128.089 52.6895C128.092 51.4129 128.291 50.3296 128.685 49.4395C129.083 48.5455 129.647 47.8656 130.378 47.3997C131.113 46.93 131.988 46.6951 133.003 46.6951C134.018 46.6951 134.893 46.93 135.628 47.3997C136.367 47.8656 136.935 48.5455 137.333 49.4395C137.731 50.3334 137.928 51.4167 137.924 52.6895C137.924 53.9698 137.725 55.0645 137.327 55.9736C136.929 56.8826 136.363 57.5777 135.628 58.0588C134.897 58.5361 134.022 58.7747 133.003 58.7747ZM133.003 56.4736C133.609 56.4736 134.1 56.1648 134.475 55.5474C134.85 54.9262 135.035 53.9736 135.032 52.6895C135.032 51.8486 134.946 51.1554 134.776 50.6099C134.606 50.0607 134.369 49.6516 134.066 49.3826C133.763 49.1137 133.409 48.9792 133.003 48.9792C132.401 48.9792 131.914 49.2842 131.543 49.894C131.172 50.5001 130.984 51.4319 130.981 52.6895C130.977 53.5417 131.058 54.2482 131.225 54.8088C131.395 55.3694 131.634 55.7879 131.941 56.0645C132.248 56.3372 132.602 56.4736 133.003 56.4736ZM144.347 58.7747C143.332 58.7747 142.457 58.5342 141.722 58.0531C140.987 57.5683 140.421 56.8732 140.023 55.9679C139.625 55.0588 139.428 53.966 139.432 52.6895C139.436 51.4129 139.635 50.3296 140.029 49.4395C140.427 48.5455 140.991 47.8656 141.722 47.3997C142.457 46.93 143.332 46.6951 144.347 46.6951C145.362 46.6951 146.237 46.93 146.972 47.3997C147.711 47.8656 148.279 48.5455 148.677 49.4395C149.074 50.3334 149.271 51.4167 149.268 52.6895C149.268 53.9698 149.069 55.0645 148.671 55.9736C148.273 56.8826 147.707 57.5777 146.972 58.0588C146.241 58.5361 145.366 58.7747 144.347 58.7747ZM144.347 56.4736C144.953 56.4736 145.444 56.1648 145.819 55.5474C146.194 54.9262 146.379 53.9736 146.375 52.6895C146.375 51.8486 146.29 51.1554 146.12 50.6099C145.949 50.0607 145.713 49.6516 145.41 49.3826C145.107 49.1137 144.752 48.9792 144.347 48.9792C143.745 48.9792 143.258 49.2842 142.887 49.894C142.516 50.5001 142.328 51.4319 142.324 52.6895C142.321 53.5417 142.402 54.2482 142.569 54.8088C142.739 55.3694 142.978 55.7879 143.285 56.0645C143.591 56.3372 143.946 56.4736 144.347 56.4736Z" fill="white"/>
<path d="M25.916 98.6693V96.3852H35.7512V98.6693H32.2228V108.022H29.4501V98.6693H25.916ZM36.2185 108.022V99.2943H38.9174V100.885H39.0083C39.1674 100.309 39.4269 99.8814 39.7867 99.6011C40.1466 99.317 40.5651 99.175 41.0424 99.175C41.1712 99.175 41.3038 99.1844 41.4401 99.2034C41.5765 99.2185 41.7034 99.2431 41.8208 99.2772V101.692C41.6882 101.647 41.514 101.611 41.2981 101.584C41.086 101.558 40.8966 101.544 40.7299 101.544C40.4004 101.544 40.103 101.618 39.8379 101.766C39.5765 101.91 39.3701 102.112 39.2185 102.374C39.0708 102.631 38.997 102.934 38.997 103.283V108.022H36.2185ZM44.9174 111.294C44.5841 111.294 44.2697 111.268 43.9742 111.215C43.6788 111.165 43.425 111.099 43.2129 111.016L43.8265 108.999C44.0992 109.09 44.3454 109.143 44.5651 109.158C44.7886 109.173 44.9799 109.137 45.139 109.05C45.3019 108.967 45.4269 108.817 45.514 108.601L45.622 108.34L42.5197 99.2943H45.4288L47.0367 105.522H47.1276L48.7583 99.2943H51.6845L48.3947 108.857C48.2356 109.334 48.0102 109.754 47.7185 110.118C47.4307 110.486 47.0576 110.773 46.5992 110.982C46.1447 111.19 45.5841 111.294 44.9174 111.294ZM58.7043 108.022H55.6816L59.6078 96.3852H63.3521L67.2782 108.022H64.2555L61.5225 99.317H61.4316L58.7043 108.022ZM58.3009 103.442H64.6191V105.578H58.3009V103.442ZM72.0524 111.476C71.2228 111.476 70.5126 111.361 69.9217 111.13C69.3308 110.898 68.8667 110.582 68.5296 110.181C68.1925 109.779 67.9899 109.325 67.9217 108.817L70.5524 108.669C70.6016 108.847 70.6925 109.003 70.8251 109.135C70.9614 109.268 71.1376 109.37 71.3535 109.442C71.5732 109.514 71.8308 109.55 72.1262 109.55C72.5921 109.55 72.9766 109.436 73.2796 109.209C73.5864 108.986 73.7399 108.594 73.7399 108.033V106.499H73.6433C73.5334 106.768 73.3667 107.008 73.1433 107.22C72.9198 107.433 72.6414 107.599 72.308 107.72C71.9785 107.842 71.5997 107.902 71.1717 107.902C70.5353 107.902 69.952 107.754 69.4217 107.459C68.8952 107.16 68.4728 106.698 68.1546 106.073C67.8402 105.444 67.683 104.635 67.683 103.647C67.683 102.628 67.8459 101.789 68.1717 101.129C68.4974 100.467 68.9236 99.9761 69.4501 99.6579C69.9804 99.3397 70.5505 99.1806 71.1603 99.1806C71.6186 99.1806 72.0107 99.2602 72.3364 99.4193C72.666 99.5746 72.9368 99.7753 73.1489 100.022C73.3611 100.268 73.522 100.523 73.6319 100.789H73.7114V99.2943H76.4785V108.056C76.4785 108.794 76.2929 109.417 75.9217 109.925C75.5505 110.433 75.0315 110.817 74.3649 111.078C73.6982 111.344 72.9274 111.476 72.0524 111.476ZM72.1376 105.879C72.4747 105.879 72.7626 105.79 73.0012 105.612C73.2399 105.434 73.4236 105.179 73.5524 104.845C73.6811 104.512 73.7455 104.112 73.7455 103.647C73.7455 103.173 73.6811 102.766 73.5524 102.425C73.4274 102.08 73.2436 101.815 73.0012 101.629C72.7626 101.444 72.4747 101.351 72.1376 101.351C71.7929 101.351 71.5012 101.446 71.2626 101.635C71.0239 101.825 70.8421 102.092 70.7171 102.436C70.5959 102.777 70.5353 103.181 70.5353 103.647C70.5353 104.112 70.5978 104.512 70.7228 104.845C70.8478 105.179 71.0277 105.434 71.2626 105.612C71.5012 105.79 71.7929 105.879 72.1376 105.879ZM80.71 108.169C80.1532 108.169 79.6589 108.076 79.2271 107.891C78.799 107.701 78.46 107.417 78.21 107.039C77.9638 106.656 77.8407 106.177 77.8407 105.601C77.8407 105.116 77.9259 104.707 78.0964 104.374C78.2668 104.04 78.5017 103.77 78.8009 103.561C79.1002 103.353 79.4449 103.196 79.835 103.09C80.2252 102.98 80.6418 102.906 81.085 102.868C81.5812 102.823 81.9809 102.775 82.2839 102.726C82.5869 102.673 82.8066 102.599 82.943 102.504C83.0831 102.406 83.1532 102.268 83.1532 102.09V102.061C83.1532 101.77 83.0528 101.544 82.8521 101.385C82.6513 101.226 82.3805 101.147 82.0396 101.147C81.6721 101.147 81.3767 101.226 81.1532 101.385C80.9297 101.544 80.7877 101.764 80.7271 102.044L78.1646 101.953C78.2403 101.423 78.4354 100.95 78.7498 100.533C79.068 100.112 79.5036 99.7829 80.0566 99.5443C80.6134 99.3018 81.282 99.1806 82.0623 99.1806C82.6191 99.1806 83.1324 99.2469 83.6021 99.3795C84.0718 99.5083 84.4809 99.6977 84.8293 99.9477C85.1778 100.194 85.4468 100.497 85.6362 100.857C85.8293 101.217 85.9259 101.628 85.9259 102.09V108.022H83.3123V106.806H83.2441C83.0888 107.101 82.8899 107.351 82.6475 107.556C82.4089 107.76 82.1267 107.914 81.8009 108.016C81.479 108.118 81.1153 108.169 80.71 108.169ZM81.568 106.351C81.8672 106.351 82.1362 106.29 82.3748 106.169C82.6172 106.048 82.8104 105.881 82.9543 105.669C83.0983 105.453 83.1703 105.203 83.1703 104.919V104.09C83.0907 104.131 82.9941 104.169 82.8805 104.203C82.7706 104.237 82.6494 104.27 82.5168 104.3C82.3843 104.33 82.2479 104.357 82.1078 104.379C81.9676 104.402 81.8331 104.423 81.7043 104.442C81.443 104.484 81.2195 104.548 81.0339 104.635C80.8521 104.722 80.7119 104.836 80.6134 104.976C80.5187 105.112 80.4714 105.275 80.4714 105.465C80.4714 105.753 80.5737 105.972 80.7782 106.124C80.9865 106.275 81.2498 106.351 81.568 106.351ZM87.6248 108.022V99.2943H90.4032V108.022H87.6248ZM89.0168 98.2772C88.6267 98.2772 88.2915 98.1484 88.0112 97.8909C87.7309 97.6295 87.5907 97.3151 87.5907 96.9477C87.5907 96.584 87.7309 96.2734 88.0112 96.0159C88.2915 95.7545 88.6267 95.6238 89.0168 95.6238C89.4108 95.6238 89.746 95.7545 90.0225 96.0159C90.3028 96.2734 90.443 96.584 90.443 96.9477C90.443 97.3151 90.3028 97.6295 90.0225 97.8909C89.746 98.1484 89.4108 98.2772 89.0168 98.2772ZM94.9501 103.044V108.022H92.1717V99.2943H94.8137V100.897H94.9103C95.1035 100.362 95.433 99.9439 95.8989 99.6409C96.3648 99.334 96.9198 99.1806 97.5637 99.1806C98.1773 99.1806 98.7095 99.3189 99.1603 99.5954C99.6148 99.8681 99.9671 100.251 100.217 100.743C100.471 101.232 100.596 101.804 100.592 102.459V108.022H97.8137V103.004C97.8175 102.52 97.6944 102.141 97.4444 101.868C97.1982 101.595 96.8554 101.459 96.416 101.459C96.1243 101.459 95.8667 101.523 95.6433 101.652C95.4236 101.777 95.2531 101.957 95.1319 102.192C95.0145 102.427 94.9539 102.711 94.9501 103.044Z" fill="white"/>
<path d="M97.1923 215.852V213.568H107.028V215.852H103.499V225.205H100.726V215.852H97.1923ZM107.495 225.205V216.477H110.194V218.068H110.285C110.444 217.492 110.703 217.064 111.063 216.784C111.423 216.5 111.841 216.358 112.319 216.358C112.448 216.358 112.58 216.367 112.716 216.386C112.853 216.402 112.98 216.426 113.097 216.46V218.875C112.965 218.83 112.79 218.794 112.574 218.767C112.362 218.741 112.173 218.727 112.006 218.727C111.677 218.727 111.379 218.801 111.114 218.949C110.853 219.093 110.646 219.295 110.495 219.557C110.347 219.814 110.273 220.117 110.273 220.466V225.205H107.495ZM116.194 228.477C115.86 228.477 115.546 228.451 115.251 228.398C114.955 228.348 114.701 228.282 114.489 228.199L115.103 226.182C115.376 226.273 115.622 226.326 115.841 226.341C116.065 226.356 116.256 226.32 116.415 226.233C116.578 226.15 116.703 226 116.79 225.784L116.898 225.523L113.796 216.477H116.705L118.313 222.705H118.404L120.035 216.477H122.961L119.671 226.04C119.512 226.517 119.287 226.937 118.995 227.301C118.707 227.669 118.334 227.956 117.876 228.165C117.421 228.373 116.86 228.477 116.194 228.477ZM129.981 225.205H126.958L130.884 213.568H134.628L138.555 225.205H135.532L132.799 216.5H132.708L129.981 225.205ZM129.577 220.625H135.895V222.761H129.577V220.625ZM143.329 228.659C142.499 228.659 141.789 228.544 141.198 228.312C140.607 228.081 140.143 227.765 139.806 227.364C139.469 226.962 139.266 226.508 139.198 226L141.829 225.852C141.878 226.03 141.969 226.186 142.101 226.318C142.238 226.451 142.414 226.553 142.63 226.625C142.849 226.697 143.107 226.733 143.403 226.733C143.868 226.733 144.253 226.619 144.556 226.392C144.863 226.169 145.016 225.777 145.016 225.216V223.682H144.92C144.81 223.951 144.643 224.191 144.42 224.403C144.196 224.616 143.918 224.782 143.584 224.903C143.255 225.025 142.876 225.085 142.448 225.085C141.812 225.085 141.228 224.937 140.698 224.642C140.171 224.343 139.749 223.881 139.431 223.256C139.117 222.627 138.959 221.818 138.959 220.83C138.959 219.811 139.122 218.972 139.448 218.312C139.774 217.65 140.2 217.159 140.726 216.841C141.257 216.523 141.827 216.364 142.437 216.364C142.895 216.364 143.287 216.443 143.613 216.602C143.942 216.758 144.213 216.958 144.425 217.205C144.637 217.451 144.798 217.706 144.908 217.972H144.988V216.477H147.755V225.239C147.755 225.977 147.569 226.6 147.198 227.108C146.827 227.616 146.308 228 145.641 228.261C144.974 228.527 144.204 228.659 143.329 228.659ZM143.414 223.062C143.751 223.062 144.039 222.973 144.278 222.795C144.516 222.617 144.7 222.362 144.829 222.028C144.957 221.695 145.022 221.295 145.022 220.83C145.022 220.356 144.957 219.949 144.829 219.608C144.704 219.263 144.52 218.998 144.278 218.812C144.039 218.627 143.751 218.534 143.414 218.534C143.069 218.534 142.778 218.629 142.539 218.818C142.3 219.008 142.118 219.275 141.993 219.619C141.872 219.96 141.812 220.364 141.812 220.83C141.812 221.295 141.874 221.695 141.999 222.028C142.124 222.362 142.304 222.617 142.539 222.795C142.778 222.973 143.069 223.062 143.414 223.062ZM151.986 225.352C151.43 225.352 150.935 225.259 150.503 225.074C150.075 224.884 149.736 224.6 149.486 224.222C149.24 223.839 149.117 223.36 149.117 222.784C149.117 222.299 149.202 221.89 149.373 221.557C149.543 221.223 149.778 220.953 150.077 220.744C150.376 220.536 150.721 220.379 151.111 220.273C151.501 220.163 151.918 220.089 152.361 220.051C152.858 220.006 153.257 219.958 153.56 219.909C153.863 219.856 154.083 219.782 154.219 219.687C154.359 219.589 154.43 219.451 154.43 219.273V219.244C154.43 218.953 154.329 218.727 154.128 218.568C153.928 218.409 153.657 218.33 153.316 218.33C152.948 218.33 152.653 218.409 152.43 218.568C152.206 218.727 152.064 218.947 152.003 219.227L149.441 219.136C149.517 218.606 149.712 218.133 150.026 217.716C150.344 217.295 150.78 216.966 151.333 216.727C151.89 216.485 152.558 216.364 153.339 216.364C153.895 216.364 154.409 216.43 154.878 216.562C155.348 216.691 155.757 216.881 156.106 217.131C156.454 217.377 156.723 217.68 156.912 218.04C157.106 218.4 157.202 218.811 157.202 219.273V225.205H154.589V223.989H154.52C154.365 224.284 154.166 224.534 153.924 224.739C153.685 224.943 153.403 225.097 153.077 225.199C152.755 225.301 152.392 225.352 151.986 225.352ZM152.844 223.534C153.144 223.534 153.412 223.473 153.651 223.352C153.894 223.231 154.087 223.064 154.231 222.852C154.375 222.636 154.447 222.386 154.447 222.102V221.273C154.367 221.314 154.27 221.352 154.157 221.386C154.047 221.42 153.926 221.453 153.793 221.483C153.661 221.513 153.524 221.54 153.384 221.562C153.244 221.585 153.109 221.606 152.981 221.625C152.719 221.667 152.496 221.731 152.31 221.818C152.128 221.905 151.988 222.019 151.89 222.159C151.795 222.295 151.748 222.458 151.748 222.648C151.748 222.936 151.85 223.155 152.055 223.307C152.263 223.458 152.526 223.534 152.844 223.534ZM158.901 225.205V216.477H161.68V225.205H158.901ZM160.293 215.46C159.903 215.46 159.568 215.331 159.287 215.074C159.007 214.812 158.867 214.498 158.867 214.131C158.867 213.767 159.007 213.456 159.287 213.199C159.568 212.937 159.903 212.807 160.293 212.807C160.687 212.807 161.022 212.937 161.299 213.199C161.579 213.456 161.719 213.767 161.719 214.131C161.719 214.498 161.579 214.812 161.299 215.074C161.022 215.331 160.687 215.46 160.293 215.46ZM166.226 220.227V225.205H163.448V216.477H166.09V218.08H166.187C166.38 217.545 166.709 217.127 167.175 216.824C167.641 216.517 168.196 216.364 168.84 216.364C169.454 216.364 169.986 216.502 170.437 216.778C170.891 217.051 171.243 217.434 171.493 217.926C171.747 218.415 171.872 218.987 171.868 219.642V225.205H169.09V220.187C169.094 219.703 168.971 219.324 168.721 219.051C168.474 218.778 168.132 218.642 167.692 218.642C167.401 218.642 167.143 218.706 166.92 218.835C166.7 218.96 166.529 219.14 166.408 219.375C166.291 219.61 166.23 219.894 166.226 220.227Z" fill="#F5F5F5"/>
<path d="M36.9638 176.882V174.859L41.2081 171.143C41.5263 170.855 41.7971 170.592 42.0206 170.353C42.2441 170.111 42.4146 169.868 42.532 169.626C42.6494 169.38 42.7081 169.113 42.7081 168.825C42.7081 168.503 42.6381 168.228 42.4979 168.001C42.3578 167.77 42.1646 167.592 41.9184 167.467C41.6721 167.342 41.39 167.279 41.0718 167.279C40.7498 167.279 40.4676 167.346 40.2252 167.478C39.9828 167.607 39.7934 167.795 39.657 168.041C39.5244 168.287 39.4581 168.586 39.4581 168.938H36.7934C36.7934 168.147 36.9714 167.463 37.3275 166.887C37.6835 166.312 38.1835 165.868 38.8275 165.558C39.4752 165.243 40.2271 165.086 41.0831 165.086C41.9657 165.086 42.7328 165.234 43.3843 165.529C44.0358 165.825 44.5396 166.238 44.8956 166.768C45.2555 167.295 45.4354 167.906 45.4354 168.603C45.4354 169.046 45.3464 169.486 45.1684 169.921C44.9903 170.357 44.6703 170.838 44.2081 171.365C43.7498 171.891 43.0983 172.522 42.2536 173.257L40.8615 174.541V174.615H45.5775V176.882H36.9638ZM51.9794 177.166C50.9643 177.166 50.0893 176.925 49.3544 176.444C48.6196 175.959 48.0533 175.264 47.6556 174.359C47.2578 173.45 47.0609 172.357 47.0647 171.081C47.0685 169.804 47.2673 168.721 47.6613 167.831C48.059 166.937 48.6234 166.257 49.3544 165.791C50.0893 165.321 50.9643 165.086 51.9794 165.086C52.9946 165.086 53.8696 165.321 54.6044 165.791C55.3431 166.257 55.9113 166.937 56.309 167.831C56.7067 168.724 56.9037 169.808 56.8999 171.081C56.8999 172.361 56.701 173.456 56.3033 174.365C55.9056 175.274 55.3393 175.969 54.6044 176.45C53.8734 176.927 52.9984 177.166 51.9794 177.166ZM51.9794 174.865C52.5855 174.865 53.076 174.556 53.451 173.938C53.826 173.317 54.0116 172.365 54.0078 171.081C54.0078 170.24 53.9226 169.546 53.7522 169.001C53.5817 168.452 53.345 168.043 53.0419 167.774C52.7389 167.505 52.3847 167.37 51.9794 167.37C51.3772 167.37 50.8904 167.675 50.5192 168.285C50.148 168.891 49.9605 169.823 49.9567 171.081C49.9529 171.933 50.0344 172.639 50.201 173.2C50.3715 173.76 50.6101 174.179 50.9169 174.456C51.2238 174.728 51.5779 174.865 51.9794 174.865ZM63.3232 177.166C62.308 177.166 61.433 176.925 60.6982 176.444C59.9633 175.959 59.3971 175.264 58.9993 174.359C58.6016 173.45 58.4046 172.357 58.4084 171.081C58.4122 169.804 58.6111 168.721 59.005 167.831C59.4027 166.937 59.9671 166.257 60.6982 165.791C61.433 165.321 62.308 165.086 63.3232 165.086C64.3383 165.086 65.2133 165.321 65.9482 165.791C66.6868 166.257 67.255 166.937 67.6527 167.831C68.0505 168.724 68.2474 169.808 68.2436 171.081C68.2436 172.361 68.0448 173.456 67.6471 174.365C67.2493 175.274 66.683 175.969 65.9482 176.45C65.2171 176.927 64.3421 177.166 63.3232 177.166ZM63.3232 174.865C63.9292 174.865 64.4198 174.556 64.7948 173.938C65.1698 173.317 65.3554 172.365 65.3516 171.081C65.3516 170.24 65.2664 169.546 65.0959 169.001C64.9255 168.452 64.6887 168.043 64.3857 167.774C64.0827 167.505 63.7285 167.37 63.3232 167.37C62.7209 167.37 62.2342 167.675 61.863 168.285C61.4918 168.891 61.3043 169.823 61.3005 171.081C61.2967 171.933 61.3781 172.639 61.5448 173.2C61.7152 173.76 61.9539 174.179 62.2607 174.456C62.5675 174.728 62.9217 174.865 63.3232 174.865Z" fill="white"/>
</svg>
