<svg width="301" height="271" viewBox="0 0 301 271" fill="none" xmlns="http://www.w3.org/2000/svg">
<path d="M266.38 134.096C266.38 157.344 260.253 180.181 248.617 200.307C236.981 220.433 220.247 237.137 200.1 248.737L134.096 134.096H266.38Z" fill="#E216E7"/>
<path d="M179.248 177.159C178.4 177.159 177.646 177.006 176.987 176.699C176.328 176.392 175.807 175.97 175.424 175.432C175.046 174.894 174.849 174.277 174.833 173.58H177.561C177.583 174.008 177.758 174.352 178.083 174.614C178.409 174.871 178.797 175 179.248 175C179.6 175 179.913 174.922 180.186 174.767C180.458 174.612 180.672 174.394 180.828 174.114C180.983 173.83 181.059 173.504 181.055 173.136C181.059 172.761 180.981 172.434 180.822 172.153C180.667 171.873 180.451 171.655 180.174 171.5C179.902 171.341 179.587 171.261 179.231 171.261C178.894 171.258 178.574 171.331 178.271 171.483C177.972 171.634 177.744 171.841 177.589 172.102L175.106 171.636L175.612 165.364H183.078V167.631H177.924L177.657 170.375H177.725C177.919 170.053 178.229 169.788 178.657 169.58C179.089 169.367 179.58 169.261 180.129 169.261C180.826 169.261 181.447 169.424 181.992 169.75C182.542 170.072 182.974 170.519 183.288 171.091C183.606 171.663 183.765 172.318 183.765 173.057C183.765 173.856 183.576 174.564 183.197 175.182C182.822 175.799 182.296 176.284 181.617 176.636C180.943 176.985 180.153 177.159 179.248 177.159ZM190.122 177.284C189.107 177.284 188.232 177.044 187.497 176.562C186.762 176.078 186.196 175.383 185.798 174.477C185.4 173.568 185.203 172.475 185.207 171.199C185.211 169.922 185.41 168.839 185.804 167.949C186.201 167.055 186.766 166.375 187.497 165.909C188.232 165.439 189.107 165.205 190.122 165.205C191.137 165.205 192.012 165.439 192.747 165.909C193.485 166.375 194.054 167.055 194.451 167.949C194.849 168.843 195.046 169.926 195.042 171.199C195.042 172.479 194.843 173.574 194.446 174.483C194.048 175.392 193.482 176.087 192.747 176.568C192.016 177.045 191.141 177.284 190.122 177.284ZM190.122 174.983C190.728 174.983 191.218 174.674 191.593 174.057C191.968 173.436 192.154 172.483 192.15 171.199C192.15 170.358 192.065 169.665 191.894 169.119C191.724 168.57 191.487 168.161 191.184 167.892C190.881 167.623 190.527 167.489 190.122 167.489C189.519 167.489 189.033 167.794 188.662 168.403C188.29 169.009 188.103 169.941 188.099 171.199C188.095 172.051 188.177 172.758 188.343 173.318C188.514 173.879 188.752 174.297 189.059 174.574C189.366 174.847 189.72 174.983 190.122 174.983ZM201.465 177.284C200.45 177.284 199.575 177.044 198.84 176.562C198.106 176.078 197.539 175.383 197.142 174.477C196.744 173.568 196.547 172.475 196.551 171.199C196.555 169.922 196.753 168.839 197.147 167.949C197.545 167.055 198.109 166.375 198.84 165.909C199.575 165.439 200.45 165.205 201.465 165.205C202.481 165.205 203.356 165.439 204.09 165.909C204.829 166.375 205.397 167.055 205.795 167.949C206.193 168.843 206.39 169.926 206.386 171.199C206.386 172.479 206.187 173.574 205.789 174.483C205.392 175.392 204.825 176.087 204.09 176.568C203.359 177.045 202.484 177.284 201.465 177.284ZM201.465 174.983C202.072 174.983 202.562 174.674 202.937 174.057C203.312 173.436 203.498 172.483 203.494 171.199C203.494 170.358 203.409 169.665 203.238 169.119C203.068 168.57 202.831 168.161 202.528 167.892C202.225 167.623 201.871 167.489 201.465 167.489C200.863 167.489 200.376 167.794 200.005 168.403C199.634 169.009 199.447 169.941 199.443 171.199C199.439 172.051 199.52 172.758 199.687 173.318C199.858 173.879 200.096 174.297 200.403 174.574C200.71 174.847 201.064 174.983 201.465 174.983Z" fill="white"/>
<path d="M202.98 25.3695C222.827 37.4752 239.133 54.5975 250.256 75.0116C261.379 95.4256 266.926 118.411 266.338 141.651L134.096 138.303L202.98 25.3695Z" fill="#16C1E7"/>
<path d="M156.003 113.648V111.364H165.838V113.648H162.31V123H159.537V113.648H156.003ZM166.306 123V114.273H169.004V115.864H169.095C169.254 115.288 169.514 114.86 169.874 114.58C170.234 114.295 170.652 114.153 171.129 114.153C171.258 114.153 171.391 114.163 171.527 114.182C171.663 114.197 171.79 114.222 171.908 114.256V116.67C171.775 116.625 171.601 116.589 171.385 116.562C171.173 116.536 170.984 116.523 170.817 116.523C170.487 116.523 170.19 116.597 169.925 116.744C169.663 116.888 169.457 117.091 169.306 117.352C169.158 117.61 169.084 117.913 169.084 118.261V123H166.306ZM175.004 126.273C174.671 126.273 174.357 126.246 174.061 126.193C173.766 126.144 173.512 126.078 173.3 125.994L173.913 123.977C174.186 124.068 174.432 124.121 174.652 124.136C174.876 124.152 175.067 124.116 175.226 124.028C175.389 123.945 175.514 123.795 175.601 123.58L175.709 123.318L172.607 114.273H175.516L177.124 120.5H177.215L178.845 114.273H181.771L178.482 123.835C178.323 124.313 178.097 124.733 177.806 125.097C177.518 125.464 177.145 125.752 176.686 125.96C176.232 126.169 175.671 126.273 175.004 126.273ZM188.791 123H185.769L189.695 111.364H193.439L197.365 123H194.342L191.609 114.295H191.519L188.791 123ZM188.388 118.42H194.706V120.557H188.388V118.42ZM202.139 126.455C201.31 126.455 200.6 126.339 200.009 126.108C199.418 125.877 198.954 125.561 198.617 125.159C198.279 124.758 198.077 124.303 198.009 123.795L200.639 123.648C200.689 123.826 200.779 123.981 200.912 124.114C201.048 124.246 201.225 124.348 201.44 124.42C201.66 124.492 201.918 124.528 202.213 124.528C202.679 124.528 203.064 124.415 203.367 124.188C203.673 123.964 203.827 123.572 203.827 123.011V121.477H203.73C203.62 121.746 203.454 121.987 203.23 122.199C203.007 122.411 202.728 122.578 202.395 122.699C202.065 122.82 201.687 122.881 201.259 122.881C200.622 122.881 200.039 122.733 199.509 122.438C198.982 122.138 198.56 121.676 198.242 121.051C197.927 120.422 197.77 119.614 197.77 118.625C197.77 117.606 197.933 116.767 198.259 116.108C198.584 115.445 199.011 114.955 199.537 114.636C200.067 114.318 200.637 114.159 201.247 114.159C201.706 114.159 202.098 114.239 202.423 114.398C202.753 114.553 203.024 114.754 203.236 115C203.448 115.246 203.609 115.502 203.719 115.767H203.798V114.273H206.565V123.034C206.565 123.773 206.38 124.396 206.009 124.903C205.637 125.411 205.118 125.795 204.452 126.057C203.785 126.322 203.014 126.455 202.139 126.455ZM202.225 120.858C202.562 120.858 202.85 120.769 203.088 120.591C203.327 120.413 203.511 120.157 203.639 119.824C203.768 119.491 203.833 119.091 203.833 118.625C203.833 118.152 203.768 117.744 203.639 117.403C203.514 117.059 203.331 116.794 203.088 116.608C202.85 116.422 202.562 116.33 202.225 116.33C201.88 116.33 201.588 116.424 201.35 116.614C201.111 116.803 200.929 117.07 200.804 117.415C200.683 117.756 200.622 118.159 200.622 118.625C200.622 119.091 200.685 119.491 200.81 119.824C200.935 120.157 201.115 120.413 201.35 120.591C201.588 120.769 201.88 120.858 202.225 120.858ZM210.797 123.148C210.24 123.148 209.746 123.055 209.314 122.869C208.886 122.68 208.547 122.396 208.297 122.017C208.051 121.634 207.928 121.155 207.928 120.58C207.928 120.095 208.013 119.686 208.183 119.352C208.354 119.019 208.589 118.748 208.888 118.54C209.187 118.331 209.532 118.174 209.922 118.068C210.312 117.958 210.729 117.884 211.172 117.847C211.668 117.801 212.068 117.754 212.371 117.705C212.674 117.652 212.894 117.578 213.03 117.483C213.17 117.384 213.24 117.246 213.24 117.068V117.04C213.24 116.748 213.14 116.523 212.939 116.364C212.738 116.205 212.467 116.125 212.127 116.125C211.759 116.125 211.464 116.205 211.24 116.364C211.017 116.523 210.875 116.742 210.814 117.023L208.252 116.932C208.327 116.402 208.522 115.928 208.837 115.511C209.155 115.091 209.591 114.761 210.144 114.523C210.7 114.28 211.369 114.159 212.149 114.159C212.706 114.159 213.219 114.225 213.689 114.358C214.159 114.487 214.568 114.676 214.916 114.926C215.265 115.172 215.534 115.475 215.723 115.835C215.916 116.195 216.013 116.606 216.013 117.068V123H213.399V121.784H213.331C213.176 122.08 212.977 122.33 212.734 122.534C212.496 122.739 212.214 122.892 211.888 122.994C211.566 123.097 211.202 123.148 210.797 123.148ZM211.655 121.33C211.954 121.33 212.223 121.269 212.462 121.148C212.704 121.027 212.897 120.86 213.041 120.648C213.185 120.432 213.257 120.182 213.257 119.898V119.068C213.178 119.11 213.081 119.148 212.967 119.182C212.858 119.216 212.736 119.248 212.604 119.278C212.471 119.309 212.335 119.335 212.195 119.358C212.055 119.381 211.92 119.402 211.791 119.42C211.53 119.462 211.306 119.527 211.121 119.614C210.939 119.701 210.799 119.814 210.7 119.955C210.606 120.091 210.558 120.254 210.558 120.443C210.558 120.731 210.661 120.951 210.865 121.102C211.074 121.254 211.337 121.33 211.655 121.33ZM217.712 123V114.273H220.49V123H217.712ZM219.104 113.256C218.714 113.256 218.378 113.127 218.098 112.869C217.818 112.608 217.678 112.294 217.678 111.926C217.678 111.562 217.818 111.252 218.098 110.994C218.378 110.733 218.714 110.602 219.104 110.602C219.498 110.602 219.833 110.733 220.109 110.994C220.39 111.252 220.53 111.562 220.53 111.926C220.53 112.294 220.39 112.608 220.109 112.869C219.833 113.127 219.498 113.256 219.104 113.256ZM225.037 118.023V123H222.259V114.273H224.901V115.875H224.997C225.19 115.341 225.52 114.922 225.986 114.619C226.452 114.312 227.007 114.159 227.651 114.159C228.264 114.159 228.797 114.297 229.247 114.574C229.702 114.847 230.054 115.229 230.304 115.722C230.558 116.21 230.683 116.782 230.679 117.438V123H227.901V117.983C227.904 117.498 227.781 117.119 227.531 116.847C227.285 116.574 226.942 116.438 226.503 116.438C226.211 116.438 225.954 116.502 225.73 116.631C225.511 116.756 225.34 116.936 225.219 117.17C225.101 117.405 225.041 117.689 225.037 118.023Z" fill="white"/>
<path d="M97.1923 226.725V224.441H107.028V226.725H103.499V236.077H100.726V226.725H97.1923ZM107.495 236.077V227.35H110.194V228.941H110.285C110.444 228.365 110.703 227.937 111.063 227.657C111.423 227.373 111.841 227.231 112.319 227.231C112.448 227.231 112.58 227.24 112.716 227.259C112.853 227.274 112.98 227.299 113.097 227.333V229.748C112.965 229.702 112.79 229.666 112.574 229.64C112.362 229.613 112.173 229.6 112.006 229.6C111.677 229.6 111.379 229.674 111.114 229.822C110.853 229.965 110.646 230.168 110.495 230.429C110.347 230.687 110.273 230.99 110.273 231.339V236.077H107.495ZM116.194 239.35C115.86 239.35 115.546 239.323 115.251 239.27C114.955 239.221 114.701 239.155 114.489 239.072L115.103 237.054C115.376 237.145 115.622 237.198 115.841 237.214C116.065 237.229 116.256 237.193 116.415 237.106C116.578 237.022 116.703 236.873 116.79 236.657L116.898 236.395L113.796 227.35H116.705L118.313 233.577H118.404L120.035 227.35H122.961L119.671 236.912C119.512 237.39 119.287 237.81 118.995 238.174C118.707 238.541 118.334 238.829 117.876 239.037C117.421 239.246 116.86 239.35 116.194 239.35ZM129.981 236.077H126.958L130.884 224.441H134.628L138.555 236.077H135.532L132.799 227.373H132.708L129.981 236.077ZM129.577 231.498H135.895V233.634H129.577V231.498ZM143.329 239.532C142.499 239.532 141.789 239.416 141.198 239.185C140.607 238.954 140.143 238.638 139.806 238.236C139.469 237.835 139.266 237.38 139.198 236.873L141.829 236.725C141.878 236.903 141.969 237.058 142.101 237.191C142.238 237.323 142.414 237.426 142.63 237.498C142.849 237.57 143.107 237.606 143.403 237.606C143.868 237.606 144.253 237.492 144.556 237.265C144.863 237.041 145.016 236.649 145.016 236.089V234.554H144.92C144.81 234.823 144.643 235.064 144.42 235.276C144.196 235.488 143.918 235.655 143.584 235.776C143.255 235.897 142.876 235.958 142.448 235.958C141.812 235.958 141.228 235.81 140.698 235.515C140.171 235.215 139.749 234.753 139.431 234.128C139.117 233.5 138.959 232.691 138.959 231.702C138.959 230.683 139.122 229.844 139.448 229.185C139.774 228.522 140.2 228.032 140.726 227.714C141.257 227.395 141.827 227.236 142.437 227.236C142.895 227.236 143.287 227.316 143.613 227.475C143.942 227.63 144.213 227.831 144.425 228.077C144.637 228.323 144.798 228.579 144.908 228.844H144.988V227.35H147.755V236.111C147.755 236.85 147.569 237.473 147.198 237.981C146.827 238.488 146.308 238.873 145.641 239.134C144.974 239.399 144.204 239.532 143.329 239.532ZM143.414 233.935C143.751 233.935 144.039 233.846 144.278 233.668C144.516 233.49 144.7 233.234 144.829 232.901C144.957 232.568 145.022 232.168 145.022 231.702C145.022 231.229 144.957 230.822 144.829 230.481C144.704 230.136 144.52 229.871 144.278 229.685C144.039 229.5 143.751 229.407 143.414 229.407C143.069 229.407 142.778 229.501 142.539 229.691C142.3 229.88 142.118 230.147 141.993 230.492C141.872 230.833 141.812 231.236 141.812 231.702C141.812 232.168 141.874 232.568 141.999 232.901C142.124 233.234 142.304 233.49 142.539 233.668C142.778 233.846 143.069 233.935 143.414 233.935ZM151.986 236.225C151.43 236.225 150.935 236.132 150.503 235.947C150.075 235.757 149.736 235.473 149.486 235.094C149.24 234.712 149.117 234.233 149.117 233.657C149.117 233.172 149.202 232.763 149.373 232.429C149.543 232.096 149.778 231.825 150.077 231.617C150.376 231.409 150.721 231.251 151.111 231.145C151.501 231.036 151.918 230.962 152.361 230.924C152.858 230.878 153.257 230.831 153.56 230.782C153.863 230.729 154.083 230.655 154.219 230.56C154.359 230.462 154.43 230.323 154.43 230.145V230.117C154.43 229.825 154.329 229.6 154.128 229.441C153.928 229.282 153.657 229.202 153.316 229.202C152.948 229.202 152.653 229.282 152.43 229.441C152.206 229.6 152.064 229.82 152.003 230.1L149.441 230.009C149.517 229.479 149.712 229.005 150.026 228.589C150.344 228.168 150.78 227.839 151.333 227.6C151.89 227.358 152.558 227.236 153.339 227.236C153.895 227.236 154.409 227.303 154.878 227.435C155.348 227.564 155.757 227.753 156.106 228.003C156.454 228.25 156.723 228.553 156.912 228.912C157.106 229.272 157.202 229.683 157.202 230.145V236.077H154.589V234.861H154.52C154.365 235.157 154.166 235.407 153.924 235.611C153.685 235.816 153.403 235.969 153.077 236.072C152.755 236.174 152.392 236.225 151.986 236.225ZM152.844 234.407C153.144 234.407 153.412 234.346 153.651 234.225C153.894 234.104 154.087 233.937 154.231 233.725C154.375 233.509 154.447 233.259 154.447 232.975V232.145C154.367 232.187 154.27 232.225 154.157 232.259C154.047 232.293 153.926 232.325 153.793 232.356C153.661 232.386 153.524 232.412 153.384 232.435C153.244 232.458 153.109 232.479 152.981 232.498C152.719 232.539 152.496 232.604 152.31 232.691C152.128 232.778 151.988 232.892 151.89 233.032C151.795 233.168 151.748 233.331 151.748 233.52C151.748 233.808 151.85 234.028 152.055 234.179C152.263 234.331 152.526 234.407 152.844 234.407ZM158.901 236.077V227.35H161.68V236.077H158.901ZM160.293 226.333C159.903 226.333 159.568 226.204 159.287 225.947C159.007 225.685 158.867 225.371 158.867 225.003C158.867 224.64 159.007 224.329 159.287 224.072C159.568 223.81 159.903 223.679 160.293 223.679C160.687 223.679 161.022 223.81 161.299 224.072C161.579 224.329 161.719 224.64 161.719 225.003C161.719 225.371 161.579 225.685 161.299 225.947C161.022 226.204 160.687 226.333 160.293 226.333ZM166.226 231.1V236.077H163.448V227.35H166.09V228.952H166.187C166.38 228.418 166.709 228 167.175 227.697C167.641 227.39 168.196 227.236 168.84 227.236C169.454 227.236 169.986 227.375 170.437 227.651C170.891 227.924 171.243 228.306 171.493 228.799C171.747 229.287 171.872 229.859 171.868 230.515V236.077H169.09V231.06C169.094 230.575 168.971 230.197 168.721 229.924C168.474 229.651 168.132 229.515 167.692 229.515C167.401 229.515 167.143 229.579 166.92 229.708C166.7 229.833 166.529 230.013 166.408 230.248C166.291 230.483 166.23 230.767 166.226 231.1Z" fill="white"/>
<path d="M199.832 248.733C178.985 260.695 155.273 266.751 131.243 266.251C107.213 265.751 83.7741 258.713 63.443 245.894L133.995 133.995L199.832 248.733Z" fill="#D6E716"/>
<path d="M67.6593 23.6397C88.4223 11.5331 112.092 5.31204 136.124 5.64491C160.157 5.97779 183.644 12.852 204.064 25.529L134.292 137.916L67.6593 23.6397Z" fill="#4C16E7"/>
<path d="M66.5794 250.512C46.9844 238.741 30.7741 222.092 19.5291 202.191C8.28408 182.289 2.38817 159.813 2.41624 136.954L134.7 137.116L66.5794 250.512Z" fill="#F71782"/>
<path d="M2.41614 137.116C2.41614 114.257 8.33963 91.7884 19.609 71.9004C30.8785 52.0125 47.1092 35.3842 66.7186 23.6368L134.7 137.116L2.41614 137.116Z" fill="#16E71E"/>
<path d="M124.643 59.3636V71H121.837V61.9886H121.768L119.166 63.5795V61.1477L122.035 59.3636H124.643ZM132.028 71.2841C131.013 71.2841 130.138 71.0436 129.403 70.5625C128.669 70.0777 128.102 69.3826 127.705 68.4773C127.307 67.5682 127.11 66.4754 127.114 65.1989C127.117 63.9223 127.316 62.839 127.71 61.9489C128.108 61.0549 128.672 60.375 129.403 59.9091C130.138 59.4394 131.013 59.2045 132.028 59.2045C133.044 59.2045 133.919 59.4394 134.653 59.9091C135.392 60.375 135.96 61.0549 136.358 61.9489C136.756 62.8428 136.953 63.9261 136.949 65.1989C136.949 66.4792 136.75 67.5739 136.352 68.483C135.955 69.392 135.388 70.0871 134.653 70.5682C133.922 71.0455 133.047 71.2841 132.028 71.2841ZM132.028 68.983C132.634 68.983 133.125 68.6742 133.5 68.0568C133.875 67.4356 134.061 66.483 134.057 65.1989C134.057 64.358 133.972 63.6648 133.801 63.1193C133.631 62.5701 133.394 62.161 133.091 61.892C132.788 61.6231 132.434 61.4886 132.028 61.4886C131.426 61.4886 130.939 61.7936 130.568 62.4034C130.197 63.0095 130.009 63.9413 130.006 65.1989C130.002 66.0511 130.083 66.7576 130.25 67.3182C130.42 67.8788 130.659 68.2973 130.966 68.5739C131.273 68.8466 131.627 68.983 132.028 68.983ZM143.372 71.2841C142.357 71.2841 141.482 71.0436 140.747 70.5625C140.012 70.0777 139.446 69.3826 139.048 68.4773C138.651 67.5682 138.454 66.4754 138.457 65.1989C138.461 63.9223 138.66 62.839 139.054 61.9489C139.452 61.0549 140.016 60.375 140.747 59.9091C141.482 59.4394 142.357 59.2045 143.372 59.2045C144.387 59.2045 145.262 59.4394 145.997 59.9091C146.736 60.375 147.304 61.0549 147.702 61.9489C148.099 62.8428 148.296 63.9261 148.293 65.1989C148.293 66.4792 148.094 67.5739 147.696 68.483C147.298 69.392 146.732 70.0871 145.997 70.5682C145.266 71.0455 144.391 71.2841 143.372 71.2841ZM143.372 68.983C143.978 68.983 144.469 68.6742 144.844 68.0568C145.219 67.4356 145.404 66.483 145.401 65.1989C145.401 64.358 145.315 63.6648 145.145 63.1193C144.974 62.5701 144.738 62.161 144.435 61.892C144.132 61.6231 143.777 61.4886 143.372 61.4886C142.77 61.4886 142.283 61.7936 141.912 62.4034C141.541 63.0095 141.353 63.9413 141.349 65.1989C141.346 66.0511 141.427 66.7576 141.594 67.3182C141.764 67.8788 142.003 68.2973 142.31 68.5739C142.616 68.8466 142.971 68.983 143.372 68.983Z" fill="white"/>
<path d="M40.003 113.648V111.364H49.8382V113.648H46.3098V123H43.5371V113.648H40.003ZM50.3055 123V114.273H53.0044V115.864H53.0953C53.2544 115.288 53.5139 114.86 53.8737 114.58C54.2336 114.295 54.6521 114.153 55.1294 114.153C55.2582 114.153 55.3907 114.163 55.5271 114.182C55.6635 114.197 55.7904 114.222 55.9078 114.256V116.67C55.7752 116.625 55.601 116.589 55.3851 116.562C55.1729 116.536 54.9836 116.523 54.8169 116.523C54.4873 116.523 54.19 116.597 53.9248 116.744C53.6635 116.888 53.457 117.091 53.3055 117.352C53.1578 117.61 53.0839 117.913 53.0839 118.261V123H50.3055ZM59.0044 126.273C58.6711 126.273 58.3567 126.246 58.0612 126.193C57.7657 126.144 57.512 126.078 57.2998 125.994L57.9135 123.977C58.1862 124.068 58.4324 124.121 58.6521 124.136C58.8756 124.152 59.0669 124.116 59.226 124.028C59.3889 123.945 59.5139 123.795 59.601 123.58L59.7089 123.318L56.6067 114.273H59.5157L61.1237 120.5H61.2146L62.8453 114.273H65.7714L62.4817 123.835C62.3226 124.313 62.0972 124.733 61.8055 125.097C61.5176 125.464 61.1445 125.752 60.6862 125.96C60.2317 126.169 59.6711 126.273 59.0044 126.273ZM72.7913 123H69.7686L73.6947 111.364H77.439L81.3652 123H78.3425L75.6095 114.295H75.5186L72.7913 123ZM72.3879 118.42H78.7061V120.557H72.3879V118.42ZM86.1393 126.455C85.3098 126.455 84.5996 126.339 84.0086 126.108C83.4177 125.877 82.9537 125.561 82.6166 125.159C82.2795 124.758 82.0768 124.303 82.0086 123.795L84.6393 123.648C84.6886 123.826 84.7795 123.981 84.9121 124.114C85.0484 124.246 85.2246 124.348 85.4405 124.42C85.6602 124.492 85.9177 124.528 86.2132 124.528C86.6791 124.528 87.0636 124.415 87.3666 124.188C87.6734 123.964 87.8268 123.572 87.8268 123.011V121.477H87.7302C87.6204 121.746 87.4537 121.987 87.2302 122.199C87.0068 122.411 86.7283 122.578 86.395 122.699C86.0655 122.82 85.6867 122.881 85.2586 122.881C84.6223 122.881 84.0389 122.733 83.5086 122.438C82.9821 122.138 82.5598 121.676 82.2416 121.051C81.9272 120.422 81.77 119.614 81.77 118.625C81.77 117.606 81.9329 116.767 82.2586 116.108C82.5844 115.445 83.0105 114.955 83.5371 114.636C84.0674 114.318 84.6374 114.159 85.2473 114.159C85.7056 114.159 86.0977 114.239 86.4234 114.398C86.753 114.553 87.0238 114.754 87.2359 115C87.448 115.246 87.609 115.502 87.7189 115.767H87.7984V114.273H90.5655V123.034C90.5655 123.773 90.3799 124.396 90.0086 124.903C89.6374 125.411 89.1185 125.795 88.4518 126.057C87.7852 126.322 87.0143 126.455 86.1393 126.455ZM86.2246 120.858C86.5617 120.858 86.8496 120.769 87.0882 120.591C87.3268 120.413 87.5105 120.157 87.6393 119.824C87.7681 119.491 87.8325 119.091 87.8325 118.625C87.8325 118.152 87.7681 117.744 87.6393 117.403C87.5143 117.059 87.3306 116.794 87.0882 116.608C86.8496 116.422 86.5617 116.33 86.2246 116.33C85.8799 116.33 85.5882 116.424 85.3496 116.614C85.1109 116.803 84.9291 117.07 84.8041 117.415C84.6829 117.756 84.6223 118.159 84.6223 118.625C84.6223 119.091 84.6848 119.491 84.8098 119.824C84.9348 120.157 85.1147 120.413 85.3496 120.591C85.5882 120.769 85.8799 120.858 86.2246 120.858ZM94.797 123.148C94.2402 123.148 93.7459 123.055 93.314 122.869C92.886 122.68 92.547 122.396 92.297 122.017C92.0508 121.634 91.9277 121.155 91.9277 120.58C91.9277 120.095 92.0129 119.686 92.1834 119.352C92.3538 119.019 92.5887 118.748 92.8879 118.54C93.1871 118.331 93.5318 118.174 93.922 118.068C94.3121 117.958 94.7288 117.884 95.172 117.847C95.6682 117.801 96.0678 117.754 96.3709 117.705C96.6739 117.652 96.8936 117.578 97.03 117.483C97.1701 117.384 97.2402 117.246 97.2402 117.068V117.04C97.2402 116.748 97.1398 116.523 96.939 116.364C96.7383 116.205 96.4675 116.125 96.1265 116.125C95.7591 116.125 95.4637 116.205 95.2402 116.364C95.0167 116.523 94.8746 116.742 94.814 117.023L92.2515 116.932C92.3273 116.402 92.5224 115.928 92.8368 115.511C93.155 115.091 93.5906 114.761 94.1436 114.523C94.7004 114.28 95.369 114.159 96.1493 114.159C96.7061 114.159 97.2193 114.225 97.689 114.358C98.1587 114.487 98.5678 114.676 98.9163 114.926C99.2648 115.172 99.5337 115.475 99.7231 115.835C99.9163 116.195 100.013 116.606 100.013 117.068V123H97.3993V121.784H97.3311C97.1758 122.08 96.9769 122.33 96.7345 122.534C96.4959 122.739 96.2137 122.892 95.8879 122.994C95.5659 123.097 95.2023 123.148 94.797 123.148ZM95.655 121.33C95.9542 121.33 96.2231 121.269 96.4618 121.148C96.7042 121.027 96.8974 120.86 97.0413 120.648C97.1853 120.432 97.2572 120.182 97.2572 119.898V119.068C97.1777 119.11 97.0811 119.148 96.9675 119.182C96.8576 119.216 96.7364 119.248 96.6038 119.278C96.4712 119.309 96.3349 119.335 96.1947 119.358C96.0546 119.381 95.9201 119.402 95.7913 119.42C95.53 119.462 95.3065 119.527 95.1209 119.614C94.939 119.701 94.7989 119.814 94.7004 119.955C94.6057 120.091 94.5584 120.254 94.5584 120.443C94.5584 120.731 94.6606 120.951 94.8652 121.102C95.0735 121.254 95.3368 121.33 95.655 121.33ZM101.712 123V114.273H104.49V123H101.712ZM103.104 113.256C102.714 113.256 102.378 113.127 102.098 112.869C101.818 112.608 101.678 112.294 101.678 111.926C101.678 111.562 101.818 111.252 102.098 110.994C102.378 110.733 102.714 110.602 103.104 110.602C103.498 110.602 103.833 110.733 104.109 110.994C104.39 111.252 104.53 111.562 104.53 111.926C104.53 112.294 104.39 112.608 104.109 112.869C103.833 113.127 103.498 113.256 103.104 113.256ZM109.037 118.023V123H106.259V114.273H108.901V115.875H108.997C109.19 115.341 109.52 114.922 109.986 114.619C110.452 114.312 111.007 114.159 111.651 114.159C112.264 114.159 112.797 114.297 113.247 114.574C113.702 114.847 114.054 115.229 114.304 115.722C114.558 116.21 114.683 116.782 114.679 117.438V123H111.901V117.983C111.904 117.498 111.781 117.119 111.531 116.847C111.285 116.574 110.942 116.438 110.503 116.438C110.211 116.438 109.954 116.502 109.73 116.631C109.511 116.756 109.34 116.936 109.219 117.17C109.101 117.405 109.041 117.689 109.037 118.023Z" fill="white"/>
<path d="M97.003 211.648V209.364H106.838V211.648H103.31V221H100.537V211.648H97.003ZM107.306 221V212.273H110.004V213.864H110.095C110.254 213.288 110.514 212.86 110.874 212.58C111.234 212.295 111.652 212.153 112.129 212.153C112.258 212.153 112.391 212.163 112.527 212.182C112.663 212.197 112.79 212.222 112.908 212.256V214.67C112.775 214.625 112.601 214.589 112.385 214.562C112.173 214.536 111.984 214.523 111.817 214.523C111.487 214.523 111.19 214.597 110.925 214.744C110.663 214.888 110.457 215.091 110.306 215.352C110.158 215.61 110.084 215.913 110.084 216.261V221H107.306ZM116.004 224.273C115.671 224.273 115.357 224.246 115.061 224.193C114.766 224.144 114.512 224.078 114.3 223.994L114.913 221.977C115.186 222.068 115.432 222.121 115.652 222.136C115.876 222.152 116.067 222.116 116.226 222.028C116.389 221.945 116.514 221.795 116.601 221.58L116.709 221.318L113.607 212.273H116.516L118.124 218.5H118.215L119.845 212.273H122.771L119.482 221.835C119.323 222.313 119.097 222.733 118.806 223.097C118.518 223.464 118.145 223.752 117.686 223.96C117.232 224.169 116.671 224.273 116.004 224.273ZM129.791 221H126.769L130.695 209.364H134.439L138.365 221H135.342L132.609 212.295H132.519L129.791 221ZM129.388 216.42H135.706V218.557H129.388V216.42ZM143.139 224.455C142.31 224.455 141.6 224.339 141.009 224.108C140.418 223.877 139.954 223.561 139.617 223.159C139.279 222.758 139.077 222.303 139.009 221.795L141.639 221.648C141.689 221.826 141.779 221.981 141.912 222.114C142.048 222.246 142.225 222.348 142.44 222.42C142.66 222.492 142.918 222.528 143.213 222.528C143.679 222.528 144.064 222.415 144.367 222.188C144.673 221.964 144.827 221.572 144.827 221.011V219.477H144.73C144.62 219.746 144.454 219.987 144.23 220.199C144.007 220.411 143.728 220.578 143.395 220.699C143.065 220.82 142.687 220.881 142.259 220.881C141.622 220.881 141.039 220.733 140.509 220.438C139.982 220.138 139.56 219.676 139.242 219.051C138.927 218.422 138.77 217.614 138.77 216.625C138.77 215.606 138.933 214.767 139.259 214.108C139.584 213.445 140.011 212.955 140.537 212.636C141.067 212.318 141.637 212.159 142.247 212.159C142.706 212.159 143.098 212.239 143.423 212.398C143.753 212.553 144.024 212.754 144.236 213C144.448 213.246 144.609 213.502 144.719 213.767H144.798V212.273H147.565V221.034C147.565 221.773 147.38 222.396 147.009 222.903C146.637 223.411 146.118 223.795 145.452 224.057C144.785 224.322 144.014 224.455 143.139 224.455ZM143.225 218.858C143.562 218.858 143.85 218.769 144.088 218.591C144.327 218.413 144.511 218.157 144.639 217.824C144.768 217.491 144.833 217.091 144.833 216.625C144.833 216.152 144.768 215.744 144.639 215.403C144.514 215.059 144.331 214.794 144.088 214.608C143.85 214.422 143.562 214.33 143.225 214.33C142.88 214.33 142.588 214.424 142.35 214.614C142.111 214.803 141.929 215.07 141.804 215.415C141.683 215.756 141.622 216.159 141.622 216.625C141.622 217.091 141.685 217.491 141.81 217.824C141.935 218.157 142.115 218.413 142.35 218.591C142.588 218.769 142.88 218.858 143.225 218.858ZM151.797 221.148C151.24 221.148 150.746 221.055 150.314 220.869C149.886 220.68 149.547 220.396 149.297 220.017C149.051 219.634 148.928 219.155 148.928 218.58C148.928 218.095 149.013 217.686 149.183 217.352C149.354 217.019 149.589 216.748 149.888 216.54C150.187 216.331 150.532 216.174 150.922 216.068C151.312 215.958 151.729 215.884 152.172 215.847C152.668 215.801 153.068 215.754 153.371 215.705C153.674 215.652 153.894 215.578 154.03 215.483C154.17 215.384 154.24 215.246 154.24 215.068V215.04C154.24 214.748 154.14 214.523 153.939 214.364C153.738 214.205 153.467 214.125 153.127 214.125C152.759 214.125 152.464 214.205 152.24 214.364C152.017 214.523 151.875 214.742 151.814 215.023L149.252 214.932C149.327 214.402 149.522 213.928 149.837 213.511C150.155 213.091 150.591 212.761 151.144 212.523C151.7 212.28 152.369 212.159 153.149 212.159C153.706 212.159 154.219 212.225 154.689 212.358C155.159 212.487 155.568 212.676 155.916 212.926C156.265 213.172 156.534 213.475 156.723 213.835C156.916 214.195 157.013 214.606 157.013 215.068V221H154.399V219.784H154.331C154.176 220.08 153.977 220.33 153.734 220.534C153.496 220.739 153.214 220.892 152.888 220.994C152.566 221.097 152.202 221.148 151.797 221.148ZM152.655 219.33C152.954 219.33 153.223 219.269 153.462 219.148C153.704 219.027 153.897 218.86 154.041 218.648C154.185 218.432 154.257 218.182 154.257 217.898V217.068C154.178 217.11 154.081 217.148 153.967 217.182C153.858 217.216 153.736 217.248 153.604 217.278C153.471 217.309 153.335 217.335 153.195 217.358C153.055 217.381 152.92 217.402 152.791 217.42C152.53 217.462 152.306 217.527 152.121 217.614C151.939 217.701 151.799 217.814 151.7 217.955C151.606 218.091 151.558 218.254 151.558 218.443C151.558 218.731 151.661 218.951 151.865 219.102C152.074 219.254 152.337 219.33 152.655 219.33ZM158.712 221V212.273H161.49V221H158.712ZM160.104 211.256C159.714 211.256 159.378 211.127 159.098 210.869C158.818 210.608 158.678 210.294 158.678 209.926C158.678 209.562 158.818 209.252 159.098 208.994C159.378 208.733 159.714 208.602 160.104 208.602C160.498 208.602 160.833 208.733 161.109 208.994C161.39 209.252 161.53 209.562 161.53 209.926C161.53 210.294 161.39 210.608 161.109 210.869C160.833 211.127 160.498 211.256 160.104 211.256ZM166.037 216.023V221H163.259V212.273H165.901V213.875H165.997C166.19 213.341 166.52 212.922 166.986 212.619C167.452 212.312 168.007 212.159 168.651 212.159C169.264 212.159 169.797 212.297 170.247 212.574C170.702 212.847 171.054 213.229 171.304 213.722C171.558 214.21 171.683 214.782 171.679 215.438V221H168.901V215.983C168.904 215.498 168.781 215.119 168.531 214.847C168.285 214.574 167.942 214.438 167.503 214.438C167.211 214.438 166.954 214.502 166.73 214.631C166.511 214.756 166.34 214.936 166.219 215.17C166.101 215.405 166.041 215.689 166.037 216.023Z" fill="#F5F5F5"/>
<path d="M55.3458 177V174.977L59.5902 171.261C59.9083 170.973 60.1792 170.71 60.4027 170.472C60.6261 170.229 60.7966 169.987 60.914 169.744C61.0314 169.498 61.0902 169.231 61.0902 168.943C61.0902 168.621 61.0201 168.347 60.8799 168.119C60.7398 167.888 60.5466 167.71 60.3004 167.585C60.0542 167.46 59.772 167.398 59.4538 167.398C59.1318 167.398 58.8496 167.464 58.6072 167.597C58.3648 167.725 58.1754 167.913 58.039 168.159C57.9064 168.405 57.8402 168.705 57.8402 169.057H55.1754C55.1754 168.265 55.3534 167.581 55.7095 167.006C56.0655 166.43 56.5655 165.987 57.2095 165.676C57.8572 165.362 58.6091 165.205 59.4652 165.205C60.3477 165.205 61.1148 165.352 61.7663 165.648C62.4178 165.943 62.9216 166.356 63.2777 166.886C63.6375 167.413 63.8174 168.025 63.8174 168.722C63.8174 169.165 63.7284 169.604 63.5504 170.04C63.3723 170.475 63.0523 170.956 62.5902 171.483C62.1318 172.009 61.4803 172.64 60.6356 173.375L59.2436 174.659V174.733H63.9595V177H55.3458ZM70.3615 177.284C69.3463 177.284 68.4713 177.044 67.7365 176.562C67.0016 176.078 66.4353 175.383 66.0376 174.477C65.6399 173.568 65.4429 172.475 65.4467 171.199C65.4505 169.922 65.6493 168.839 66.0433 167.949C66.441 167.055 67.0054 166.375 67.7365 165.909C68.4713 165.439 69.3463 165.205 70.3615 165.205C71.3766 165.205 72.2516 165.439 72.9865 165.909C73.7251 166.375 74.2933 167.055 74.691 167.949C75.0887 168.843 75.2857 169.926 75.2819 171.199C75.2819 172.479 75.083 173.574 74.6853 174.483C74.2876 175.392 73.7213 176.087 72.9865 176.568C72.2554 177.045 71.3804 177.284 70.3615 177.284ZM70.3615 174.983C70.9675 174.983 71.458 174.674 71.833 174.057C72.208 173.436 72.3937 172.483 72.3899 171.199C72.3899 170.358 72.3046 169.665 72.1342 169.119C71.9637 168.57 71.727 168.161 71.424 167.892C71.1209 167.623 70.7668 167.489 70.3615 167.489C69.7592 167.489 69.2724 167.794 68.9012 168.403C68.53 169.009 68.3425 169.941 68.3387 171.199C68.3349 172.051 68.4164 172.758 68.583 173.318C68.7535 173.879 68.9921 174.297 69.299 174.574C69.6058 174.847 69.9599 174.983 70.3615 174.983ZM81.7052 177.284C80.6901 177.284 79.8151 177.044 79.0802 176.562C78.3454 176.078 77.7791 175.383 77.3813 174.477C76.9836 173.568 76.7866 172.475 76.7904 171.199C76.7942 169.922 76.9931 168.839 77.387 167.949C77.7848 167.055 78.3491 166.375 79.0802 165.909C79.8151 165.439 80.6901 165.205 81.7052 165.205C82.7204 165.205 83.5954 165.439 84.3302 165.909C85.0688 166.375 85.637 167.055 86.0348 167.949C86.4325 168.843 86.6295 169.926 86.6257 171.199C86.6257 172.479 86.4268 173.574 86.0291 174.483C85.6313 175.392 85.0651 176.087 84.3302 176.568C83.5991 177.045 82.7241 177.284 81.7052 177.284ZM81.7052 174.983C82.3113 174.983 82.8018 174.674 83.1768 174.057C83.5518 173.436 83.7374 172.483 83.7336 171.199C83.7336 170.358 83.6484 169.665 83.4779 169.119C83.3075 168.57 83.0707 168.161 82.7677 167.892C82.4647 167.623 82.1105 167.489 81.7052 167.489C81.1029 167.489 80.6162 167.794 80.245 168.403C79.8738 169.009 79.6863 169.941 79.6825 171.199C79.6787 172.051 79.7601 172.758 79.9268 173.318C80.0973 173.879 80.3359 174.297 80.6427 174.574C80.9495 174.847 81.3037 174.983 81.7052 174.983Z" fill="white"/>
</svg>
