<svg width="41" height="41" viewBox="0 0 41 41" fill="none" xmlns="http://www.w3.org/2000/svg">
<circle cx="20.5" cy="20.5" r="20.5" fill="#F99336"/>
<circle cx="20" cy="21" r="14" fill="white"/>
<path d="M14.0568 19.1651C14.0355 18.9307 13.9407 18.7486 13.7724 18.6186C13.6062 18.4865 13.3686 18.4204 13.0597 18.4204C12.8551 18.4204 12.6847 18.4471 12.5483 18.5003C12.4119 18.5536 12.3097 18.6271 12.2415 18.7209C12.1733 18.8125 12.1381 18.9179 12.136 19.0373C12.1317 19.1353 12.1509 19.2216 12.1935 19.2961C12.2383 19.3707 12.3022 19.4368 12.3853 19.4943C12.4705 19.5497 12.5728 19.5987 12.6921 19.6413C12.8114 19.6839 12.9457 19.7212 13.0948 19.7532L13.6573 19.881C13.9812 19.9513 14.2667 20.0451 14.5138 20.1623C14.7631 20.2795 14.9719 20.419 15.1403 20.5809C15.3107 20.7429 15.4396 20.9293 15.527 21.1402C15.6143 21.3512 15.6591 21.5877 15.6612 21.8498C15.6591 22.2631 15.5547 22.6179 15.348 22.914C15.1413 23.2102 14.8441 23.4371 14.4563 23.5948C14.0707 23.7525 13.6051 23.8313 13.0597 23.8313C12.5121 23.8313 12.0348 23.7493 11.6278 23.5852C11.2209 23.4211 10.9045 23.1719 10.6786 22.8373C10.4528 22.5028 10.3366 22.0799 10.3302 21.5685H11.8452C11.8579 21.7795 11.9144 21.9552 12.0146 22.0959C12.1147 22.2365 12.2521 22.343 12.4268 22.4155C12.6037 22.4879 12.8082 22.5241 13.0405 22.5241C13.2535 22.5241 13.4347 22.4954 13.5838 22.4378C13.7351 22.3803 13.8512 22.3004 13.9322 22.1981C14.0131 22.0959 14.0547 21.9787 14.0568 21.8466C14.0547 21.723 14.0163 21.6175 13.9418 21.5302C13.8672 21.4407 13.7521 21.364 13.5966 21.3C13.4432 21.234 13.2472 21.1733 13.0085 21.1179L12.3246 20.9581C11.7578 20.8281 11.3114 20.6182 10.9854 20.3285C10.6594 20.0366 10.4975 19.6424 10.4996 19.1459C10.4975 18.7411 10.6062 18.3863 10.8256 18.0817C11.0451 17.777 11.3487 17.5394 11.7365 17.3689C12.1243 17.1985 12.5664 17.1133 13.0628 17.1133C13.57 17.1133 14.0099 17.1996 14.3828 17.3721C14.7578 17.5426 15.0486 17.7823 15.2553 18.0912C15.462 18.4002 15.5675 18.7581 15.5717 19.1651H14.0568ZM16.4602 23.7482V17.2027H19.1641C19.6541 17.2027 20.0771 17.2986 20.4329 17.4904C20.7908 17.68 21.0668 17.9453 21.2606 18.2862C21.4545 18.625 21.5515 19.0192 21.5515 19.4687C21.5515 19.9204 21.4524 20.3157 21.2543 20.6545C21.0582 20.9911 20.778 21.2521 20.4137 21.4375C20.0494 21.6228 19.6168 21.7155 19.1161 21.7155H17.4478V20.4691H18.8221C19.0607 20.4691 19.2599 20.4275 19.4197 20.3444C19.5817 20.2613 19.7042 20.1452 19.7873 19.9961C19.8704 19.8448 19.9119 19.669 19.9119 19.4687C19.9119 19.2663 19.8704 19.0916 19.7873 18.9446C19.7042 18.7954 19.5817 18.6804 19.4197 18.5994C19.2578 18.5184 19.0586 18.478 18.8221 18.478H18.0423V23.7482H16.4602ZM23.9133 17.2027V23.7482H22.3313V17.2027H23.9133ZM30.4772 17.2027V23.7482H29.1348L26.5301 19.9705H26.4885V23.7482H24.9065V17.2027H26.268L28.844 20.9741H28.8983V17.2027H30.4772Z" fill="#F99336"/>
</svg>
