<svg width="500" height="500" viewBox="0 0 500 500" fill="none" xmlns="http://www.w3.org/2000/svg">
<path d="M431.226 249.002C431.4 280.698 423.265 311.885 407.632 339.454C391.999 367.023 369.415 390.01 342.131 406.124L250 250L431.226 249.002Z" fill="#F48181"/>
<path d="M340.8 93.0939C368.221 108.972 391.002 131.765 406.87 159.199C422.738 186.632 431.14 217.748 431.236 249.443L250.005 249.999L340.8 93.0939Z" fill="#E4F481"/>
<path d="M158.258 93.6472C186.249 77.2108 218.138 68.5958 250.593 68.7021C283.049 68.8084 314.881 77.6321 342.763 94.2514L250 250L158.258 93.6472Z" fill="#47D7CE"/>
<path d="M68.7737 250.835C68.6277 219.14 76.7904 187.96 92.4479 160.405C108.105 132.85 130.71 109.883 158.009 93.7939L250 250L68.7737 250.835Z" fill="#7A86EB"/>
<path d="M343.952 405.034C316.198 421.866 284.434 430.933 251.98 431.288C219.526 431.643 187.572 423.272 159.457 407.051L250 250L343.952 405.034Z" fill="#F781CF"/>
<path d="M159.413 407.085C131.986 391.217 109.197 368.432 93.3183 341.004C77.4396 313.576 69.0262 282.463 68.9172 250.767L250.145 250.144L159.413 407.085Z" fill="#F4B048"/>
<path d="M238.148 153.455L238.148 168L234.639 168L234.639 156.736L234.554 156.736L231.301 158.724L231.301 155.685L234.888 153.455L238.148 153.455ZM247.379 168.355C246.11 168.355 245.016 168.054 244.098 167.453C243.179 166.847 242.471 165.978 241.974 164.847C241.477 163.71 241.231 162.344 241.236 160.749C241.24 159.153 241.489 157.799 241.981 156.686C242.479 155.569 243.184 154.719 244.098 154.136C245.016 153.549 246.11 153.256 247.379 153.256C248.648 153.256 249.742 153.549 250.66 154.136C251.584 154.719 252.294 155.569 252.791 156.686C253.288 157.804 253.534 159.158 253.53 160.749C253.53 162.349 253.281 163.717 252.784 164.854C252.287 165.99 251.579 166.859 250.66 167.46C249.747 168.057 248.653 168.355 247.379 168.355ZM247.379 165.479C248.137 165.479 248.75 165.093 249.219 164.321C249.687 163.545 249.919 162.354 249.915 160.749C249.915 159.697 249.808 158.831 249.595 158.149C249.382 157.463 249.086 156.951 248.707 156.615C248.328 156.279 247.886 156.111 247.379 156.111C246.626 156.111 246.018 156.492 245.554 157.254C245.09 158.012 244.855 159.177 244.851 160.749C244.846 161.814 244.948 162.697 245.156 163.398C245.369 164.098 245.667 164.622 246.051 164.967C246.434 165.308 246.877 165.479 247.379 165.479ZM261.559 168.355C260.29 168.355 259.196 168.054 258.278 167.453C257.359 166.847 256.651 165.978 256.154 164.847C255.657 163.71 255.411 162.344 255.415 160.749C255.42 159.153 255.669 157.799 256.161 156.686C256.658 155.569 257.364 154.719 258.278 154.136C259.196 153.549 260.29 153.256 261.559 153.256C262.828 153.256 263.921 153.549 264.84 154.136C265.763 154.719 266.474 155.569 266.971 156.686C267.468 157.804 267.714 159.158 267.709 160.749C267.709 162.349 267.461 163.717 266.964 164.854C266.466 165.99 265.759 166.859 264.84 167.46C263.926 168.057 262.832 168.355 261.559 168.355ZM261.559 165.479C262.316 165.479 262.93 165.093 263.398 164.321C263.867 163.545 264.099 162.354 264.094 160.749C264.094 159.697 263.988 158.831 263.775 158.149C263.562 157.463 263.266 156.951 262.887 156.615C262.508 156.279 262.065 156.111 261.559 156.111C260.806 156.111 260.198 156.492 259.733 157.254C259.269 158.012 259.035 159.177 259.03 160.749C259.026 161.814 259.127 162.697 259.336 163.398C259.549 164.098 259.847 164.622 260.231 164.967C260.614 165.308 261.057 165.479 261.559 165.479Z" fill="white"/>
<path d="M350.949 286.009L353.068 287.389L354.063 294.37C354.147 294.899 354.238 295.363 354.335 295.76C354.437 296.159 354.574 296.503 354.748 296.792C354.926 297.083 355.165 297.326 355.467 297.523C355.804 297.742 356.14 297.856 356.473 297.865C356.811 297.876 357.129 297.795 357.428 297.622C357.727 297.45 357.985 297.197 358.202 296.864C358.422 296.526 358.545 296.186 358.572 295.841C358.602 295.5 358.535 295.173 358.37 294.862C358.203 294.556 357.935 294.282 357.566 294.041L359.384 291.251C360.213 291.791 360.808 292.444 361.168 293.21C361.528 293.976 361.651 294.802 361.537 295.688C361.424 296.581 361.075 297.476 360.491 298.372C359.889 299.296 359.211 299.999 358.457 300.48C357.703 300.96 356.927 301.206 356.128 301.217C355.331 301.235 354.568 301.006 353.838 300.53C353.374 300.228 352.974 299.835 352.64 299.351C352.305 298.867 352.019 298.204 351.783 297.36C351.545 296.521 351.329 295.408 351.136 294.022L350.741 291.688L350.664 291.638L347.445 296.577L345.071 295.03L350.949 286.009ZM340.405 301.54C341.097 300.477 341.946 299.725 342.952 299.284C343.961 298.845 345.075 298.726 346.295 298.928C347.518 299.131 348.797 299.671 350.132 300.546C351.466 301.421 352.465 302.369 353.128 303.389C353.793 304.415 354.12 305.47 354.109 306.554C354.099 307.644 353.748 308.721 353.055 309.784C352.363 310.847 351.52 311.603 350.526 312.052C349.534 312.508 348.434 312.639 347.227 312.445C346.019 312.252 344.75 311.719 343.42 310.846C342.079 309.973 341.068 309.017 340.388 307.98C339.707 306.943 339.365 305.876 339.363 304.778C339.362 303.687 339.709 302.608 340.405 301.54ZM342.815 303.111C342.401 303.746 342.39 304.47 342.78 305.284C343.175 306.101 344.046 306.945 345.393 307.817C346.274 308.391 347.058 308.775 347.746 308.969C348.437 309.165 349.027 309.196 349.516 309.062C350.004 308.929 350.387 308.65 350.663 308.225C351.074 307.594 351.087 306.876 350.702 306.071C350.32 305.269 349.473 304.437 348.158 303.575C347.268 302.989 346.473 302.592 345.772 302.384C345.068 302.18 344.467 302.145 343.968 302.277C343.473 302.412 343.089 302.69 342.815 303.111ZM332.664 313.421C333.356 312.357 334.205 311.605 335.211 311.164C336.22 310.725 337.334 310.606 338.554 310.808C339.777 311.012 341.056 311.551 342.39 312.426C343.725 313.301 344.724 314.249 345.387 315.269C346.052 316.295 346.379 317.35 346.368 318.434C346.358 319.524 346.007 320.601 345.314 321.664C344.622 322.727 343.779 323.483 342.785 323.932C341.793 324.388 340.693 324.519 339.486 324.325C338.278 324.132 337.009 323.599 335.679 322.726C334.338 321.853 333.327 320.897 332.647 319.86C331.966 318.824 331.624 317.756 331.622 316.658C331.621 315.567 331.968 314.488 332.664 313.421ZM335.074 314.991C334.66 315.626 334.649 316.35 335.039 317.164C335.434 317.981 336.305 318.825 337.652 319.698C338.533 320.271 339.317 320.655 340.005 320.849C340.696 321.045 341.286 321.076 341.775 320.943C342.263 320.809 342.646 320.53 342.922 320.105C343.333 319.474 343.346 318.757 342.961 317.952C342.579 317.149 341.731 316.317 340.417 315.455C339.527 314.869 338.731 314.473 338.031 314.265C337.327 314.06 336.726 314.025 336.227 314.157C335.732 314.293 335.348 314.57 335.074 314.991Z" fill="white"/>
<path d="M166.192 304.525C166.869 305.341 167.323 306.189 167.554 307.068C167.785 307.947 167.794 308.785 167.582 309.582C167.366 310.376 166.929 311.058 166.271 311.629L164.095 309.005C164.488 308.642 164.681 308.199 164.673 307.677C164.66 307.158 164.474 306.682 164.115 306.248C163.834 305.909 163.51 305.67 163.143 305.532C162.776 305.393 162.395 305.361 162.002 305.435C161.604 305.513 161.23 305.7 160.88 305.997C160.516 306.292 160.263 306.628 160.12 307.005C159.974 307.378 159.937 307.76 160.008 308.15C160.073 308.539 160.247 308.905 160.531 309.248C160.797 309.575 161.123 309.824 161.511 309.995C161.895 310.162 162.275 310.216 162.651 310.156L164.184 312.917L157.745 317.436L151.787 310.253L153.969 308.444L158.081 313.402L160.934 311.469L160.88 311.404C160.416 311.475 159.913 311.387 159.371 311.142C158.822 310.896 158.329 310.508 157.891 309.98C157.334 309.309 156.995 308.582 156.874 307.797C156.745 307.011 156.831 306.239 157.13 305.48C157.426 304.718 157.93 304.042 158.641 303.452C159.41 302.815 160.242 302.432 161.139 302.303C162.032 302.172 162.919 302.291 163.799 302.662C164.672 303.033 165.47 303.654 166.192 304.525ZM157.636 293.963C158.446 294.94 158.912 295.974 159.036 297.065C159.156 298.159 158.939 299.258 158.385 300.363C157.828 301.471 156.934 302.533 155.703 303.548C154.471 304.563 153.27 305.236 152.099 305.567C150.922 305.898 149.817 305.897 148.786 305.566C147.747 305.234 146.823 304.579 146.013 303.602C145.203 302.626 144.731 301.596 144.596 300.515C144.455 299.432 144.656 298.343 145.199 297.247C145.742 296.151 146.627 295.097 147.854 294.085C149.086 293.063 150.298 292.381 151.49 292.038C152.682 291.695 153.803 291.686 154.852 292.009C155.895 292.331 156.822 292.983 157.636 293.963ZM155.422 295.799C154.938 295.216 154.249 294.991 153.356 295.123C152.459 295.258 151.395 295.839 150.162 296.867C149.353 297.538 148.754 298.174 148.365 298.773C147.973 299.375 147.768 299.929 147.751 300.436C147.734 300.942 147.887 301.39 148.211 301.78C148.691 302.359 149.373 302.584 150.256 302.455C151.136 302.328 152.182 301.765 153.395 300.765C154.218 300.089 154.833 299.447 155.239 298.839C155.642 298.228 155.855 297.664 155.876 297.148C155.893 296.635 155.742 296.186 155.422 295.799ZM148.584 283.049C149.394 284.026 149.86 285.059 149.984 286.15C150.104 287.244 149.887 288.344 149.333 289.449C148.776 290.557 147.882 291.618 146.651 292.633C145.419 293.648 144.218 294.322 143.047 294.653C141.87 294.984 140.765 294.983 139.734 294.651C138.695 294.319 137.771 293.665 136.961 292.688C136.151 291.711 135.679 290.682 135.544 289.6C135.403 288.518 135.604 287.428 136.147 286.332C136.689 285.236 137.575 284.182 138.802 283.17C140.034 282.149 141.246 281.467 142.438 281.124C143.63 280.781 144.751 280.771 145.8 281.094C146.843 281.417 147.77 282.068 148.584 283.049ZM146.369 284.885C145.886 284.302 145.197 284.076 144.304 284.208C143.407 284.343 142.342 284.925 141.11 285.953C140.301 286.624 139.702 287.259 139.313 287.858C138.921 288.461 138.716 289.015 138.699 289.521C138.682 290.027 138.835 290.475 139.159 290.865C139.639 291.445 140.321 291.67 141.204 291.54C142.084 291.414 143.13 290.851 144.343 289.851C145.166 289.174 145.78 288.532 146.187 287.925C146.59 287.313 146.803 286.75 146.824 286.234C146.841 285.721 146.69 285.271 146.369 284.885Z" fill="white"/>
<path d="M329.731 190.631C328.307 191.361 326.959 191.706 325.688 191.666C324.417 191.627 323.285 191.271 322.291 190.599C321.3 189.932 320.507 189.019 319.913 187.86C319.316 186.697 319.038 185.518 319.079 184.321C319.12 183.124 319.492 181.999 320.197 180.945C320.909 179.894 321.974 179.004 323.394 178.276C324.818 177.546 326.164 177.198 327.433 177.234C328.704 177.274 329.835 177.627 330.827 178.295C331.818 178.962 332.612 179.877 333.209 181.04C333.803 182.199 334.082 183.375 334.046 184.57C334.011 185.769 333.64 186.896 332.931 187.952C332.221 189.007 331.155 189.9 329.731 190.631ZM328.091 187.433C328.933 187.001 329.584 186.516 330.042 185.977C330.502 185.443 330.768 184.876 330.838 184.276C330.91 183.68 330.786 183.071 330.466 182.447C330.149 181.828 329.726 181.371 329.197 181.078C328.669 180.785 328.053 180.668 327.348 180.726C326.646 180.788 325.873 181.035 325.031 181.467C324.188 181.9 323.537 182.383 323.076 182.917C322.618 183.455 322.354 184.024 322.284 184.624C322.214 185.224 322.338 185.834 322.655 186.453C322.975 187.077 323.398 187.533 323.924 187.822C324.452 188.115 325.068 188.231 325.77 188.168C326.475 188.11 327.248 187.865 328.091 187.433ZM336.933 204.673C335.509 205.403 334.162 205.748 332.891 205.708C331.62 205.668 330.487 205.313 329.494 204.641C328.502 203.974 327.709 203.061 327.115 201.902C326.519 200.739 326.241 199.559 326.281 198.363C326.322 197.166 326.695 196.041 327.4 194.987C328.111 193.936 329.177 193.046 330.596 192.318C332.02 191.588 333.367 191.24 334.635 191.276C335.906 191.316 337.038 191.669 338.029 192.337C339.021 193.004 339.815 193.919 340.411 195.082C341.005 196.241 341.284 197.417 341.248 198.612C341.214 199.811 340.842 200.938 340.133 201.994C339.424 203.049 338.357 203.942 336.933 204.673ZM335.293 201.475C336.136 201.043 336.786 200.557 337.244 200.019C337.705 199.485 337.97 198.918 338.04 198.318C338.112 197.722 337.988 197.112 337.669 196.489C337.351 195.87 336.928 195.413 336.4 195.12C335.872 194.827 335.255 194.71 334.551 194.768C333.848 194.83 333.076 195.077 332.233 195.509C331.391 195.941 330.739 196.425 330.279 196.959C329.82 197.497 329.556 198.066 329.486 198.666C329.416 199.266 329.54 199.876 329.858 200.495C330.177 201.119 330.6 201.575 331.126 201.864C331.655 202.157 332.27 202.273 332.972 202.21C333.677 202.152 334.45 201.907 335.293 201.475ZM331.399 209.818L344.341 203.18L347.083 208.526C347.58 209.495 347.82 210.428 347.801 211.327C347.789 212.227 347.545 213.041 347.067 213.77C346.594 214.497 345.913 215.089 345.024 215.545C344.131 216.003 343.249 216.208 342.378 216.16C341.514 216.113 340.713 215.824 339.977 215.292C339.241 214.759 338.619 213.998 338.112 213.008L336.42 209.709L338.884 208.445L340.278 211.162C340.52 211.634 340.804 211.986 341.131 212.218C341.459 212.454 341.813 212.578 342.192 212.591C342.576 212.602 342.965 212.506 343.361 212.303C343.761 212.098 344.065 211.838 344.271 211.525C344.482 211.209 344.585 210.85 344.581 210.448C344.577 210.046 344.455 209.611 344.215 209.143L343.424 207.601L333.003 212.946L331.399 209.818ZM350.004 223.774C350.445 223.495 350.709 223.122 350.796 222.658C350.888 222.195 350.778 221.658 350.465 221.048C350.257 220.643 350.032 220.333 349.788 220.117C349.544 219.902 349.295 219.774 349.041 219.734C348.791 219.693 348.546 219.73 348.308 219.847C348.11 219.938 347.959 220.063 347.855 220.223C347.753 220.387 347.687 220.581 347.657 220.803C347.634 221.028 347.641 221.28 347.678 221.559C347.715 221.838 347.777 222.141 347.865 222.469L348.183 223.711C348.372 224.422 348.476 225.082 348.495 225.689C348.516 226.301 348.452 226.856 348.303 227.353C348.155 227.854 347.918 228.298 347.589 228.685C347.261 229.071 346.838 229.4 346.322 229.67C345.503 230.085 344.695 230.238 343.9 230.13C343.105 230.021 342.355 229.664 341.65 229.057C340.947 228.454 340.319 227.614 339.766 226.535C339.21 225.452 338.889 224.426 338.8 223.454C338.712 222.483 338.884 221.605 339.316 220.819C339.749 220.033 340.467 219.375 341.472 218.843L343.008 221.839C342.604 222.078 342.314 222.368 342.137 222.709C341.961 223.049 341.89 223.429 341.923 223.848C341.96 224.271 342.095 224.712 342.331 225.172C342.547 225.593 342.788 225.922 343.053 226.158C343.32 226.399 343.596 226.548 343.88 226.604C344.164 226.66 344.438 226.624 344.701 226.494C344.944 226.364 345.113 226.182 345.21 225.946C345.312 225.707 345.347 225.402 345.315 225.03C345.29 224.659 345.212 224.21 345.079 223.682L344.701 222.168C344.384 220.915 344.346 219.82 344.588 218.881C344.835 217.941 345.45 217.221 346.434 216.721C347.232 216.307 348.044 216.162 348.869 216.287C349.694 216.412 350.471 216.771 351.202 217.365C351.932 217.959 352.549 218.746 353.053 219.728C353.567 220.731 353.842 221.688 353.879 222.601C353.923 223.515 353.744 224.333 353.342 225.055C352.941 225.777 352.34 226.349 351.54 226.77L350.004 223.774Z" fill="white"/>
<path d="M155.904 214.101C157.154 215.101 158.021 216.188 158.505 217.364C158.989 218.54 159.128 219.719 158.923 220.9C158.72 222.078 158.212 223.176 157.398 224.192C156.582 225.213 155.619 225.949 154.511 226.402C153.402 226.856 152.223 226.976 150.973 226.765C149.723 226.546 148.475 225.939 147.229 224.942C145.979 223.942 145.111 222.856 144.624 221.684C144.14 220.508 143.999 219.331 144.202 218.153C144.405 216.975 144.914 215.876 145.731 214.856C146.544 213.839 147.504 213.103 148.608 212.647C149.716 212.187 150.897 212.064 152.15 212.279C153.403 212.493 154.655 213.101 155.904 214.101ZM153.659 216.907C152.92 216.315 152.211 215.92 151.532 215.723C150.856 215.522 150.23 215.512 149.654 215.694C149.081 215.872 148.575 216.234 148.137 216.782C147.703 217.325 147.46 217.898 147.408 218.5C147.357 219.101 147.503 219.712 147.844 220.331C148.189 220.946 148.731 221.55 149.47 222.141C150.209 222.733 150.917 223.129 151.593 223.331C152.272 223.528 152.899 223.536 153.475 223.354C154.051 223.172 154.557 222.81 154.991 222.266C155.429 221.719 155.672 221.147 155.72 220.548C155.772 219.946 155.625 219.338 155.28 218.723C154.939 218.104 154.398 217.498 153.659 216.907ZM165.765 201.779C167.014 202.779 167.881 203.867 168.365 205.043C168.849 206.218 168.989 207.397 168.783 208.579C168.58 209.757 168.072 210.854 167.258 211.871C166.442 212.891 165.479 213.628 164.371 214.081C163.262 214.534 162.083 214.655 160.834 214.443C159.583 214.225 158.335 213.617 157.089 212.62C155.84 211.62 154.971 210.534 154.484 209.362C154 208.186 153.859 207.009 154.062 205.831C154.265 204.653 154.775 203.554 155.591 202.534C156.405 201.517 157.364 200.781 158.469 200.325C159.576 199.865 160.757 199.743 162.01 199.957C163.264 200.172 164.515 200.779 165.765 201.779ZM163.519 204.585C162.78 203.993 162.071 203.599 161.392 203.401C160.716 203.2 160.09 203.19 159.514 203.372C158.941 203.55 158.436 203.913 157.998 204.46C157.563 205.003 157.32 205.576 157.269 206.178C157.218 206.78 157.363 207.39 157.704 208.009C158.049 208.625 158.591 209.228 159.33 209.82C160.07 210.411 160.777 210.808 161.453 211.009C162.132 211.207 162.759 211.214 163.335 211.033C163.911 210.851 164.417 210.488 164.852 209.945C165.29 209.398 165.533 208.825 165.581 208.227C165.632 207.625 165.485 207.016 165.141 206.401C164.799 205.782 164.259 205.177 163.519 204.585ZM172.725 204.72L161.369 195.632L165.123 190.941C165.803 190.091 166.557 189.49 167.384 189.139C168.21 188.781 169.053 188.671 169.914 188.808C170.771 188.942 171.589 189.321 172.369 189.945C173.153 190.572 173.701 191.293 174.014 192.107C174.326 192.914 174.39 193.763 174.205 194.653C174.021 195.542 173.581 196.421 172.886 197.29L170.57 200.185L168.407 198.454L170.315 196.07C170.647 195.656 170.851 195.252 170.929 194.86C171.01 194.463 170.978 194.089 170.835 193.738C170.688 193.384 170.44 193.068 170.093 192.79C169.742 192.509 169.381 192.338 169.01 192.278C168.636 192.215 168.267 192.268 167.901 192.437C167.536 192.605 167.189 192.895 166.861 193.305L165.778 194.658L174.922 201.976L172.725 204.72ZM177.838 182.032C177.401 181.743 176.954 181.655 176.495 181.766C176.035 181.871 175.59 182.192 175.161 182.728C174.877 183.083 174.687 183.415 174.59 183.726C174.493 184.037 174.478 184.316 174.546 184.565C174.611 184.81 174.745 185.018 174.949 185.187C175.113 185.33 175.289 185.417 175.478 185.446C175.669 185.472 175.873 185.453 176.088 185.389C176.302 185.318 176.53 185.209 176.769 185.061C177.009 184.913 177.26 184.732 177.522 184.517L178.525 183.719C179.097 183.255 179.656 182.889 180.202 182.623C180.752 182.353 181.284 182.185 181.799 182.118C182.316 182.047 182.819 182.082 183.306 182.223C183.793 182.365 184.266 182.615 184.723 182.975C185.438 183.553 185.908 184.227 186.135 184.997C186.362 185.766 186.343 186.597 186.078 187.489C185.816 188.377 185.307 189.294 184.549 190.241C183.789 191.191 182.984 191.905 182.134 192.383C181.285 192.862 180.413 193.064 179.519 192.992C178.625 192.919 177.73 192.533 176.834 191.835L178.937 189.206C179.321 189.477 179.704 189.623 180.087 189.644C180.47 189.666 180.846 189.575 181.214 189.373C181.585 189.166 181.932 188.862 182.255 188.459C182.551 188.089 182.752 187.735 182.859 187.396C182.97 187.054 182.992 186.742 182.927 186.459C182.862 186.177 182.716 185.942 182.49 185.755C182.273 185.587 182.037 185.507 181.781 185.515C181.523 185.52 181.23 185.613 180.903 185.794C180.575 185.969 180.198 186.225 179.77 186.562L178.543 187.527C177.531 188.33 176.547 188.813 175.592 188.976C174.633 189.136 173.724 188.87 172.865 188.177C172.16 187.619 171.695 186.937 171.471 186.134C171.248 185.33 171.257 184.473 171.5 183.564C171.742 182.654 172.208 181.769 172.898 180.907C173.602 180.027 174.362 179.384 175.179 178.977C175.996 178.563 176.816 178.391 177.639 178.461C178.462 178.532 179.229 178.846 179.941 179.403L177.838 182.032Z" fill="white"/>
<path d="M263.504 346.347C263.504 344.746 263.812 343.39 264.428 342.277C265.043 341.164 265.877 340.319 266.928 339.742C267.974 339.164 269.148 338.875 270.45 338.875C271.757 338.875 272.934 339.166 273.98 339.749C275.027 340.331 275.858 341.176 276.473 342.284C277.084 343.397 277.389 344.751 277.389 346.347C277.389 347.947 277.084 349.304 276.473 350.416C275.858 351.529 275.027 352.374 273.98 352.952C272.934 353.529 271.757 353.818 270.45 353.818C269.148 353.818 267.974 353.529 266.928 352.952C265.877 352.374 265.043 351.529 264.428 350.416C263.812 349.304 263.504 347.947 263.504 346.347ZM267.098 346.347C267.098 347.294 267.233 348.094 267.503 348.747C267.768 349.401 268.152 349.895 268.654 350.232C269.151 350.568 269.75 350.736 270.45 350.736C271.146 350.736 271.745 350.568 272.247 350.232C272.749 349.895 273.135 349.401 273.405 348.747C273.67 348.094 273.803 347.294 273.803 346.347C273.803 345.4 273.67 344.6 273.405 343.946C273.135 343.293 272.749 342.798 272.247 342.462C271.745 342.126 271.146 341.957 270.45 341.957C269.75 341.957 269.151 342.126 268.654 342.462C268.152 342.798 267.768 343.293 267.503 343.946C267.233 344.6 267.098 345.4 267.098 346.347ZM247.723 346.347C247.723 344.746 248.031 343.39 248.646 342.277C249.262 341.164 250.095 340.319 251.146 339.742C252.193 339.164 253.367 338.875 254.669 338.875C255.976 338.875 257.153 339.166 258.199 339.749C259.245 340.331 260.076 341.176 260.692 342.284C261.303 343.397 261.608 344.751 261.608 346.347C261.608 347.947 261.303 349.304 260.692 350.416C260.076 351.529 259.245 352.374 258.199 352.952C257.153 353.529 255.976 353.818 254.669 353.818C253.367 353.818 252.193 353.529 251.146 352.952C250.095 352.374 249.262 351.529 248.646 350.416C248.031 349.304 247.723 347.947 247.723 346.347ZM251.317 346.347C251.317 347.294 251.452 348.094 251.722 348.747C251.987 349.401 252.37 349.895 252.872 350.232C253.369 350.568 253.968 350.736 254.669 350.736C255.365 350.736 255.964 350.568 256.466 350.232C256.968 349.895 257.354 349.401 257.624 348.747C257.889 348.094 258.021 347.294 258.021 346.347C258.021 345.4 257.889 344.6 257.624 343.946C257.354 343.293 256.968 342.798 256.466 342.462C255.964 342.126 255.365 341.958 254.669 341.958C253.968 341.958 253.369 342.126 252.872 342.462C252.37 342.798 251.987 343.293 251.722 343.946C251.452 344.6 251.317 345.4 251.317 346.347ZM245.671 339.074L245.671 353.619L239.662 353.619C238.573 353.619 237.633 353.406 236.842 352.98C236.047 352.559 235.434 351.969 235.003 351.212C234.572 350.459 234.357 349.583 234.357 348.584C234.357 347.58 234.577 346.702 235.017 345.949C235.453 345.201 236.075 344.621 236.885 344.209C237.695 343.797 238.656 343.591 239.769 343.591L243.476 343.591L243.476 346.361L240.422 346.361C239.892 346.361 239.449 346.453 239.094 346.638C238.734 346.823 238.462 347.081 238.277 347.412C238.092 347.748 238 348.139 238 348.584C238 349.034 238.092 349.422 238.277 349.749C238.462 350.08 238.734 350.336 239.094 350.516C239.454 350.696 239.896 350.786 240.422 350.786L242.155 350.786L242.155 339.074L245.671 339.074ZM224.761 349.259C224.809 349.779 225.02 350.184 225.394 350.473C225.763 350.767 226.291 350.913 226.977 350.913C227.432 350.913 227.811 350.854 228.114 350.736C228.417 350.618 228.644 350.454 228.796 350.246C228.947 350.042 229.025 349.808 229.03 349.543C229.039 349.325 228.997 349.133 228.902 348.967C228.803 348.802 228.661 348.655 228.476 348.527C228.287 348.404 228.059 348.295 227.794 348.2C227.529 348.106 227.231 348.023 226.899 347.952L225.649 347.668C224.93 347.511 224.295 347.303 223.746 347.043C223.192 346.782 222.728 346.472 222.354 346.112C221.975 345.752 221.689 345.338 221.494 344.869C221.3 344.401 221.201 343.875 221.196 343.293C221.201 342.374 221.433 341.586 221.892 340.928C222.351 340.27 223.012 339.765 223.874 339.415C224.731 339.065 225.765 338.889 226.977 338.889C228.194 338.889 229.255 339.072 230.159 339.436C231.064 339.801 231.767 340.355 232.269 341.098C232.77 341.841 233.029 342.781 233.043 343.918L229.676 343.918C229.648 343.449 229.522 343.058 229.3 342.746C229.077 342.433 228.772 342.197 228.384 342.036C227.991 341.875 227.536 341.794 227.02 341.794C226.547 341.794 226.144 341.858 225.813 341.986C225.476 342.114 225.218 342.291 225.038 342.519C224.859 342.746 224.766 343.006 224.761 343.3C224.766 343.574 224.851 343.809 225.017 344.003C225.183 344.202 225.439 344.372 225.784 344.514C226.125 344.661 226.561 344.796 227.091 344.919L228.611 345.274C229.87 345.563 230.862 346.029 231.587 346.673C232.311 347.322 232.671 348.198 232.666 349.301C232.671 350.201 232.43 350.989 231.942 351.666C231.454 352.343 230.779 352.871 229.918 353.25C229.056 353.629 228.074 353.818 226.97 353.818C225.843 353.818 224.866 353.627 224.037 353.243C223.204 352.864 222.557 352.332 222.098 351.645C221.639 350.958 221.404 350.163 221.395 349.259L224.761 349.259Z" fill="white"/>
</svg>
